<svg id="Layer_1" data-name="Layer 1" xmlns="http://www.w3.org/2000/svg" width="120" height="120" viewBox="0 0 120 120"><title>brand_logo_1_120x120</title><g id="brand_logo_1"><polygon points="9.084 97.36 5.343 103.704 1.612 97.36 0 97.36 4.647 105.254 4.647 112.493 6.038 112.493 6.038 105.254 10.686 97.36 9.084 97.36" fill="#fff"/><path d="M18.188,97.224a7.717,7.717,0,0,0-7.714,7.714,7.4,7.4,0,0,0,2.266,5.447,7.407,7.407,0,0,0,5.448,2.265,7.713,7.713,0,1,0,0-15.426Zm4.468,12.18a6.085,6.085,0,0,1-4.468,1.855,6.322,6.322,0,0,1,0-12.644A6.318,6.318,0,0,1,22.656,109.4Z" fill="#fff"/><path d="M37.008,107.446a3.825,3.825,0,1,1-7.651,0V97.393H27.966v10.053a5.215,5.215,0,0,0,8.9,3.686,5.023,5.023,0,0,0,1.528-3.686V97.393H37.008Z" fill="#fff"/><path d="M49.663,104.062a4.049,4.049,0,0,0,.875-2.55A4.156,4.156,0,0,0,46.4,97.36H40.958v15.121h1.391v-6.827h3.625l3.551,6.838h1.56l-3.615-6.976A4.017,4.017,0,0,0,49.663,104.062Zm-7.313.2V98.751H46.4a2.756,2.756,0,1,1,0,5.512Z" fill="#fff"/><path d="M65.858,104.6a4.113,4.113,0,0,0-2.663-7.241H58.64v15.133h5.447a4.154,4.154,0,0,0,4.142-4.162,4.088,4.088,0,0,0-2.372-3.73Zm-5.827-5.85h3.163a2.725,2.725,0,0,1,0,5.449H60.031Zm6.007,11.538a2.655,2.655,0,0,1-1.95.812H60.031v-5.51h4.056a2.756,2.756,0,0,1,1.95,4.7Z" fill="#fff"/><path d="M79.082,104.062a4.045,4.045,0,0,0,.876-2.55,4.157,4.157,0,0,0-4.14-4.152H70.379v15.121H71.77v-6.827H75.4l3.55,6.838h1.56l-3.615-6.976A4.007,4.007,0,0,0,79.082,104.062Zm-7.311.2V98.751h4.047a2.756,2.756,0,1,1,0,5.512Z" fill="#fff"/><path d="M81.431,112.493h1.644l2.393-3.782h6v3.782h1.381V97.36H91Zm10.042-5.173H86.342l5.131-8.1Z" fill="#fff"/><polygon points="104.624 109.975 97.09 97.36 95.583 97.36 95.583 112.493 96.974 112.493 96.974 99.88 104.519 112.493 106.015 112.493 106.015 97.36 104.624 97.36 104.624 109.975" fill="#fff"/><path d="M117.787,99.585a7.3,7.3,0,0,0-5.353-2.224h-3.721v15.133h3.721a7.563,7.563,0,0,0,5.353-12.908Zm-.981,9.716a5.96,5.96,0,0,1-4.372,1.813h-2.339V98.742h2.339a6.185,6.185,0,0,1,4.372,10.559Z" fill="#fff"/><path d="M3.3,53.585a.733.733,0,0,0,.25.134l8.887,2.764a.711.711,0,1,0,.422-1.357L9.587,54.108,10.18,52.2,14.5,51.065a.719.719,0,0,0,.546-.761.688.688,0,0,0-.077-.262.68.68,0,0,0-.17-.211.711.711,0,0,0-.253-.135.744.744,0,0,0-.405-.007l-3.908,1.025a3.6,3.6,0,0,0-.31-.886,3.3,3.3,0,0,0-.5-.724,3.124,3.124,0,0,0-.658-.549,3.341,3.341,0,0,0-.79-.361,3.173,3.173,0,0,0-1.3-.13,3.413,3.413,0,0,0-1.212.364,3.341,3.341,0,0,0-.99.788,3.155,3.155,0,0,0-.629,1.142l-.768,2.472a.7.7,0,0,0-.033.285.685.685,0,0,0,.078.26A.677.677,0,0,0,3.3,53.585ZM5.207,50.78a1.811,1.811,0,0,1,.356-.649,1.884,1.884,0,0,1,1.25-.657,1.825,1.825,0,0,1,.742.077,1.789,1.789,0,0,1,.645.354,2,2,0,0,1,.451.559,1.846,1.846,0,0,1,.135,1.429l-.559,1.792L4.649,52.573Z" fill="#fff"/><path d="M10.664,46.54a5.177,5.177,0,0,0,4.083.445,5.369,5.369,0,0,0,1.067-9.859,5.29,5.29,0,0,0-1.995-.644,5.369,5.369,0,0,0-2.086.208,5.362,5.362,0,0,0-1.07,9.849Zm-.884-6.6a3.95,3.95,0,0,1,5.352-1.566,3.945,3.945,0,0,1-.785,7.245,3.8,3.8,0,0,1-3-.327,3.732,3.732,0,0,1-1.887-2.348A3.979,3.979,0,0,1,9.3,41.412,3.9,3.9,0,0,1,9.78,39.94Z" fill="#fff"/><path d="M13.876,32.789l5.336.613L22.6,36.273a.678.678,0,0,0,.52.164.709.709,0,0,0,.4-1.248l-3.386-2.871-1.472-5.17a.711.711,0,0,0-.237-.342.694.694,0,0,0-.516-.169.715.715,0,0,0-.634.882l1.249,4.365-4.51-.519a.657.657,0,0,0-.6.249.71.71,0,0,0,.082,1A.718.718,0,0,0,13.876,32.789Z" fill="#fff"/><path d="M30.753,28.642a.747.747,0,0,0,.271.066.664.664,0,0,0,.511-.17.71.71,0,0,0,.069-1,.782.782,0,0,0-.23-.182l-8.786-4.61a.7.7,0,0,0-.828.08.711.711,0,0,0-.194.81l3.354,9.3a.758.758,0,0,0,.156.29.688.688,0,0,0,.485.245.67.67,0,0,0,.513-.171.685.685,0,0,0,.243-.488.763.763,0,0,0-.029-.277l-1.152-3.221,2.589-2.256Zm-6.136-.764-1.1-3.037,2.858,1.5Z" fill="#fff"/><path d="M38.133,23.022a.686.686,0,0,0-.538.08l-4.27,2.555-4.414-7.378a.711.711,0,1,0-1.22.73L32.47,27a.712.712,0,0,0,.191.214.7.7,0,0,0,.784.031l4.88-2.919a.711.711,0,0,0-.192-1.3Z" fill="#fff"/><path d="M52.718,11.979l-3.866.42L46.309,9.452a.476.476,0,0,0-.443-.211c-.171.044-.255.239-.285.4l-.8,3.809-3.587,1.5c-.178.078-.385.226-.328.448a.592.592,0,0,0,.278.308l3.381,1.931.319,3.877a1.009,1.009,0,0,0,.024.152c.05.193.193.346.407.29a.643.643,0,0,0,.274-.166l2.882-2.612,3.786.892a.625.625,0,0,0,.32.012c.215-.056.259-.257.209-.449a1,1,0,0,0-.046-.147l-1.6-3.547,2.017-3.324a.569.569,0,0,0,.1-.406C53.164,11.991,52.9,11.963,52.718,11.979Z" fill="#fff"/><path d="M64.478,19.463a.621.621,0,0,0,.3.1c.222,0,.318-.179.32-.378a1.024,1.024,0,0,0,0-.153l-.6-3.843,2.824-2.669a.57.57,0,0,0,.205-.365c0-.23-.239-.326-.423-.359l-3.839-.62L61.6,7.659c-.067-.147-.194-.317-.371-.32s-.309.164-.38.308l-1.779,3.46-3.856.5c-.193.028-.431.116-.435.346a.6.6,0,0,0,.186.371l2.748,2.757L56.989,18.9a1.043,1.043,0,0,0-.017.153c0,.2.094.384.316.388a.647.647,0,0,0,.308-.087l3.47-1.755Z" fill="#fff"/><path d="M80.894,14.974l-3.587-1.5-.8-3.809c-.031-.159-.115-.354-.285-.4a.476.476,0,0,0-.443.211L73.238,12.42,69.372,12c-.194-.018-.446.011-.5.234a.59.59,0,0,0,.094.4l2.023,3.326-1.6,3.547a1.012,1.012,0,0,0-.054.145.336.336,0,0,0,.217.451.65.65,0,0,0,.32-.012l3.786-.892,2.882,2.612a.622.622,0,0,0,.274.166c.215.056.351-.1.4-.292a1,1,0,0,0,.031-.15l.32-3.877,3.372-1.933a.564.564,0,0,0,.285-.307C81.28,15.2,81.065,15.05,80.894,14.974Z" fill="#fff"/><path d="M83.6,24.214a.668.668,0,0,0,.207.19l2.226,1.32a3.155,3.155,0,0,0,1.232.427,3.322,3.322,0,0,0,1.263-.078,3.426,3.426,0,0,0,1.144-.541,3.162,3.162,0,0,0,.876-.966,3.3,3.3,0,0,0,.341-.785,3.25,3.25,0,0,0,.126-.837,3.352,3.352,0,0,0-.1-.856,3.532,3.532,0,0,0-.333-.844A2.8,2.8,0,0,0,92.394,19a2.786,2.786,0,0,0-.519-2.031,2.685,2.685,0,0,0-.814-.737l-1.782-1.058a.663.663,0,0,0-.266-.091.774.774,0,0,0-.27.015.721.721,0,0,0-.247.114.692.692,0,0,0-.19.211l-4.75,8.005a.688.688,0,0,0-.092.268.647.647,0,0,0,.017.272A.756.756,0,0,0,83.6,24.214Zm5.566-7.453,1.173.695a1.283,1.283,0,0,1,.391.357,1.4,1.4,0,0,1,.255,1,1.265,1.265,0,0,1-.172.5,1.308,1.308,0,0,1-.36.4,1.43,1.43,0,0,1-.473.223,1.351,1.351,0,0,1-.519.034,1.3,1.3,0,0,1-.508-.176L87.779,19.1Zm-2.11,3.559,1.615.958a1.8,1.8,0,0,1,.546.5,1.871,1.871,0,0,1,.308.65,1.921,1.921,0,0,1,.042.718,1.868,1.868,0,0,1-.743,1.251,1.906,1.906,0,0,1-.648.31,1.86,1.86,0,0,1-.715.043,1.832,1.832,0,0,1-.705-.246l-1.615-.958Z" fill="#fff"/><path d="M96.207,27.508a3.585,3.585,0,0,0,.937.051,3.322,3.322,0,0,0,.86-.186,3.078,3.078,0,0,0,.757-.4,3.379,3.379,0,0,0,.636-.592,3.173,3.173,0,0,0,.613-1.151,3.445,3.445,0,0,0,.126-1.26,3.331,3.331,0,0,0-.353-1.215,3.168,3.168,0,0,0-.816-1.016l-1.993-1.653a.724.724,0,0,0-.251-.138.7.7,0,0,0-.27-.028.681.681,0,0,0-.261.08.721.721,0,0,0-.22.18l-5.94,7.166a.711.711,0,1,0,1.094.907l2.188-2.638,1.539,1.275-.6,4.428a.706.706,0,0,0,.247.658.7.7,0,0,0,.247.136.679.679,0,0,0,.272.03.69.69,0,0,0,.481-.26.729.729,0,0,0,.161-.372Zm-1.985-2.986,2.393-2.886,1.445,1.2a1.8,1.8,0,0,1,.464.576,1.884,1.884,0,0,1,.132,1.407,1.853,1.853,0,0,1-.353.656,1.772,1.772,0,0,1-.575.461,1.966,1.966,0,0,1-.688.205,1.835,1.835,0,0,1-1.372-.419Z" fill="#fff"/><path d="M96.234,32.517a.688.688,0,0,0-.251.481.67.67,0,0,0,.163.515.689.689,0,0,0,.485.25.773.773,0,0,0,.278-.025l3.238-1.1,2.217,2.621-1.632,3a.748.748,0,0,0-.069.27.659.659,0,0,0,.161.513.709.709,0,0,0,1,.083.775.775,0,0,0,.186-.227l4.74-8.716a.694.694,0,0,0-.069-.829.71.71,0,0,0-.807-.205l-9.348,3.214A.764.764,0,0,0,96.234,32.517Zm8.405-1.433-1.546,2.835-1.508-1.782Z" fill="#fff"/><path d="M114.716,42.93a.677.677,0,0,0,.337-.427.71.71,0,0,0-1.031-.813L107.7,45.223l3.8-8.974a.727.727,0,0,0-.04-.608.748.748,0,0,0-.186-.219.677.677,0,0,0-.239-.123.694.694,0,0,0-.274-.02.727.727,0,0,0-.268.089l-8.126,4.541a.692.692,0,0,0-.337.427.677.677,0,0,0,.065.54.707.707,0,0,0,.966.274l6.311-3.527-3.792,8.98a.706.706,0,0,0,.048.595.729.729,0,0,0,.182.217.686.686,0,0,0,.243.125.694.694,0,0,0,.27.022.712.712,0,0,0,.272-.09Z" fill="#fff"/><path d="M113.957,54.674a5.285,5.285,0,0,0,1.834-1.021,5.393,5.393,0,0,0,1.266-1.667,5.16,5.16,0,0,0,.3-4.093l-.65-1.96a.677.677,0,0,0-.142-.246.756.756,0,0,0-.215-.17.706.706,0,0,0-.262-.076.7.7,0,0,0-.282.034L106.975,48.4a.7.7,0,0,0-.247.142.718.718,0,0,0-.165.217.806.806,0,0,0-.071.263.682.682,0,0,0,.034.283l.65,1.96a5.368,5.368,0,0,0,6.781,3.4Zm-5.432-3.852-.425-1.286,7.486-2.481.425,1.286a3.962,3.962,0,0,1-2.5,4.984,3.89,3.89,0,0,1-1.533.2A3.952,3.952,0,0,1,110.5,53.1,3.785,3.785,0,0,1,108.525,50.821Z" fill="#fff"/><g id="crown"><path d="M81.885,45.261a4.67,4.67,0,0,0-4.561,4.807,5.347,5.347,0,0,0,.642,2.5l-5.138,5.6-1.8-10.141a5.354,5.354,0,0,0,3.405-5,5.237,5.237,0,1,0-10.473,0,5.447,5.447,0,0,0,2.185,4.347l-5.269,9.943-5.2-9.943a5.428,5.428,0,0,0,2.185-4.347,5.289,5.289,0,0,0-5.269-5.268,5.233,5.233,0,0,0-5.2,5.268,5.335,5.335,0,0,0,3.4,5L48.862,58.1l-5.076-5.532a3.747,3.747,0,0,0,.9-2.5,4.723,4.723,0,0,0-4.626-4.807A4.669,4.669,0,0,0,35.5,50.068a4.53,4.53,0,0,0,4.3,4.609L45.65,73.708c-4.177,3.358-4.177,7.374-4.177,12.51H80.6c0-5.136,0-9.284-4.306-12.643l5.976-18.9a4.524,4.524,0,0,0,4.24-4.609A4.723,4.723,0,0,0,81.885,45.261ZM40.06,51.583a1.613,1.613,0,1,1,1.607-1.646A1.6,1.6,0,0,1,40.06,51.583Zm29.1-10.339a1.8,1.8,0,0,1,1.863,1.844A1.849,1.849,0,0,1,69.164,45a1.876,1.876,0,0,1-1.8-1.91A1.818,1.818,0,0,1,69.164,41.244Zm-16.576,0a1.832,1.832,0,0,1,1.864,1.844,1.833,1.833,0,1,1-3.663,0A1.82,1.82,0,0,1,52.588,41.244Zm-6.36,40.3c0-2.962,2.571-4.149,5.59-4.873a40.77,40.77,0,0,1,9.058-.79c1.671,0,5.655-.2,8.61.725,3.6.987,6.361,1.976,6.361,4.938ZM72.7,72.324a78.152,78.152,0,0,0-12.465-1.119,49.734,49.734,0,0,0-10.729.987L44.3,58.365l.129-.2,6.618,6.914L53.36,50.923h.129l7.388,13.763,7.388-13.763h.128L70.706,64.95l6.682-6.783.128.131Zm9.187-20.741a1.6,1.6,0,0,1-1.542-1.646,1.629,1.629,0,0,1,1.542-1.581,1.69,1.69,0,0,1,1.607,1.581A1.653,1.653,0,0,1,81.885,51.583Z" fill="#fff" fill-rule="evenodd"/></g></g></svg>