<svg id="Layer_1" data-name="Layer 1" xmlns="http://www.w3.org/2000/svg" width="80" height="80" viewBox="0 0 80 80"><title>big_bundle</title><path d="M2,10.564H18.863c5.965,0,10.1,3.429,10.1,8.126A7.776,7.776,0,0,1,24.5,25.877c3.712,1.644,5.919,4.7,5.919,8.219,0,5.168-4.556,8.737-10.944,8.737H2ZM16.89,23.34c2.208,0,3.805-1.268,3.805-3.006s-1.6-2.959-3.8-2.959H9.985V23.34Zm1.221,12.682c2.349,0,4.04-1.362,4.04-3.241s-1.691-3.241-4.04-3.241H9.985v6.482Z" fill="#fff"/><path d="M34.968,10.564H43V42.833H34.968Z" fill="#fff"/><path d="M63.3,24.327H78V37.808A18.279,18.279,0,0,1,64.8,43.4c-9.535,0-17.519-7.657-17.519-16.722S55.265,10,64.8,10A18.422,18.422,0,0,1,78,15.543l-5.872,5.213A9.6,9.6,0,0,0,64.8,17.281a9.419,9.419,0,0,0,0,18.836,9.776,9.776,0,0,0,5.4-1.692V30.386H63.3Z" fill="#fff"/><path d="M10.188,61.011h-3v2.395h3c.868,0,1.492-.5,1.492-1.2S11.056,61.011,10.188,61.011Z" fill="#fff"/><path d="M48.406,56.69h-1.84v6.542h1.84a3.278,3.278,0,1,0,0-6.542Z" fill="#fff"/><path d="M0,50V70H80V50ZM10.691,65.922H4.236V54h6.23c2.2,0,3.731,1.267,3.731,3a2.874,2.874,0,0,1-1.649,2.656A3.353,3.353,0,0,1,14.735,62.7C14.735,64.6,13.051,65.922,10.691,65.922Zm16.8-5.224a5.248,5.248,0,0,1-5.535,5.432A5.258,5.258,0,0,1,16.423,60.7V54H19.39v6.56a2.593,2.593,0,1,0,5.154,0V54h2.95Zm13.551,5.224H38.078l-5.189-7.046v7.046H29.922V54h2.967l5.189,7.046V54h2.967Zm6.909,0H43.6V54h4.356c4.095,0,6.976,2.465,6.976,5.953S52.049,65.922,47.954,65.922Zm17.524,0H56.784V54h2.95v9.267h5.744Zm10.758-9.267H69.815v1.857h5.831v2.655H69.815v2.1h6.421v2.655H66.848V54h9.388Z" fill="#fff"/><path d="M11.143,57.609c0-.641-.591-1.092-1.406-1.092H7.186v2.2H9.737C10.552,58.72,11.143,58.252,11.143,57.609Z" fill="#fff"/></svg>