<svg id="Layer_1" data-name="Layer 1" xmlns="http://www.w3.org/2000/svg" xmlns:xlink="http://www.w3.org/1999/xlink" width="80" height="80" viewBox="0 0 80 80"><defs><linearGradient id="linear-gradient" x1="23.714" y1="72.543" x2="51.294" y2="44.963" gradientUnits="userSpaceOnUse"><stop offset="0.157" stop-color="#bdbdbd"/><stop offset="1" stop-color="#757575"/></linearGradient><linearGradient id="linear-gradient-2" x1="27.51" y1="71.73" x2="27.51" y2="54.42" gradientUnits="userSpaceOnUse"><stop offset="0" stop-color="#9e9e9e"/><stop offset="1" stop-color="#757575"/></linearGradient><linearGradient id="linear-gradient-3" x1="49.783" y1="66.449" x2="65.221" y2="51.01" gradientUnits="userSpaceOnUse"><stop offset="0" stop-color="#e0e0e0"/><stop offset="1" stop-color="#9e9e9e"/></linearGradient><linearGradient id="linear-gradient-4" x1="49.992" y1="45.773" x2="59.983" y2="45.773" gradientUnits="userSpaceOnUse"><stop offset="0" stop-color="#eee"/><stop offset="1" stop-color="#fff"/></linearGradient><linearGradient id="linear-gradient-5" x1="20.017" y1="52.989" x2="49.992" y2="52.989" xlink:href="#linear-gradient-4"/><linearGradient id="linear-gradient-6" x1="39.983" y1="28.453" x2="59.967" y2="28.453" xlink:href="#linear-gradient-3"/><linearGradient id="linear-gradient-7" x1="39.983" y1="8.263" x2="39.983" y2="22.684" xlink:href="#linear-gradient-4"/><linearGradient id="linear-gradient-8" x1="25.284" y1="33.16" x2="37.872" y2="20.573" gradientUnits="userSpaceOnUse"><stop offset="0" stop-color="#bdbdbd"/><stop offset="1" stop-color="#757575"/></linearGradient></defs><title>yn_icon</title><polygon points="20.017 68.846 25.012 71.73 25.012 54.426 54.987 71.737 54.987 48.657 49.992 45.773 49.992 63.075 20.017 45.773 20.017 68.846" fill="url(#linear-gradient)"/><polygon points="25.012 71.73 30.008 68.846 30.008 57.277 25.012 54.42 25.012 71.73" fill="url(#linear-gradient-2)"/><polygon points="55.004 71.67 60 68.786 60 45.789 55.004 48.673 55.004 71.67" fill="url(#linear-gradient-3)"/><polygon points="49.992 45.773 54.987 42.888 59.983 45.773 54.987 48.657 49.992 45.773" fill="url(#linear-gradient-4)"/><polygon points="49.992 63.075 49.992 57.328 25.012 42.904 20.017 45.788 49.992 63.075" fill="url(#linear-gradient-5)"/><polygon points="39.983 45.759 44.979 42.877 45.007 25.53 59.967 16.916 59.967 11.147 39.983 22.684 39.983 45.759" fill="url(#linear-gradient-6)"/><polygon points="59.967 11.147 39.983 22.684 20 11.147 24.996 8.263 39.983 16.916 54.971 8.263 59.967 11.147" fill="url(#linear-gradient-7)"/><polygon points="20 11.147 39.983 22.684 39.983 45.759 34.995 42.871 34.988 25.569 20 16.916 20 11.147" fill="url(#linear-gradient-8)"/></svg>