<svg id="Layer_1" data-name="Layer 1" xmlns="http://www.w3.org/2000/svg" width="80" height="79.981" viewBox="0 0 80 79.981"><title>brand_logo_2_80x80</title><g id="brand_logo_2"><path d="M5.13,53.743a1.343,1.343,0,0,0,.253-.687,1.777,1.777,0,0,0-.2-.783,1.35,1.35,0,0,0-.419-.535,1.438,1.438,0,0,0-.618-.265,2.214,2.214,0,0,0-.772.007,3.59,3.59,0,0,0-.879.284,3.087,3.087,0,0,0-.75.475,2.226,2.226,0,0,0-.5.6,1.694,1.694,0,0,0-.212.661,1.275,1.275,0,0,0,.117.663,1.469,1.469,0,0,0,.46.6,2.059,2.059,0,0,0,.572.282l-.148.914A2.28,2.28,0,0,1,.226,54.551a2.155,2.155,0,0,1-.2-1.032A2.513,2.513,0,0,1,.3,52.509a3.221,3.221,0,0,1,.708-.9A4.24,4.24,0,0,1,2.1,50.9a4.4,4.4,0,0,1,1.23-.371,3.125,3.125,0,0,1,1.14.029,2.4,2.4,0,0,1,.953.439,2.257,2.257,0,0,1,.671.861,2.245,2.245,0,0,1-.159,2.384Z" transform="translate(0 -0.009)" fill="#fff"/><path d="M7.848,55.43l.509.784-4.5,2.91,1.427,2.2-.778.5L2.575,58.842Z" transform="translate(0 -0.009)" fill="#fff"/><path d="M7.44,65.615a2.318,2.318,0,0,1-.508-.918,2.259,2.259,0,0,1-.045-1.019,3.006,3.006,0,0,1,.422-1.058A4.651,4.651,0,0,1,8.2,61.589a4.707,4.707,0,0,1,1.144-.759,3.016,3.016,0,0,1,1.1-.282,2.255,2.255,0,0,1,1,.179,2.51,2.51,0,0,1,1.352,1.54,2.226,2.226,0,0,1,.048,1.017,3,3,0,0,1-.421,1.058,4.682,4.682,0,0,1-.9,1.036,4.585,4.585,0,0,1-1.137.754,2.987,2.987,0,0,1-1.1.282,2.224,2.224,0,0,1-1-.178A2.321,2.321,0,0,1,7.44,65.615Zm.737-.648a1.448,1.448,0,0,0,.518.385,1.388,1.388,0,0,0,.647.108,2.073,2.073,0,0,0,.755-.208,3.633,3.633,0,0,0,.827-.564,2.781,2.781,0,0,0,1-1.446,1.516,1.516,0,0,0-1.547-1.762,2.769,2.769,0,0,0-1.561.8,3.623,3.623,0,0,0-.666.747,2.094,2.094,0,0,0-.3.721,1.386,1.386,0,0,0,.023.656A1.449,1.449,0,0,0,8.177,64.967Z" transform="translate(0 -0.009)" fill="#fff"/><path d="M12.886,70.744l-.787-.655,3.416-4.115L14.243,64.92l.6-.721,3.319,2.757-.6.719L16.3,66.629Z" transform="translate(0 -0.009)" fill="#fff"/><path d="M20.555,72.594l-2.084-1.22-1.393,2.377-.808-.473,3.176-5.419.808.473L18.94,70.574l2.083,1.22,1.314-2.24.808.473-3.178,5.419-.807-.473Z" transform="translate(0 -0.009)" fill="#fff"/><path d="M25.052,70.855l.864.361-2.42,5.8-.864-.361Z" transform="translate(0 -0.009)" fill="#fff"/><path d="M28.318,73.786l-1.2,4.517-.9-.239,1.613-6.074,1.116.3L30,77.2l1.151-4.329.9.239-1.612,6.072-1.031-.273Z" transform="translate(0 -0.009)" fill="#fff"/><path d="M35.684,79.981a2.181,2.181,0,0,1-1.008-.338,2.456,2.456,0,0,1-.734-.749,3.171,3.171,0,0,1-.423-1.063,4.345,4.345,0,0,1-.07-1.283,4.571,4.571,0,0,1,.3-1.323,3.031,3.031,0,0,1,.6-.972,2.261,2.261,0,0,1,1.883-.708,2.545,2.545,0,0,1,1.24.393,2.445,2.445,0,0,1,.781.94l-.837.439a1.287,1.287,0,0,0-.466-.559,1.62,1.62,0,0,0-.725-.212,1.432,1.432,0,0,0-1.224.443,2.684,2.684,0,0,0-.58,1.642,3.554,3.554,0,0,0,.032.907,2.391,2.391,0,0,0,.25.737,1.535,1.535,0,0,0,.443.513,1.213,1.213,0,0,0,.618.224,1.272,1.272,0,0,0,1.007-.268,1.412,1.412,0,0,0,.407-.954l-1.2-.1.08-.933,2.328.2-.037.42a3.565,3.565,0,0,1-.254,1.07,2.747,2.747,0,0,1-.543.854,2.245,2.245,0,0,1-.812.545A2.312,2.312,0,0,1,35.684,79.981Z" transform="translate(0 -0.009)" fill="#fff"/><path d="M48.256,74.529a1.379,1.379,0,0,0-.6-.427,1.776,1.776,0,0,0-.807-.019,1.364,1.364,0,0,0-.625.261,1.4,1.4,0,0,0-.42.525,2.229,2.229,0,0,0-.2.747,3.594,3.594,0,0,0,.041.925,3.118,3.118,0,0,0,.256.849,2.23,2.23,0,0,0,.446.641,1.729,1.729,0,0,0,.581.381,1.282,1.282,0,0,0,.67.063,1.443,1.443,0,0,0,.7-.284,2,2,0,0,0,.424-.477l.844.386a2.28,2.28,0,0,1-1.844,1.372A2.164,2.164,0,0,1,46.68,79.4a2.484,2.484,0,0,1-.9-.537,3.178,3.178,0,0,1-.682-.923,4.2,4.2,0,0,1-.393-1.244,4.473,4.473,0,0,1-.032-1.285,3.168,3.168,0,0,1,.333-1.09,2.414,2.414,0,0,1,.675-.8,2.219,2.219,0,0,1,1.008-.417,2.243,2.243,0,0,1,2.256.786Z" transform="translate(0 -0.009)" fill="#fff"/><path d="M54.847,77.66a2.35,2.35,0,0,1-1.041.126,2.265,2.265,0,0,1-.962-.342,3.043,3.043,0,0,1-.82-.788,5.087,5.087,0,0,1-.892-2.563,3,3,0,0,1,.152-1.128,2.254,2.254,0,0,1,.545-.861,2.509,2.509,0,0,1,1.931-.673,2.222,2.222,0,0,1,.962.338,2.992,2.992,0,0,1,.82.788,5.078,5.078,0,0,1,.892,2.562,3,3,0,0,1-.152,1.128,2.263,2.263,0,0,1-.543.865A2.325,2.325,0,0,1,54.847,77.66Zm-.323-.926a1.464,1.464,0,0,0,.55-.335,1.383,1.383,0,0,0,.342-.559,2.03,2.03,0,0,0,.091-.778,3.562,3.562,0,0,0-.21-.978,2.778,2.778,0,0,0-.964-1.468,1.516,1.516,0,0,0-2.215.771,2.776,2.776,0,0,0,.156,1.75,3.569,3.569,0,0,0,.443.9,2.014,2.014,0,0,0,.552.552,1.381,1.381,0,0,0,.617.227A1.455,1.455,0,0,0,54.525,76.734Z" transform="translate(0 -0.009)" fill="#fff"/><path d="M61.164,69.52l.9,4.713-.044.026L58.267,71.2l2.287,3.914-.807.472-3.172-5.423,1.118-.653L60.8,72.131l-.779-3.984,1.051-.614,3.172,5.421-.8.468Z" transform="translate(0 -0.009)" fill="#fff"/><path d="M65.634,68.749l1.617,1.875-.709.61-4.1-4.759,1.678-1.444A2.547,2.547,0,0,1,64.8,64.6a1.7,1.7,0,0,1,.706-.138,1.566,1.566,0,0,1,.7.183,2.238,2.238,0,0,1,.656.545,1.8,1.8,0,0,1,.511,1.417,2.035,2.035,0,0,1-.764,1.306Zm-1.871-2.176,1.268,1.471,1.027-.884a.843.843,0,0,0,.113-1.345.867.867,0,0,0-1.381-.128Z" transform="translate(0 -0.009)" fill="#fff"/><path d="M72.313,63.826l-1.5,1.753.7,1.039-.661.771-3.56-5.5.849-.991,5.969,2.692-.649.757Zm-2.037.952,1.162-1.357-3.011-1.395Z" transform="translate(0 -0.009)" fill="#fff"/><path d="M72,58.391l3.985,2.439-.484.79-5.359-3.278.6-.986,5.007.4-3.821-2.333.489-.8L77.782,57.9l-.557.909Z" transform="translate(0 -0.009)" fill="#fff"/><path d="M80,53.109l-.408.976-2.2-.921-4.312.19.41-.976,3.23-.075-2.208-2.36.4-.96,2.871,3.2Z" transform="translate(0 -0.009)" fill="#fff"/><path d="M65.906,38.042a.883.883,0,1,0,.969.876A.88.88,0,0,0,65.906,38.042Z" transform="translate(0 -0.009)" fill="#fff" fill-rule="evenodd"/><path d="M16.9,38.079h-.938v3.109H16.9a1.555,1.555,0,0,0,0-3.109Z" transform="translate(0 -0.009)" fill="#fff" fill-rule="evenodd"/><path d="M69.461,39.856c-.632,0-.951.356-.951.7s.319.719.951.719.957-.381.957-.719S70.106,39.856,69.461,39.856Z" transform="translate(0 -0.009)" fill="#fff" fill-rule="evenodd"/><path d="M69.461,39.274a.7.7,0,0,0,.775-.657.782.782,0,0,0-1.545.006A.7.7,0,0,0,69.461,39.274Z" transform="translate(0 -0.009)" fill="#fff" fill-rule="evenodd"/><path d="M30.4,65.539a1.8,1.8,0,0,1-.692-.125,1.4,1.4,0,0,1-.514-.355,1.571,1.571,0,0,1-.322-.556,2.226,2.226,0,0,1-.112-.728V60.746h.7v3.028a1.112,1.112,0,0,0,.253.831.971.971,0,0,0,.689.236.868.868,0,0,0,.648-.236,1.172,1.172,0,0,0,.234-.831V60.746h.7v3.028a2.424,2.424,0,0,1-.1.722,1.578,1.578,0,0,1-.3.559,1.309,1.309,0,0,1-.5.358A1.723,1.723,0,0,1,30.4,65.539Z" transform="translate(0 -0.009)" fill="#fff"/><path d="M35.088,65.473a.311.311,0,0,1-.27-.141.57.57,0,0,1-.1-.333.583.583,0,0,1,.1-.342.316.316,0,0,1,.27-.138.341.341,0,0,1,.267.138A.519.519,0,0,1,35.47,65a.508.508,0,0,1-.115.333A.335.335,0,0,1,35.088,65.473Z" transform="translate(0 -0.009)" fill="#fff"/><path d="M38.577,64.453a2.273,2.273,0,0,0,.514.264,1.872,1.872,0,0,0,.658.106.992.992,0,0,0,.589-.162.515.515,0,0,0,.228-.444.577.577,0,0,0-.231-.452,4.381,4.381,0,0,0-.605-.411q-.257-.149-.56-.333a2.363,2.363,0,0,1-.533-.431,1.105,1.105,0,0,1-.224-.339,1.247,1.247,0,0,1-.066-.444.976.976,0,0,1,.119-.487,1.07,1.07,0,0,1,.313-.352,1.4,1.4,0,0,1,.451-.215,1.957,1.957,0,0,1,.534-.072,3.3,3.3,0,0,1,.405.024,2.589,2.589,0,0,1,.362.066,1.531,1.531,0,0,1,.3.1.758.758,0,0,1,.206.141l-.2.725A1.319,1.319,0,0,0,40.4,61.5a1.862,1.862,0,0,0-.589-.085,1.073,1.073,0,0,0-.556.129.414.414,0,0,0-.214.379.344.344,0,0,0,.079.207,1.075,1.075,0,0,0,.2.193,2.344,2.344,0,0,0,.264.175c.094.055.185.1.273.148.2.114.388.223.56.329a2.752,2.752,0,0,1,.444.333,1.4,1.4,0,0,1,.3.381,1,1,0,0,1,.109.477,1.342,1.342,0,0,1-.119.571,1.266,1.266,0,0,1-.325.431,1.463,1.463,0,0,1-.492.273,1.913,1.913,0,0,1-.605.095,2.756,2.756,0,0,1-.826-.111,2.318,2.318,0,0,1-.6-.284Z" transform="translate(0 -0.009)" fill="#fff"/><path d="M44.43,65.473a.311.311,0,0,1-.27-.141.564.564,0,0,1-.1-.333.578.578,0,0,1,.1-.342.316.316,0,0,1,.27-.138.342.342,0,0,1,.267.138.519.519,0,0,1,.116.342.508.508,0,0,1-.116.333A.337.337,0,0,1,44.43,65.473Z" transform="translate(0 -0.009)" fill="#fff"/><path d="M50.244,64.565H48.5l-.249.908h-.763l1.4-4.727h.98l1.389,4.727h-.749Zm-1.541-.7h1.344l-.678-2.4Z" transform="translate(0 -0.009)" fill="#fff"/><path d="M5.144,22.8,3.9,24.7l.812.922-.546.83L.018,21.556l.7-1.067,6.14,1.859-.537.818Zm-1.858,1.18.959-1.462-3.1-.976Z" transform="translate(0 -0.009)" fill="#fff"/><path d="M9.317,19.565a2.325,2.325,0,0,1-.719.565,1.85,1.85,0,0,1-.79.193,2.026,2.026,0,0,1-.82-.167,2.909,2.909,0,0,1-.806-.521L3.234,17.017l.6-.679,2.947,2.618a1.436,1.436,0,0,0,1.027.47,1.254,1.254,0,0,0,.825-.465,1.139,1.139,0,0,0,.331-.836,1.53,1.53,0,0,0-.606-.944l-2.95-2.619.605-.68L8.966,16.5a3.164,3.164,0,0,1,.614.723A2.025,2.025,0,0,1,9.863,18a1.757,1.757,0,0,1-.08.794A2.27,2.27,0,0,1,9.317,19.565Z" transform="translate(0 -0.009)" fill="#fff"/><path d="M14.049,14.945l-.774.637L9.947,11.538,8.7,12.567l-.583-.708,3.261-2.686.583.708L10.722,10.9Z" transform="translate(0 -0.009)" fill="#fff"/><path d="M18.4,8.805,16.355,9.994l1.355,2.335-.792.46L13.824,7.468l.794-.46,1.28,2.2,2.044-1.19-1.278-2.2.79-.461,3.1,5.32-.794.462Z" transform="translate(0 -0.009)" fill="#fff"/><path d="M20.442,3.964,23.5,2.774l.333.855-2.2.856L22.22,6,23.6,5.466l.33.848-1.384.537.65,1.669L25.4,7.662l.329.847L22.673,9.7Z" transform="translate(0 -0.009)" fill="#fff"/><path d="M27.755,3.154l1.019,4.462-.886.2-1.372-6,1.1-.251,3.152,3.781-.98-4.278.895-.2,1.374,6L31.038,7.1Z" transform="translate(0 -0.009)" fill="#fff"/><path d="M36.665,6.324l-1,.09L35.2,1.2l-1.615.145L33.5.43,37.708.05l.084.914-1.6.144Z" transform="translate(0 -0.009)" fill="#fff"/><path d="M40.722.009l.914.071L41.16,6.217l-.915-.07Z" transform="translate(0 -0.009)" fill="#fff"/><path d="M47.882,2.407a1.33,1.33,0,0,0-.425-.578,1.737,1.737,0,0,0-.745-.265,1.348,1.348,0,0,0-.663.053,1.39,1.39,0,0,0-.551.36,2.085,2.085,0,0,0-.412.634,3.538,3.538,0,0,0-.246.872,3.049,3.049,0,0,0-.02.869,2.181,2.181,0,0,0,.219.732,1.676,1.676,0,0,0,.424.532,1.258,1.258,0,0,0,.608.265,1.422,1.422,0,0,0,.738-.049,1.946,1.946,0,0,0,.541-.315l.668.617a2.237,2.237,0,0,1-2.136.715,2.111,2.111,0,0,1-.953-.393,2.442,2.442,0,0,1-.671-.774A3.112,3.112,0,0,1,43.9,4.616a4.107,4.107,0,0,1,.015-1.278,4.355,4.355,0,0,1,.362-1.205,3.156,3.156,0,0,1,.641-.914A2.361,2.361,0,0,1,45.8.678,2.168,2.168,0,0,1,46.863.6a2.193,2.193,0,0,1,1.86,1.421Z" transform="translate(0 -0.009)" fill="#fff"/><path d="M57.9,3.706a1.761,1.761,0,0,1,.527.326,1.506,1.506,0,0,1,.36.486,1.555,1.555,0,0,1,.139.613,1.792,1.792,0,0,1-.137.7,1.475,1.475,0,0,1-.392.578,1.543,1.543,0,0,1-.561.307,1.212,1.212,0,0,1,.475.67,1.414,1.414,0,0,1,.052.486,1.865,1.865,0,0,1-.137.576,1.8,1.8,0,0,1-.993,1.087,2.093,2.093,0,0,1-1.579-.1l-1.88-.749L56.053,2.97ZM54.965,8.183l1.187.473a.82.82,0,0,0,.653,0,.915.915,0,0,0,.474-.54.894.894,0,0,0,.035-.678A.788.788,0,0,0,56.838,7l-1.209-.483Zm2.011-2.105a.56.56,0,0,0,.29.038.761.761,0,0,0,.273-.094.948.948,0,0,0,.229-.2.926.926,0,0,0,.161-.264.831.831,0,0,0,.023-.6.631.631,0,0,0-.373-.393l-1.011-.4-.6,1.514Z" transform="translate(0 -0.009)" fill="#fff"/><path d="M62.321,10.027l-.944-.558-1.232,2.09-.79-.466,3.128-5.3,1.868,1.1a1.937,1.937,0,0,1,.993,1.159,1.885,1.885,0,0,1-.281,1.431,1.82,1.82,0,0,1-.829.786,1.634,1.634,0,0,1-1.038.084l-.3,2.83-.862-.51Zm.484-2.979-.968,1.639,1.145.676a.825.825,0,0,0,1.282-.318.847.847,0,0,0-.315-1.32Z" transform="translate(0 -0.009)" fill="#fff"/><path d="M67.736,15.495,66,14.04l-1.01.7-.762-.64,5.348-3.546.978.82-2.57,5.878-.75-.629Zm-.953-1.986,1.339,1.124,1.336-2.965Z" transform="translate(0 -0.009)" fill="#fff"/><path d="M73.365,16.314l-3.488,2.963-.591-.693L73.979,14.6l.733.863L72.809,20l3.345-2.841.594.7-4.691,3.985-.678-.8Z" transform="translate(0 -0.009)" fill="#fff"/><path d="M73.4,23.718l5.282-3.161.884,1.479a2.967,2.967,0,0,1,.41,1.124,2.66,2.66,0,0,1-.079,1.105,2.893,2.893,0,0,1-.529,1,3.508,3.508,0,0,1-.941.808,3.624,3.624,0,0,1-1.227.476,2.844,2.844,0,0,1-1.154-.024,2.684,2.684,0,0,1-1-.483,3.13,3.13,0,0,1-.782-.892Zm4.966-1.9-3.7,2.214.318.53a2.352,2.352,0,0,0,.594.683,1.874,1.874,0,0,0,.728.342,2.059,2.059,0,0,0,.807.011,2.4,2.4,0,0,0,.825-.32,2.616,2.616,0,0,0,.688-.57,1.8,1.8,0,0,0,.368-.7,1.835,1.835,0,0,0,.028-.8,2.539,2.539,0,0,0-.342-.869Z" transform="translate(0 -0.009)" fill="#fff"/><path d="M79.94,37.755a1.325,1.325,0,0,0-.927-1.195L40.395,24.27a1.326,1.326,0,0,0-.8,0L.968,36.561a1.325,1.325,0,0,0-.927,1.195Q0,38.646,0,39.545t.041,1.784a1.325,1.325,0,0,0,.927,1.195L39.591,54.815a1.326,1.326,0,0,0,.8,0l38.619-12.29a1.325,1.325,0,0,0,.927-1.195q.04-.888.041-1.785T79.94,37.755ZM8.01,41.82H5.34V37.448H8v.632H5.977v1.233H7.96v.638H5.977v1.239H8.01Zm1.973.038a1.5,1.5,0,0,1-1.576-1.183L8.4,40.557l.638-.013.006.094v-.025c.044.406.538.619.945.619.469,0,.982-.262.982-.713a.72.72,0,0,0-.019-.15c-.075-.331-.525-.388-.963-.431-.682-.069-1.481-.219-1.551-1.13v0a1.184,1.184,0,0,1,.237-.828A1.689,1.689,0,0,1,10,37.4a1.391,1.391,0,0,1,1.489,1.151l-.626.025a.839.839,0,0,0-.894-.557,1.042,1.042,0,0,0-.794.331.575.575,0,0,0-.106.407c.031.45.525.506.994.55.6.074,1.345.231,1.514.932a1.538,1.538,0,0,1,.031.287A1.494,1.494,0,0,1,9.983,41.858Zm4.87-3.779h-1.32v3.759H12.9V38.079H11.575v-.638h3.277ZM16.9,41.82h-1.57V37.448H16.9a2.186,2.186,0,0,1,0,4.372Zm11.487,1.2v-.275c2.612.178,3.534-.867,3.534-2.008a2.082,2.082,0,0,0-1.347-1.746,5.208,5.208,0,0,1-.99.1v-.275c1.609,0,3.492-1,3.492-2.736,0-1.347-1.32-2.117-3.685-2.144-.151,1.017-.6,4.358-1.155,7.039a3.84,3.84,0,0,1-3.726,3.177v-.261c1.4-.124,1.375-.358,1.718-2.283l1.32-7.6c-3.753.316-5.884,1.664-5.884,3.781a1.679,1.679,0,0,0,.495,1.21,3.337,3.337,0,0,0,2.227.688v.289a3.386,3.386,0,0,1-2.406-.77,1.854,1.854,0,0,1-.577-1.416c0-2.626,2.859-4.111,7.864-4.111,2.984,0,4.111,1,4.111,2.406a3.017,3.017,0,0,1-2.434,2.778c1.677.192,2.53.784,2.53,1.773C33.475,42.814,29.969,43.02,28.387,43.02Zm9.787-2.475h-.33c0-.99,1.183-1.76,1.183-2.695,0-.729-.33-.838-.7-.838-1.142,0-1.788,2.144-1.829,2.282v.013L36,42.044h-1.65l.907-5.073a1,1,0,0,0-.687.385l-.206-.165A1.309,1.309,0,0,1,35.4,36.7c.852,0,1.32.44,1.32,1.21v.082c.427-.893.921-1.292,1.609-1.292.715,0,1.058.33,1.058,1.1C39.384,38.882,38.175,39.679,38.175,40.545Zm6.9.963.206.165a1.31,1.31,0,0,1-1.031.494,1.153,1.153,0,0,1-1.319-1.058,1.827,1.827,0,0,1-1.54,1.058A1.9,1.9,0,0,1,39.4,40.05c0-2.145,1.169-3.355,2.763-3.355a1.306,1.306,0,0,1,1.334.949c.041-.261.082-.495.151-.825a9.7,9.7,0,0,0,1.69-.124l-.948,5.2A1,1,0,0,0,45.075,41.508Zm5.759.659c-.825,0-1.251-.4-1.251-1.126,0-.935.5-2.531.5-3.342,0-.44-.193-.591-.564-.591-.605,0-1.2.852-1.567,2.214l-.467,2.571a1.028,1.028,0,0,0,.7-.384l.206.165a1.31,1.31,0,0,1-1.031.494c-.852,0-1.319-.481-1.319-1.141a10.524,10.524,0,0,1,.22-1.512l.454-2.543a1,1,0,0,0-.688.385l-.206-.165a1.312,1.312,0,0,1,1.031-.495c.853,0,1.321.44,1.321,1.21v.082a1.832,1.832,0,0,1,1.76-1.292,1.586,1.586,0,0,1,1.718,1.732c0,.867-.494,2.282-.55,3.465a1.122,1.122,0,0,0,.688-.384l.206.165A1.242,1.242,0,0,1,50.834,42.167ZM58.575,34.7s-.674,3.781-1.307,7.191a1,1,0,0,0,.688-.384l.206.165a1.31,1.31,0,0,1-1.031.494c-.784,0-1.251-.371-1.321-1.031a1.808,1.808,0,0,1-1.539,1.031,1.787,1.787,0,0,1-1.926-1.98c0-2.213,1.169-3.492,2.764-3.492a1.38,1.38,0,0,1,1.086.427,1.469,1.469,0,0,1,.206.33l.742-4.043a1,1,0,0,0-.687.385l-.206-.165a1.31,1.31,0,0,1,1.031-.495c.852,0,1.319.44,1.319,1.209A3.448,3.448,0,0,1,58.575,34.7ZM63.8,41.82h-.625V38.63l-.588.8-.476-.344,1.183-1.664H63.8Zm3.451-2.02-1.439,2.02H65.03l1.076-1.526a1.376,1.376,0,0,1-1.069-.069,1.524,1.524,0,0,1,.869-2.827,1.506,1.506,0,0,1,1.613,1.52A1.661,1.661,0,0,1,67.251,39.8Zm2.21,2.065c-1.045,0-1.577-.62-1.577-1.314a1.159,1.159,0,0,1,.757-1.02.943.943,0,0,1-.575-.9A1.28,1.28,0,0,1,69.461,37.4a1.267,1.267,0,0,1,1.4,1.232,1.024,1.024,0,0,1-.55.894,1.094,1.094,0,0,1,.737,1.02A1.4,1.4,0,0,1,69.461,41.864Zm3.468-.045a1.486,1.486,0,0,1-1.5-.995l.581-.237a.985.985,0,0,0,.914.594.877.877,0,0,0,.963-.888.842.842,0,0,0-.506-.769,1.638,1.638,0,0,0-1.539.144l-.356-.162V37.423h2.79v.613H72.129v.876a2.156,2.156,0,0,1,1.482.025,1.451,1.451,0,0,1,.92,1.357A1.5,1.5,0,0,1,72.93,41.82Z" transform="translate(0 -0.009)" fill="#fff" fill-rule="evenodd"/><path d="M42.45,37.039c-.976,0-1.5,2.186-1.5,3.712,0,.88.247,1.1.619,1.1.783,0,1.319-1.237,1.429-1.54.055-.261.151-.838.358-1.98C43.3,37.672,42.972,37.039,42.45,37.039Z" transform="translate(0 -0.009)" fill="#fff" fill-rule="evenodd"/><path d="M55.11,36.956c-.605,0-1.211,2.269-1.211,3.795,0,.88.179,1.1.55,1.1.8,0,1.334-1.264,1.444-1.553l.4-2.172A1.13,1.13,0,0,0,55.11,36.956Z" transform="translate(0 -0.009)" fill="#fff" fill-rule="evenodd"/></g></svg>