<svg id="Layer_1" data-name="Layer 1" xmlns="http://www.w3.org/2000/svg" width="90" height="25" viewBox="0 0 90 25"><title>logo_90x25</title><g id="store_logo" data-name="store logo"><path d="M29.231,24.134a5.208,5.208,0,0,1-1,3.308,3.618,3.618,0,0,1-1.92,1.314,5.245,5.245,0,0,1-1.551.207,4.389,4.389,0,0,1-2.718-.812,4.538,4.538,0,0,1-1.425-1.809A7.3,7.3,0,0,1,20,23.72l2.658-.192a4.038,4.038,0,0,0,.857,2.345,1.428,1.428,0,0,0,1.152.52,1.732,1.732,0,0,0,1.462-.9,2.241,2.241,0,0,0,.28-1.227,3.405,3.405,0,0,0-1.048-2.291L22.88,19.623a10.581,10.581,0,0,1-1.964-2.409,5.571,5.571,0,0,1-.62-2.6,4.525,4.525,0,0,1,1.7-3.828,4.22,4.22,0,0,1,2.6-.783,4.723,4.723,0,0,1,2.555.665,3.84,3.84,0,0,1,1.337,1.447,5.357,5.357,0,0,1,.613,2.141l-2.673.487a3.219,3.219,0,0,0-.65-1.772,1.364,1.364,0,0,0-1.107-.458,1.276,1.276,0,0,0-1.167.679,2.624,2.624,0,0,0-.325,1.359,4.078,4.078,0,0,0,1.093,2.585,9.217,9.217,0,0,0,1.241,1.181q.975.813,1.285,1.137a9.511,9.511,0,0,1,1.6,2.038,7.786,7.786,0,0,1,.428.872A5.077,5.077,0,0,1,29.231,24.134Z" transform="translate(-20 -10)" fill="#4e342e"/><path d="M33.287,13.042H30.319V10.236h8.714v2.806H36.078v15.7H33.287Z" transform="translate(-20 -10)" fill="#4e342e"/><path d="M44.536,10a4.424,4.424,0,0,1,4.431,4.431v10.1a4.423,4.423,0,1,1-8.846,0v-10.1A4.424,4.424,0,0,1,44.536,10Zm1.521,4.372a1.588,1.588,0,0,0-1.595-1.6,1.562,1.562,0,0,0-1.137.465,1.526,1.526,0,0,0-.473,1.13V24.5a1.525,1.525,0,0,0,.473,1.13,1.562,1.562,0,0,0,1.137.466,1.589,1.589,0,0,0,1.595-1.6Z" transform="translate(-20 -10)" fill="#4e342e"/><path d="M55,10.236a4.256,4.256,0,0,1,3.426,1.285,4.668,4.668,0,0,1,.96,3.131V17.34A4.325,4.325,0,0,1,57.9,20.663l2.067,8.079H56.945l-1.692-6.971H53.392v6.971H50.6V10.236Zm1.669,4.46a1.416,1.416,0,0,0-1.6-1.61H53.392v5.922h1.683a1.526,1.526,0,0,0,1.13-.473,1.562,1.562,0,0,0,.465-1.137Z" transform="translate(-20 -10)" fill="#4e342e"/><path d="M61.525,28.742V10.221H69.47v2.806H64.316v5.051h3.766v2.806H64.316v5.051H69.47v2.806Z" transform="translate(-20 -10)" fill="#4e342e"/><path d="M79.252,28.742H71.646V10.236h2.791V25.965h4.815Z" transform="translate(-20 -10)" fill="#4e342e"/><path d="M84.756,10a4.424,4.424,0,0,1,4.431,4.431v10.1a4.423,4.423,0,1,1-8.846,0v-10.1A4.424,4.424,0,0,1,84.756,10Zm1.521,4.372a1.588,1.588,0,0,0-1.595-1.6,1.562,1.562,0,0,0-1.137.465,1.526,1.526,0,0,0-.473,1.13V24.5a1.525,1.525,0,0,0,.473,1.13,1.562,1.562,0,0,0,1.137.466,1.589,1.589,0,0,0,1.595-1.6Z" transform="translate(-20 -10)" fill="#4e342e"/><path d="M95.192,28.978a4.424,4.424,0,0,1-4.431-4.416V14.46a4.423,4.423,0,1,1,8.846,0v2.112H96.714V14.4a1.614,1.614,0,0,0-1.61-1.61,1.526,1.526,0,0,0-1.13.473,1.562,1.562,0,0,0-.465,1.137V24.532a1.588,1.588,0,0,0,1.6,1.6,1.566,1.566,0,0,0,1.137-.464,1.521,1.521,0,0,0,.473-1.127V20.9H95.163V18.093h4.445v6.469a4.411,4.411,0,0,1-4.416,4.416Z" transform="translate(-20 -10)" fill="#4e342e"/><path d="M105.569,10A4.424,4.424,0,0,1,110,14.431v10.1a4.423,4.423,0,1,1-8.846,0v-10.1A4.424,4.424,0,0,1,105.569,10Zm1.521,4.372a1.588,1.588,0,0,0-1.595-1.6,1.562,1.562,0,0,0-1.137.465,1.526,1.526,0,0,0-.473,1.13V24.5a1.525,1.525,0,0,0,.473,1.13,1.562,1.562,0,0,0,1.137.466,1.589,1.589,0,0,0,1.595-1.6Z" transform="translate(-20 -10)" fill="#4e342e"/><path d="M22.271,32.925a.844.844,0,0,1-.609.449L21.3,33.4l-.387.016V34.9H20V31.02h.893a4.34,4.34,0,0,1,.687.041.935.935,0,0,1,.475.181.9.9,0,0,1,.346.506l.041.207.016.217A1.546,1.546,0,0,1,22.271,32.925Zm-.913-1.141a1.1,1.1,0,0,0-.4-.057h-.046v.965h.093a.59.59,0,0,0,.423-.124.576.576,0,0,0,.119-.413A.373.373,0,0,0,21.358,31.784Z" transform="translate(-20 -10)" fill="#4e342e"/><path d="M27.919,34.9a2.13,2.13,0,0,1-.041-.449l-.016-.558a1.011,1.011,0,0,0-.036-.346.343.343,0,0,0-.155-.15l-.1-.021-.093-.021-.237-.01V34.9h-.893V31.02h1.337a1.427,1.427,0,0,1,.242.02,1.271,1.271,0,0,1,.485.145.623.623,0,0,1,.3.372l.056.258.021.2.006.15a.854.854,0,0,1-.108.408,1.386,1.386,0,0,1-.382.4,1.18,1.18,0,0,1,.294.207.487.487,0,0,1,.144.325l.016.547.005.279.016.165a.839.839,0,0,0,.191.4Zm-.207-3.128a.972.972,0,0,0-.47-.078v.94h.145a.48.48,0,0,0,.377-.124.556.556,0,0,0,.108-.382A.382.382,0,0,0,27.712,31.774Z" transform="translate(-20 -10)" fill="#4e342e"/><path d="M32.782,34.9V31.02H34.9v.759H33.686v.7H34.8v.79h-1.11v.847H34.9V34.9Z" transform="translate(-20 -10)" fill="#4e342e"/><path d="M41.48,34.9l.083-2.994L40.949,34.9h-.7l-.6-2.994.072,2.994h-.857V31.02h1.27l.129.593.118.594.052.268.051.331.046.289.057.31.016.176a2.76,2.76,0,0,1,.046-.336l.056-.31.108-.64.135-.661.129-.614h1.259V34.9Z" transform="translate(-20 -10)" fill="#4e342e"/><path d="M46.4,34.9V31.02h.9V34.9Z" transform="translate(-20 -10)" fill="#4e342e"/><path d="M53.736,34.174a.96.96,0,0,1-.346.6,1.312,1.312,0,0,1-.831.217,1.231,1.231,0,0,1-.846-.258,1.159,1.159,0,0,1-.315-.655q-.051-.31-.051-3.061h.913v2.8q.042.449.279.449a.32.32,0,0,0,.315-.18q.041-.124.041-2.5V31.02h.9V33.3A4.757,4.757,0,0,1,53.736,34.174Z" transform="translate(-20 -10)" fill="#4e342e"/><path d="M60.446,34.9l.083-2.994L59.915,34.9h-.7l-.6-2.994.072,2.994h-.857V31.02H59.1l.129.593.118.594.052.268.051.331.046.289.057.31.016.176a2.76,2.76,0,0,1,.046-.336l.056-.31.108-.64.135-.661.129-.614H61.3V34.9Z" transform="translate(-20 -10)" fill="#4e342e"/><path d="M72.883,34.091a.971.971,0,0,1-.212.485,1.155,1.155,0,0,1-.547.356,1.793,1.793,0,0,1-.5.068,1.578,1.578,0,0,1-.63-.15.767.767,0,0,1-.464-.434,3.664,3.664,0,0,1-.145-.676v-.217c-.007-.041-.012-.083-.016-.124a.408.408,0,0,1-.005-.056l-.016-.31v-.454l.016-.108a.145.145,0,0,0,.005-.036l.006-.155.046-.356a1.165,1.165,0,0,1,.15-.47,1.088,1.088,0,0,1,.34-.336,1.3,1.3,0,0,1,.7-.2,1.663,1.663,0,0,1,.723.16.831.831,0,0,1,.454.475l.046.134.026.083.036.16.016.191.015.263h-.888a1.478,1.478,0,0,0-.057-.454q-.092-.268-.222-.269a1.076,1.076,0,0,0-.2.016l-.119.036c-.051.01-.091.093-.118.248a10.594,10.594,0,0,0-.046,1.353,3.687,3.687,0,0,0,.026.578q.072.382.377.382.346,0,.346-.465l.006-.408h.9A4.394,4.394,0,0,1,72.883,34.091Z" transform="translate(-20 -10)" fill="#4e342e"/><path d="M76.925,34.9V31.02h.9v3.1h1.089V34.9Z" transform="translate(-20 -10)" fill="#4e342e"/><path d="M85.252,33.157l-.011.284-.015.336-.011.175-.021.129a1.131,1.131,0,0,1-.429.707,1.49,1.49,0,0,1-.851.206,1.173,1.173,0,0,1-.868-.3,1.458,1.458,0,0,1-.341-.759,7.212,7.212,0,0,1-.046-.97,7.34,7.34,0,0,1,.046-.976,1.352,1.352,0,0,1,2.158-.769,1.5,1.5,0,0,1,.367.919l.01.341.011.284.005.2Zm-.919-.5V32.29a.843.843,0,0,0-.118-.511.377.377,0,0,0-.32-.129q-.217,0-.294.382l-.016.165-.005.274v.63l-.005.578a1.111,1.111,0,0,0,.046.372.338.338,0,0,0,.346.217q.263,0,.33-.33a2.282,2.282,0,0,0,.031-.434l.005-.465Z" transform="translate(-20 -10)" fill="#4e342e"/><path d="M90.595,31.779V34.9h-.909V31.779h-.722V31.02h2.4v.759Z" transform="translate(-20 -10)" fill="#4e342e"/><path d="M96.784,34.9V33.286h-.738V34.9h-.9V31.02h.9v1.46h.738V31.02h.888V34.9Z" transform="translate(-20 -10)" fill="#4e342e"/><path d="M101.7,34.9V31.02h2.116v.759h-1.213v.7h1.11v.79h-1.11v.847h1.213V34.9Z" transform="translate(-20 -10)" fill="#4e342e"/><path d="M109.7,34.674a1.18,1.18,0,0,1-.9.326,1.082,1.082,0,0,1-.868-.32,1.2,1.2,0,0,1-.206-.32.989.989,0,0,1-.041-.134.835.835,0,0,1-.026-.2l.005-.367V33.58h.836l.005.289a.46.46,0,0,0,.021.165c.041.168.127.253.258.253a.343.343,0,0,0,.274-.113.579.579,0,0,0,.083-.341c0-.144-.124-.3-.372-.464q-.65-.429-.681-.465a1.144,1.144,0,0,1-.372-.867,1.1,1.1,0,0,1,.3-.816,1.024,1.024,0,0,1,.754-.3,1.544,1.544,0,0,1,.734.16.837.837,0,0,1,.408.532l.036.2.021.351h-.816a1.283,1.283,0,0,0-.046-.361q-.073-.212-.227-.212a.282.282,0,0,0-.227.1.3.3,0,0,0-.093.207.424.424,0,0,0,.056.217.772.772,0,0,0,.15.191l.924.63a.774.774,0,0,1,.242.387,1.78,1.78,0,0,1,.068.465A1.242,1.242,0,0,1,109.7,34.674Z" transform="translate(-20 -10)" fill="#4e342e"/></g></svg>