<svg id="Layer_1" data-name="Layer 1" xmlns="http://www.w3.org/2000/svg" width="80" height="78.869" viewBox="0 0 80 78.869"><title>brand_logo_3_80x80</title><path d="M33.629,17.829c-3.776,0-9,2.741-9,5.948,0,2.044,2.483,3.6,3.879,3.6.336,0,.544-.155.544-.517,0-.336-1.294-1.061-1.294-2.638,0-2.509,3.544-4.836,5.121-4.836.957,0,1.112.543,1.112,1.164,0,3.182-3.8,7.656-3.8,10.76,0,1.6,1.785,3.027,3.569,3.027,1.966,0,3.932-1.526,5.095-2.638-.595,1.836-1.163,3.466-1.707,4.836a.563.563,0,0,1-.206.026c-3.984.491-8.174,1.035-8.174,3.75,0,1.681,2.069,3.621,4.759,3.621,3.467,0,5.354-2.69,6.879-6.8a10.315,10.315,0,0,0,4.366-2.592A4.119,4.119,0,0,0,48.5,36.813a4.756,4.756,0,0,0,2.948-1.035,7.161,7.161,0,0,0,1.009.078,5.579,5.579,0,0,0,3.366-1.1,2.9,2.9,0,0,0,2.631,2.057,5.205,5.205,0,0,0,3.543-1.94c.311.957,1.164,1.94,3.13,1.94,2.561,0,4.448-3.181,4.448-3.181l.015-.026a24.627,24.627,0,0,0,2.49-4.863s1.553.1,1.553.621c0,.8-1.63,2.586-1.63,4.862,0,1.422,1.319,2.586,3.285,2.586,2.559,0,4.448-3.181,4.448-3.181a1.7,1.7,0,0,0,.232-.621.542.542,0,0,0-.543-.517c-.311,0-.518.362-.518.362s-1.37,2.225-2.766,2.225a.8.8,0,0,1-.854-.905c0-2.1,1.913-4.294,1.913-5.458a1.146,1.146,0,0,0-1.059-1.241,18.12,18.12,0,0,1-2.148.336c-.62,0-1.086-.181-1.086-.544,0-.414.336-.828.336-1.5a1.846,1.846,0,0,0-1.6-1.345,1.914,1.914,0,0,0-1.5,1.914,2.422,2.422,0,0,0,.854,1.914,15.98,15.98,0,0,1-2.25,4.6c-.022.037-.055.086-.09.141-.32.477-1.483,2.084-2.673,2.084-.518,0-.828-.388-.828-.983,0-2.509,1.475-4.629,1.475-6.182a2.865,2.865,0,0,0-2.018-1.474.794.794,0,0,0-.725.492c-.62,1.448-1.6,5.3-2.172,6.414-.414.828-1.448,1.837-2.276,1.837-.388,0-.595-.362-.595-.776,0-2.509,1.681-4.94,1.681-6.492a2.861,2.861,0,0,0-2.043-1.474.784.784,0,0,0-.7.492,34.4,34.4,0,0,0-1.9,6.216,4.092,4.092,0,0,1-2.805,1.465,2,2,0,0,1-.413-.052,7.368,7.368,0,0,0,1.6-4.293,3.631,3.631,0,0,0-3.8-3.828,6.377,6.377,0,0,0-6,6.635,7.406,7.406,0,0,1-3.544,2.547c.8-2.483,1.578-5.379,2.484-8.484A31.2,31.2,0,0,1,46.9,19.3c.439-.518.621-.776.621-.931,0-.259-.234-.362-.75-.362a3.761,3.761,0,0,0-3.234,1.707,28.157,28.157,0,0,0-3.155,7.242l-.311.956c-.957,1.371-3.1,4.061-4.732,4.061-.8,0-1.216-.7-1.216-1.5,0-2.379,3.284-6.181,3.284-9.7C37.4,19.122,35.724,17.829,33.629,17.829ZM32.594,42.451a1.28,1.28,0,0,1-1.267-1.241c0-1.293,2.276-2.535,5.147-3.078C35.233,40.977,34.043,42.451,32.594,42.451Zm17.894-14.69c.595,0,1.009.465,1.009,1.629a11.882,11.882,0,0,1-.8,4.035.936.936,0,0,0-.284-.052c-.414,0-1.294.7-1.294,1.267a.776.776,0,0,0,.441.621,1.258,1.258,0,0,1-.8.31c-.775,0-1.241-.724-1.241-1.759C47.514,30.321,49.324,27.761,50.488,27.761Z" transform="translate(0 -0.565)" fill="#fff"/><path d="M8.484,52.923a13.655,13.655,0,0,0,6.337,1.991c2.69,0,5.9-1.448,5.9-4.914a4.779,4.779,0,0,0-2.948-4.268c.181-.052,3.75-1.759,3.75-4.785,0-3.337-3.621-5.018-7.552-5.018-5.509,0-10.993,3-10.993,6.853,0,2.044,2.742,3.311,4.112,3.311.362,0,.544-.129.544-.491,0-.336-1.268-.827-1.268-2.405,0-3.129,2.768-5.793,7.552-5.793,2.328,0,4.6,1.267,4.6,3.621a4.684,4.684,0,0,1-2.431,3.828,6.273,6.273,0,0,0-1.6-.284,1.2,1.2,0,0,0-1.319,1.164,1.227,1.227,0,0,0,1.371,1.111,4.3,4.3,0,0,0,1.319-.309c.724.077,1.6,1.111,1.6,2.793a3.522,3.522,0,0,1-3.621,3.57A9,9,0,0,1,9.6,51.422c.207-.336.414-.672.621-1.059a74.977,74.977,0,0,0,3.75-9.079,24.234,24.234,0,0,1,1.5-2.379c0-.207-.078-.362-.439-.362A6.253,6.253,0,0,0,11.872,39.6c-1.061.672-2.949,7.4-4.371,9.984l-.285.491a8.743,8.743,0,0,0-3.905-1.164A3.241,3.241,0,0,0,0,51.966c0,1.811,2.018,2.948,4.138,2.948A5.392,5.392,0,0,0,8.484,52.923Zm-6.363-.75a1.316,1.316,0,0,1,1.371-1.294,6.374,6.374,0,0,1,2.716.828,3.056,3.056,0,0,1-2.561,1.629C2.819,53.336,2.121,52.871,2.121,52.173Z" transform="translate(0 -0.565)" fill="#fff"/><path d="M21.643,51.577a.607.607,0,0,0,.544.544.757.757,0,0,0,.569-.389,24.563,24.563,0,0,0,2.509-4.889s1.552.1,1.552.621c0,.8-1.629,2.587-1.629,4.862,0,1.423,1.319,2.587,3.285,2.587a4.975,4.975,0,0,0,3.44-1.86,2.557,2.557,0,0,0,2.455,1.86c1.965,0,3.672-2.2,3.672-2.2a2.493,2.493,0,0,0,2.716,2.2,4.722,4.722,0,0,0,3.189-1.6c0,.056-.01.117-.01.173,0,.828,1.061,1.423,2.431,1.423.362,0,.569-.078.569-.518,0-4.966,2.431-8.044,3.984-8.044a.472.472,0,0,1,.516.414c0,1.552-1.318,3.414-1.318,5.535,0,1.448,1.318,2.612,3.284,2.612a5.207,5.207,0,0,0,3.652-2.1,3.011,3.011,0,0,0,2.76,2.1c2.148,0,4.242-2.535,4.242-2.535a3.4,3.4,0,0,0,3.284,2.535c2.561,0,4.45-3.182,4.45-3.182a1.7,1.7,0,0,0,.232-.62.541.541,0,0,0-.543-.518c-.311,0-.518.362-.518.362s-1.345,2.224-2.741,2.224c-.957,0-1.4-1.059-1.4-2.482a7.387,7.387,0,0,1,.1-1.293s5.689-7.837,5.689-10.346a2.574,2.574,0,0,0-2.25-2.405c-2.38,0-4.527,4.061-5.716,8.3a3.142,3.142,0,0,0-1.63-.414c-2.267,0-5.795,2.681-6.123,6.6-.356.522-1.484,2.036-2.642,2.036-.518,0-.827-.388-.827-.982,0-1.862,1.37-3.88,1.37-5.432a2.432,2.432,0,0,0-2.2-2.225A6.985,6.985,0,0,0,48.538,46.2c-.8-1.241-1.423-1.4-1.811-1.4a.746.746,0,0,0-.7.491,33.57,33.57,0,0,0-1.86,5.971c-.43.605-1.484,1.918-2.561,1.918a.691.691,0,0,1-.724-.723c0-1.759,1.5-4.708,1.5-5.484,0-.905-1.061-1.216-1.837-1.216a3.187,3.187,0,0,0-2.818-1.216c-2.616,0-5.443,3.344-5.884,6.778-.456.63-1.48,1.861-2.52,1.861a.8.8,0,0,1-.854-.905c0-2.095,1.914-4.293,1.914-5.457a1.146,1.146,0,0,0-1.061-1.241,18.12,18.12,0,0,1-2.146.336c-.621,0-1.086-.181-1.086-.543,0-.414.336-.828.336-1.5a1.846,1.846,0,0,0-1.6-1.345,1.913,1.913,0,0,0-1.5,1.913,2.421,2.421,0,0,0,.854,1.914,16.011,16.011,0,0,1-2.25,4.6A1.378,1.378,0,0,0,21.643,51.577ZM70.831,38.206c.232,0,.361.181.361.439,0,2.251-4.112,8.846-4.112,8.846C67.985,42.965,69.951,38.206,70.831,38.206ZM63.588,45.99a.991.991,0,0,1,.725.414,35.481,35.481,0,0,0-.441,4.6s-1.759,2.146-2.845,2.146c-.595,0-.957-.543-.957-1.475C60.071,49.561,61.933,45.99,63.588,45.99Zm-25.316.052c.516,0,.931.362.931,1.112,0,1.992-2.275,5.794-3.518,5.794-.543,0-.75-.414-.75-1.164C34.935,49.612,36.772,46.042,38.272,46.042Z" transform="translate(0 -0.565)" fill="#fff"/><path d="M7.665,64.286v4.6h.694V67.154h.4a1.043,1.043,0,0,0,.77-.323,1.074,1.074,0,0,0,.318-.779v-.669a1.106,1.106,0,0,0-.279-.778,1.056,1.056,0,0,0-.808-.319Zm1.4.818a.4.4,0,0,1,.108.29v.673a.389.389,0,0,1-.116.283.379.379,0,0,1-.281.117H8.359V64.994h.419A.388.388,0,0,1,9.066,65.1Z" transform="translate(0 -0.565)" fill="#fff"/><path d="M20.344,65.383a1.16,1.16,0,0,0-.239-.778,1.057,1.057,0,0,0-.852-.319H18.159v4.6h.694V67.154h.463l.421,1.734h.751l-.515-2.01a1.073,1.073,0,0,0,.371-.826Zm-.676.684a.389.389,0,0,1-.116.283.379.379,0,0,1-.281.117h-.419V64.994h.419a.352.352,0,0,1,.4.4Z" transform="translate(0 -0.565)" fill="#fff"/><polygon points="30.816 64.413 30.816 63.716 28.84 63.716 28.84 68.323 30.816 68.323 30.816 67.624 29.534 67.624 29.534 66.368 30.471 66.368 30.471 65.67 29.534 65.67 29.534 64.413 30.816 64.413" fill="#fff"/><polygon points="42.272 68.323 42.272 63.716 41.315 63.716 40.694 67.025 40.048 63.716 39.051 63.716 39.051 68.323 39.746 68.323 39.746 65.435 40.418 68.323 40.977 68.323 41.579 65.427 41.579 68.323 42.272 68.323" fill="#fff"/><rect x="50.651" y="63.72" width="0.694" height="4.602" fill="#fff"/><path d="M59.721,64.286v3.559a1.091,1.091,0,0,0,1.1,1.093,1.075,1.075,0,0,0,.779-.316,1.046,1.046,0,0,0,.323-.778V64.286H61.2v3.552a.4.4,0,0,1-.4.4.39.39,0,0,1-.283-.116.379.379,0,0,1-.117-.28V64.286Z" transform="translate(0 -0.565)" fill="#fff"/><polygon points="73.515 68.323 73.515 63.716 72.558 63.716 71.937 67.025 71.29 63.716 70.294 63.716 70.294 68.323 70.989 68.323 70.989 65.435 71.66 68.323 72.22 68.323 72.822 65.427 72.822 68.323 73.515 68.323" fill="#fff"/><polygon points="78.707 77.576 2.424 77.576 2.424 56.493 1.131 56.493 1.131 78.869 80 78.869 80 37.746 78.707 37.746 78.707 77.576" fill="#fff"/><polygon points="1.131 0 1.131 33.22 2.424 33.22 2.424 1.293 78.707 1.293 78.707 14.473 80 14.473 80 0 1.131 0" fill="#fff"/></svg>