<svg id="Layer_1" data-name="Layer 1" xmlns="http://www.w3.org/2000/svg" width="80" height="70.215" viewBox="0 0 80 70.215"><title>brand_logo_1_80x80</title><g id="brand_logo_1"><polygon points="6.056 60.014 3.562 64.243 1.075 60.014 0 60.014 3.098 65.277 3.098 70.103 4.026 70.103 4.026 65.277 7.124 60.014 6.056 60.014" fill="#fff"/><path d="M12.125,64.816a5.145,5.145,0,0,0-5.143,5.143,4.933,4.933,0,0,0,1.51,3.631,4.938,4.938,0,0,0,3.632,1.51,5.142,5.142,0,1,0,0-10.284Zm2.979,8.12a4.057,4.057,0,0,1-2.979,1.236,4.215,4.215,0,0,1,0-8.429A4.212,4.212,0,0,1,15.1,72.936Z" transform="translate(0 -4.892)" fill="#fff"/><path d="M24.672,71.631a2.55,2.55,0,1,1-5.1,0v-6.7h-.927v6.7a3.477,3.477,0,0,0,5.936,2.458A3.349,3.349,0,0,0,25.6,71.631v-6.7h-.927Z" transform="translate(0 -4.892)" fill="#fff"/><path d="M33.108,69.375a2.7,2.7,0,0,0,.583-1.7,2.77,2.77,0,0,0-2.761-2.768H27.306V74.987h.927V70.436H30.65L33.017,75h1.04l-2.41-4.651A2.678,2.678,0,0,0,33.108,69.375Zm-4.876.134V65.834h2.7a1.837,1.837,0,1,1,0,3.675Z" transform="translate(0 -4.892)" fill="#fff"/><path d="M43.905,69.734a2.742,2.742,0,0,0-1.775-4.827H39.093V75h3.631a2.769,2.769,0,0,0,2.762-2.774,2.725,2.725,0,0,0-1.581-2.487Zm-3.884-3.9H42.13a1.816,1.816,0,0,1,0,3.633H40.021Zm4,7.692a1.77,1.77,0,0,1-1.3.542h-2.7V70.394h2.7a1.837,1.837,0,0,1,1.3,3.132Z" transform="translate(0 -4.892)" fill="#fff"/><path d="M52.721,69.375a2.7,2.7,0,0,0,.584-1.7,2.772,2.772,0,0,0-2.76-2.768H46.92V74.987h.927V70.436h2.417L52.631,75h1.04l-2.41-4.651A2.671,2.671,0,0,0,52.721,69.375Zm-4.874.134V65.834h2.7a1.837,1.837,0,1,1,0,3.675Z" transform="translate(0 -4.892)" fill="#fff"/><path d="M54.287,75h1.1l1.6-2.521h4V75H61.9V64.907H60.666Zm6.695-3.449H57.561l3.421-5.4Z" transform="translate(0 -4.892)" fill="#fff"/><polygon points="69.749 68.424 64.727 60.014 63.722 60.014 63.722 70.103 64.649 70.103 64.649 61.694 69.679 70.103 70.677 70.103 70.677 60.014 69.749 60.014 69.749 68.424" fill="#fff"/><path d="M78.525,66.39a4.865,4.865,0,0,0-3.569-1.483H72.475V75h2.481a5.042,5.042,0,0,0,3.569-8.605Zm-.654,6.477a3.974,3.974,0,0,1-2.915,1.208H73.4V65.828h1.56a4.123,4.123,0,0,1,2.915,7.039Z" transform="translate(0 -4.892)" fill="#fff"/><path d="M2.2,35.724a.488.488,0,0,0,.167.089l5.925,1.843a.474.474,0,1,0,.282-.9l-2.181-.678.4-1.272,2.88-.757a.479.479,0,0,0,.364-.507.459.459,0,0,0-.051-.175.454.454,0,0,0-.113-.141.474.474,0,0,0-.169-.09.5.5,0,0,0-.27,0l-2.605.683a2.4,2.4,0,0,0-.207-.591,2.2,2.2,0,0,0-.332-.483,2.083,2.083,0,0,0-.439-.366,2.227,2.227,0,0,0-.527-.241,2.115,2.115,0,0,0-.865-.087,2.275,2.275,0,0,0-.808.243,2.227,2.227,0,0,0-.66.526,2.1,2.1,0,0,0-.42.761L2.054,35.22a.469.469,0,0,0-.022.19.457.457,0,0,0,.052.173A.451.451,0,0,0,2.2,35.724Zm1.272-1.87a1.207,1.207,0,0,1,.238-.432,1.256,1.256,0,0,1,.833-.438,1.217,1.217,0,0,1,.495.051,1.193,1.193,0,0,1,.43.236,1.336,1.336,0,0,1,.3.372,1.231,1.231,0,0,1,.09.953l-.372,1.195L3.1,35.048Z" transform="translate(0 -4.892)" fill="#fff"/><path d="M7.11,31.027a3.451,3.451,0,0,0,2.722.3,3.579,3.579,0,0,0,.711-6.573,3.527,3.527,0,0,0-1.33-.429,3.579,3.579,0,0,0-1.39.139,3.575,3.575,0,0,0-.713,6.566Zm-.589-4.4a2.634,2.634,0,0,1,3.568-1.044,2.63,2.63,0,0,1-.523,4.83,2.535,2.535,0,0,1-2-.218A2.488,2.488,0,0,1,6.306,28.63a2.653,2.653,0,0,1-.1-1.022A2.6,2.6,0,0,1,6.52,26.627Z" transform="translate(0 -4.892)" fill="#fff"/><path d="M9.25,21.859l3.557.409,2.257,1.914a.452.452,0,0,0,.347.109.473.473,0,0,0,.266-.832l-2.257-1.914L12.439,18.1a.474.474,0,0,0-.158-.228.463.463,0,0,0-.344-.112.477.477,0,0,0-.423.588l.833,2.91L9.34,20.91a.438.438,0,0,0-.4.166A.473.473,0,0,0,9,21.744.478.478,0,0,0,9.25,21.859Z" transform="translate(0 -4.892)" fill="#fff"/><path d="M20.5,19.095a.5.5,0,0,0,.181.044.443.443,0,0,0,.34-.113.474.474,0,0,0,.046-.669.521.521,0,0,0-.153-.121l-5.857-3.073a.464.464,0,0,0-.552.054.474.474,0,0,0-.129.54l2.236,6.2a.505.505,0,0,0,.1.194.459.459,0,0,0,.323.163.447.447,0,0,0,.342-.114.456.456,0,0,0,.162-.325.509.509,0,0,0-.019-.185l-.768-2.147,1.726-1.5Zm-4.091-.509-.733-2.025,1.905,1Z" transform="translate(0 -4.892)" fill="#fff"/><path d="M25.422,15.348a.458.458,0,0,0-.359.053l-2.847,1.7-2.943-4.918a.474.474,0,1,0-.813.487L21.647,18a.474.474,0,0,0,.127.142.465.465,0,0,0,.522.02l3.253-1.946a.474.474,0,0,0-.128-.867Z" transform="translate(0 -4.892)" fill="#fff"/><path d="M35.145,7.986l-2.578.28L30.872,6.3a.317.317,0,0,0-.3-.141c-.114.029-.17.16-.19.266l-.533,2.539-2.391,1c-.119.052-.257.151-.218.3a.4.4,0,0,0,.185.206l2.254,1.288.213,2.585a.672.672,0,0,0,.016.1c.033.128.128.231.271.194a.428.428,0,0,0,.183-.11l1.921-1.742,2.524.595a.417.417,0,0,0,.213.008c.143-.037.172-.171.139-.3a.666.666,0,0,0-.031-.1l-1.065-2.365,1.344-2.216a.379.379,0,0,0,.068-.271C35.443,7.994,35.269,7.975,35.145,7.986Z" transform="translate(0 -4.892)" fill="#fff"/><path d="M42.985,12.975a.414.414,0,0,0,.2.065c.148,0,.212-.119.213-.252a.683.683,0,0,0,0-.1L43,10.124l1.883-1.779a.38.38,0,0,0,.137-.243c0-.153-.16-.217-.282-.239l-2.559-.413L41.064,5.106c-.045-.1-.13-.211-.247-.213s-.206.109-.254.206L39.378,7.405l-2.571.333c-.128.019-.287.077-.29.231a.4.4,0,0,0,.124.247l1.832,1.838-.48,2.548a.7.7,0,0,0-.011.1c0,.133.063.256.211.259A.431.431,0,0,0,38.4,12.9l2.313-1.17Z" transform="translate(0 -4.892)" fill="#fff"/><path d="M53.93,9.983l-2.391-1-.533-2.539c-.02-.106-.077-.236-.19-.266a.317.317,0,0,0-.3.141l-1.7,1.965L46.248,8c-.129-.012-.3.008-.336.156a.393.393,0,0,0,.063.27l1.349,2.217-1.064,2.365a.675.675,0,0,0-.036.1.224.224,0,0,0,.144.3.433.433,0,0,0,.213-.008l2.524-.595,1.921,1.742a.415.415,0,0,0,.183.11c.143.037.234-.066.267-.195a.664.664,0,0,0,.02-.1l.213-2.585,2.248-1.289a.376.376,0,0,0,.19-.2C54.186,10.133,54.043,10.033,53.93,9.983Z" transform="translate(0 -4.892)" fill="#fff"/><path d="M55.732,16.143a.445.445,0,0,0,.138.126l1.484.88a2.1,2.1,0,0,0,.821.285,2.215,2.215,0,0,0,.842-.052,2.284,2.284,0,0,0,.763-.361,2.108,2.108,0,0,0,.584-.644,2.2,2.2,0,0,0,.227-.523,2.167,2.167,0,0,0,.084-.558,2.235,2.235,0,0,0-.064-.571,2.355,2.355,0,0,0-.222-.563,1.869,1.869,0,0,0,1.207-1.5,1.857,1.857,0,0,0-.346-1.354,1.79,1.79,0,0,0-.543-.491l-1.188-.705a.442.442,0,0,0-.178-.061.516.516,0,0,0-.18.01.481.481,0,0,0-.165.076.461.461,0,0,0-.126.141L55.7,15.62a.459.459,0,0,0-.061.179.431.431,0,0,0,.011.181A.5.5,0,0,0,55.732,16.143Zm3.711-4.969.782.463a.855.855,0,0,1,.261.238.936.936,0,0,1,.17.665.843.843,0,0,1-.115.335.872.872,0,0,1-.24.265.954.954,0,0,1-.316.149.9.9,0,0,1-.346.023.865.865,0,0,1-.338-.118l-.78-.463Zm-1.406,2.373,1.077.639a1.2,1.2,0,0,1,.364.331,1.248,1.248,0,0,1,.206.434,1.281,1.281,0,0,1,.028.479,1.245,1.245,0,0,1-.5.834,1.271,1.271,0,0,1-.432.207,1.24,1.24,0,0,1-.476.029,1.221,1.221,0,0,1-.47-.164L56.76,15.7Z" transform="translate(0 -4.892)" fill="#fff"/><path d="M64.138,18.338a2.39,2.39,0,0,0,.625.034,2.215,2.215,0,0,0,.574-.124,2.052,2.052,0,0,0,.5-.266,2.253,2.253,0,0,0,.424-.395,2.116,2.116,0,0,0,.409-.767,2.3,2.3,0,0,0,.084-.84,2.221,2.221,0,0,0-.235-.81,2.112,2.112,0,0,0-.544-.678l-1.328-1.1a.483.483,0,0,0-.167-.092.464.464,0,0,0-.18-.019.454.454,0,0,0-.174.053.481.481,0,0,0-.147.12l-3.96,4.777a.474.474,0,1,0,.729.6l1.459-1.759,1.026.85-.4,2.952a.47.47,0,0,0,.165.439.465.465,0,0,0,.165.091.453.453,0,0,0,.181.02.46.46,0,0,0,.321-.173.486.486,0,0,0,.107-.248Zm-1.323-1.991,1.6-1.924.963.8a1.2,1.2,0,0,1,.309.384,1.256,1.256,0,0,1,.088.938,1.235,1.235,0,0,1-.235.437,1.181,1.181,0,0,1-.383.307,1.31,1.31,0,0,1-.459.137,1.223,1.223,0,0,1-.915-.279Z" transform="translate(0 -4.892)" fill="#fff"/><path d="M64.156,21.678a.458.458,0,0,0-.167.321.447.447,0,0,0,.109.344.46.46,0,0,0,.323.167.515.515,0,0,0,.185-.017l2.159-.736L68.242,23.5l-1.088,2a.5.5,0,0,0-.046.18.439.439,0,0,0,.107.342.473.473,0,0,0,.668.056.517.517,0,0,0,.124-.151l3.16-5.811a.463.463,0,0,0-.046-.552.473.473,0,0,0-.538-.137l-6.232,2.143A.51.51,0,0,0,64.156,21.678Zm5.6-.955-1.031,1.89-1.005-1.188Z" transform="translate(0 -4.892)" fill="#fff"/><path d="M76.477,28.62a.451.451,0,0,0,.225-.285.473.473,0,0,0-.687-.542L71.8,30.149l2.53-5.982a.485.485,0,0,0-.027-.406.5.5,0,0,0-.124-.146.451.451,0,0,0-.16-.082.463.463,0,0,0-.183-.013.485.485,0,0,0-.179.059l-5.417,3.027a.461.461,0,0,0-.225.285.451.451,0,0,0,.043.36.471.471,0,0,0,.644.183l4.208-2.352-2.528,5.987a.471.471,0,0,0,.032.4.486.486,0,0,0,.121.144.457.457,0,0,0,.162.084.463.463,0,0,0,.18.015.475.475,0,0,0,.181-.06Z" transform="translate(0 -4.892)" fill="#fff"/><path d="M75.971,36.449a3.523,3.523,0,0,0,1.222-.681,3.6,3.6,0,0,0,.844-1.111,3.44,3.44,0,0,0,.2-2.728l-.433-1.307a.451.451,0,0,0-.095-.164.5.5,0,0,0-.143-.113.471.471,0,0,0-.175-.05.463.463,0,0,0-.188.022l-5.89,1.952a.469.469,0,0,0-.165.095.479.479,0,0,0-.11.145.538.538,0,0,0-.047.176.455.455,0,0,0,.023.188l.433,1.307a3.579,3.579,0,0,0,4.52,2.27ZM72.35,33.881l-.284-.857,4.991-1.654.284.857a2.641,2.641,0,0,1-1.668,3.322,2.594,2.594,0,0,1-1.022.136,2.635,2.635,0,0,1-.986-.285A2.523,2.523,0,0,1,72.35,33.881Z" transform="translate(0 -4.892)" fill="#fff"/><g id="crown"><path d="M54.59,30.174a3.113,3.113,0,0,0-3.041,3.2,3.565,3.565,0,0,0,.428,1.667l-3.426,3.732-1.2-6.761a3.57,3.57,0,0,0,2.27-3.336,3.491,3.491,0,1,0-6.982,0,3.631,3.631,0,0,0,1.457,2.9l-3.512,6.629-3.47-6.629a3.619,3.619,0,0,0,1.457-2.9,3.526,3.526,0,0,0-3.512-3.512,3.489,3.489,0,0,0-3.469,3.512,3.557,3.557,0,0,0,2.27,3.336l-1.284,6.717-3.384-3.688a2.5,2.5,0,0,0,.6-1.667,3.149,3.149,0,0,0-3.084-3.2,3.113,3.113,0,0,0-3.04,3.2,3.02,3.02,0,0,0,2.869,3.073l3.9,12.688c-2.784,2.239-2.784,4.916-2.784,8.34H53.734c0-3.424,0-6.189-2.871-8.428l3.984-12.6a3.016,3.016,0,0,0,2.827-3.073A3.149,3.149,0,0,0,54.59,30.174ZM26.706,34.388a1.076,1.076,0,1,1,1.071-1.1A1.066,1.066,0,0,1,26.706,34.388Zm19.4-6.893a1.2,1.2,0,0,1,1.242,1.229A1.232,1.232,0,0,1,46.109,30a1.251,1.251,0,0,1-1.2-1.273A1.212,1.212,0,0,1,46.109,27.5Zm-11.051,0A1.222,1.222,0,0,1,36.3,28.725a1.222,1.222,0,1,1-2.442,0A1.213,1.213,0,0,1,35.059,27.5Zm-4.24,26.867c0-1.975,1.714-2.766,3.727-3.249a27.181,27.181,0,0,1,6.039-.527,20.247,20.247,0,0,1,5.74.483c2.4.658,4.24,1.317,4.24,3.292Zm17.647-6.146a52.1,52.1,0,0,0-8.31-.746A33.155,33.155,0,0,0,33,48.128l-3.47-9.218.086-.132,4.412,4.609,1.543-9.439h.086l4.925,9.175,4.926-9.175h.085L47.137,43.3l4.455-4.522.085.088ZM54.59,34.388a1.065,1.065,0,0,1-1.028-1.1,1.086,1.086,0,0,1,1.028-1.054,1.126,1.126,0,0,1,1.071,1.054A1.1,1.1,0,0,1,54.59,34.388Z" transform="translate(0 -4.892)" fill="#fff" fill-rule="evenodd"/></g></g></svg>