<svg id="Layer_1" data-name="Layer 1" xmlns="http://www.w3.org/2000/svg" width="120" height="120" viewBox="0 0 120 120"><title>brand_logo_2_120x120</title><g id="brand_logo_2"><path d="M7.7,80.614a2.015,2.015,0,0,0,.379-1.031,2.666,2.666,0,0,0-.294-1.174,2.025,2.025,0,0,0-.628-.8,2.157,2.157,0,0,0-.927-.4,3.32,3.32,0,0,0-1.157.01,5.385,5.385,0,0,0-1.319.426,4.631,4.631,0,0,0-1.125.713,3.339,3.339,0,0,0-.75.9,2.541,2.541,0,0,0-.318.992,1.912,1.912,0,0,0,.176.995,2.2,2.2,0,0,0,.69.9,3.089,3.089,0,0,0,.857.423l-.222,1.371a3.42,3.42,0,0,1-2.72-2.117,3.233,3.233,0,0,1-.306-1.548A3.769,3.769,0,0,1,.45,78.764,4.831,4.831,0,0,1,1.511,77.41a6.361,6.361,0,0,1,1.642-1.064A6.6,6.6,0,0,1,5,75.79a4.688,4.688,0,0,1,1.71.044,3.6,3.6,0,0,1,1.429.659,3.385,3.385,0,0,1,1.006,1.292A3.368,3.368,0,0,1,8.9,81.36Z" fill="#fff"/><path d="M11.771,83.145l.764,1.177L5.792,88.687l2.14,3.307-1.168.756-2.9-4.486Z" fill="#fff"/><path d="M11.16,98.423a3.477,3.477,0,0,1-.761-1.377,3.389,3.389,0,0,1-.068-1.528,4.509,4.509,0,0,1,.633-1.587A6.976,6.976,0,0,1,12.3,92.383a7.061,7.061,0,0,1,1.716-1.138,4.524,4.524,0,0,1,1.653-.423,3.382,3.382,0,0,1,1.5.269,3.766,3.766,0,0,1,2.028,2.31,3.339,3.339,0,0,1,.072,1.525,4.5,4.5,0,0,1-.632,1.587,7.022,7.022,0,0,1-1.352,1.553,6.877,6.877,0,0,1-1.706,1.13,4.48,4.48,0,0,1-1.655.423,3.337,3.337,0,0,1-1.507-.267A3.481,3.481,0,0,1,11.16,98.423Zm1.1-.972a2.171,2.171,0,0,0,.777.577,2.082,2.082,0,0,0,.97.161,3.11,3.11,0,0,0,1.132-.313,5.45,5.45,0,0,0,1.241-.846,4.172,4.172,0,0,0,1.493-2.169,2.274,2.274,0,0,0-2.321-2.643,4.154,4.154,0,0,0-2.342,1.2,5.435,5.435,0,0,0-1,1.12,3.141,3.141,0,0,0-.456,1.082,2.079,2.079,0,0,0,.035.984A2.174,2.174,0,0,0,12.265,97.451Z" fill="#fff"/><path d="M19.33,106.116l-1.18-.982,5.124-6.173-1.908-1.582.9-1.082,4.978,4.135-.9,1.079-1.887-1.569Z" fill="#fff"/><path d="M30.832,108.892l-3.126-1.83-2.089,3.566-1.213-.71,4.764-8.129,1.213.71-1.971,3.363,3.125,1.83,1.971-3.361,1.213.71-4.767,8.129-1.211-.71Z" fill="#fff"/><path d="M37.578,106.282l1.3.541-3.63,8.7-1.3-.541Z" fill="#fff"/><path d="M42.476,110.678l-1.8,6.775-1.345-.359,2.42-9.11,1.674.446L45,115.8l1.726-6.493,1.356.359-2.419,9.108-1.547-.41Z" fill="#fff"/><path d="M53.526,119.971a3.272,3.272,0,0,1-1.512-.508,3.683,3.683,0,0,1-1.1-1.123,4.756,4.756,0,0,1-.634-1.594,6.517,6.517,0,0,1-.105-1.925,6.857,6.857,0,0,1,.449-1.984,4.546,4.546,0,0,1,.907-1.459,3.392,3.392,0,0,1,2.825-1.061,3.818,3.818,0,0,1,1.86.59,3.667,3.667,0,0,1,1.171,1.41l-1.256.659a1.931,1.931,0,0,0-.7-.838,2.431,2.431,0,0,0-1.087-.318,2.148,2.148,0,0,0-1.835.664,4.026,4.026,0,0,0-.87,2.463,5.331,5.331,0,0,0,.047,1.361,3.586,3.586,0,0,0,.374,1.1,2.3,2.3,0,0,0,.664.769,1.82,1.82,0,0,0,.927.336,1.907,1.907,0,0,0,1.511-.4,2.117,2.117,0,0,0,.61-1.43l-1.806-.156.12-1.4,3.493.3-.055.631a5.348,5.348,0,0,1-.381,1.6,4.121,4.121,0,0,1-.815,1.282,3.368,3.368,0,0,1-1.218.818A3.469,3.469,0,0,1,53.526,119.971Z" fill="#fff"/><path d="M72.384,111.794a2.068,2.068,0,0,0-.895-.641,2.664,2.664,0,0,0-1.21-.028,2.046,2.046,0,0,0-.938.392,2.105,2.105,0,0,0-.631.787,3.344,3.344,0,0,0-.3,1.12,5.391,5.391,0,0,0,.062,1.387,4.677,4.677,0,0,0,.385,1.274,3.344,3.344,0,0,0,.669.961,2.594,2.594,0,0,0,.872.572,1.923,1.923,0,0,0,1,.095,2.164,2.164,0,0,0,1.054-.426,2.993,2.993,0,0,0,.636-.715l1.266.579a3.42,3.42,0,0,1-2.766,2.058,3.246,3.246,0,0,1-1.574-.115,3.726,3.726,0,0,1-1.346-.8,4.767,4.767,0,0,1-1.023-1.384,6.3,6.3,0,0,1-.59-1.866,6.71,6.71,0,0,1-.049-1.928,4.753,4.753,0,0,1,.5-1.635,3.622,3.622,0,0,1,1.013-1.2,3.329,3.329,0,0,1,1.512-.625,3.364,3.364,0,0,1,3.384,1.179Z" fill="#fff"/><path d="M82.271,116.49a3.525,3.525,0,0,1-1.561.19,3.4,3.4,0,0,1-1.443-.513,4.565,4.565,0,0,1-1.23-1.182A7.631,7.631,0,0,1,76.7,111.14a4.507,4.507,0,0,1,.228-1.692,3.381,3.381,0,0,1,.818-1.292,3.764,3.764,0,0,1,2.9-1.01,3.333,3.333,0,0,1,1.443.508,4.488,4.488,0,0,1,1.23,1.182,7.616,7.616,0,0,1,1.338,3.843,4.5,4.5,0,0,1-.228,1.692,3.394,3.394,0,0,1-.815,1.3A3.488,3.488,0,0,1,82.271,116.49Zm-.484-1.389a2.2,2.2,0,0,0,.825-.5,2.075,2.075,0,0,0,.513-.838,3.045,3.045,0,0,0,.136-1.166,5.343,5.343,0,0,0-.315-1.466,4.167,4.167,0,0,0-1.446-2.2,2.275,2.275,0,0,0-3.322,1.156,4.164,4.164,0,0,0,.233,2.625,5.354,5.354,0,0,0,.664,1.346,3.021,3.021,0,0,0,.828.828,2.072,2.072,0,0,0,.925.341A2.183,2.183,0,0,0,81.787,115.1Z" fill="#fff"/><path d="M91.746,104.28l1.351,7.07-.067.038L87.4,106.805l3.43,5.87-1.21.708-4.758-8.134,1.676-.979,4.668,3.927-1.169-5.975,1.577-.92,4.758,8.131-1.2.7Z" fill="#fff"/><path d="M98.452,103.124l2.425,2.812-1.064.915-6.15-7.139,2.517-2.166a3.821,3.821,0,0,1,1.015-.641,2.556,2.556,0,0,1,1.059-.208,2.349,2.349,0,0,1,1.046.274,3.357,3.357,0,0,1,.984.818,2.7,2.7,0,0,1,.766,2.125,3.052,3.052,0,0,1-1.146,1.958Zm-2.807-3.263,1.9,2.207,1.541-1.325a1.265,1.265,0,0,0,.169-2.017,1.3,1.3,0,0,0-2.071-.192Z" fill="#fff"/><path d="M108.47,95.739l-2.256,2.63,1.048,1.559-.992,1.156-5.34-8.249,1.274-1.487,8.954,4.037-.974,1.136Zm-3.056,1.428,1.743-2.035-4.517-2.092Z" fill="#fff"/><path d="M108,87.587l5.978,3.658-.725,1.184-8.039-4.917.9-1.479,7.511.595-5.732-3.5.733-1.2,8.039,4.914-.836,1.364Z" fill="#fff"/><path d="M120,79.663l-.613,1.464-3.294-1.382-6.468.285.615-1.464,4.845-.113-3.312-3.54.6-1.441,4.307,4.8Z" fill="#fff"/><path d="M98.859,57.063a1.324,1.324,0,1,0,1.454,1.313A1.321,1.321,0,0,0,98.859,57.063Z" fill="#fff" fill-rule="evenodd"/><path d="M25.351,57.119H23.944v4.664h1.407a2.332,2.332,0,0,0,0-4.664Z" fill="#fff" fill-rule="evenodd"/><path d="M104.192,59.784c-.948,0-1.426.535-1.426,1.051s.478,1.078,1.426,1.078c.967,0,1.435-.572,1.435-1.078S105.159,59.784,104.192,59.784Z" fill="#fff" fill-rule="evenodd"/><path d="M104.192,58.911a1.048,1.048,0,0,0,1.162-.985,1.173,1.173,0,0,0-2.318.009A1.044,1.044,0,0,0,104.192,58.911Z" fill="#fff" fill-rule="evenodd"/><path d="M45.6,98.309a2.7,2.7,0,0,1-1.038-.188,2.1,2.1,0,0,1-.77-.533,2.356,2.356,0,0,1-.483-.834,3.339,3.339,0,0,1-.168-1.092V91.119h1.046v4.542a1.668,1.668,0,0,0,.38,1.246,1.457,1.457,0,0,0,1.033.354,1.3,1.3,0,0,0,.972-.354,1.759,1.759,0,0,0,.351-1.246V91.119h1.048v4.542a3.636,3.636,0,0,1-.153,1.083,2.366,2.366,0,0,1-.454.839,1.963,1.963,0,0,1-.746.538A2.585,2.585,0,0,1,45.6,98.309Z" fill="#fff"/><path d="M52.632,98.21A.467.467,0,0,1,52.227,98a.855.855,0,0,1-.147-.5.875.875,0,0,1,.147-.514.474.474,0,0,1,.405-.207.511.511,0,0,1,.4.207.778.778,0,0,1,.172.514.761.761,0,0,1-.172.5A.5.5,0,0,1,52.632,98.21Z" fill="#fff"/><path d="M57.866,96.679a3.41,3.41,0,0,0,.77.4,2.808,2.808,0,0,0,.987.159,1.488,1.488,0,0,0,.884-.244.772.772,0,0,0,.342-.665.866.866,0,0,0-.347-.677,6.572,6.572,0,0,0-.908-.617q-.385-.224-.84-.5a3.545,3.545,0,0,1-.8-.646,1.658,1.658,0,0,1-.336-.509,1.871,1.871,0,0,1-.1-.665,1.464,1.464,0,0,1,.178-.731,1.606,1.606,0,0,1,.469-.528,2.093,2.093,0,0,1,.676-.323,2.936,2.936,0,0,1,.8-.108,4.957,4.957,0,0,1,.608.036,3.884,3.884,0,0,1,.542.1,2.3,2.3,0,0,1,.446.157,1.138,1.138,0,0,1,.309.212l-.294,1.087a1.978,1.978,0,0,0-.649-.357,2.793,2.793,0,0,0-.884-.128,1.609,1.609,0,0,0-.834.193.621.621,0,0,0-.321.569.516.516,0,0,0,.118.311,1.612,1.612,0,0,0,.3.289,3.517,3.517,0,0,0,.4.263c.141.082.277.157.41.222.3.171.582.335.84.494a4.128,4.128,0,0,1,.665.5,2.1,2.1,0,0,1,.444.571,1.494,1.494,0,0,1,.164.716,2.014,2.014,0,0,1-.178.856,1.9,1.9,0,0,1-.487.646,2.195,2.195,0,0,1-.738.41,2.869,2.869,0,0,1-.908.142,4.134,4.134,0,0,1-1.239-.166,3.477,3.477,0,0,1-.9-.427Z" fill="#fff"/><path d="M66.646,98.21A.467.467,0,0,1,66.24,98a.847.847,0,0,1-.147-.5.866.866,0,0,1,.147-.514.474.474,0,0,1,.405-.207.513.513,0,0,1,.4.207.779.779,0,0,1,.174.514.762.762,0,0,1-.174.5A.5.5,0,0,1,66.646,98.21Z" fill="#fff"/><path d="M75.366,96.848H72.757l-.374,1.362H71.238l2.093-7.091H74.8l2.083,7.091H75.761ZM73.054,95.8h2.016l-1.017-3.6Z" fill="#fff"/><path d="M7.716,34.206,5.857,37.045l1.218,1.383-.819,1.246-6.23-7.34,1.049-1.6,9.211,2.789-.8,1.227ZM4.929,35.975l1.438-2.194L1.714,32.317Z" fill="#fff"/><path d="M13.976,29.347a3.487,3.487,0,0,1-1.079.848,2.774,2.774,0,0,1-1.185.289,3.039,3.039,0,0,1-1.231-.25,4.363,4.363,0,0,1-1.209-.781l-4.42-3.928.907-1.018,4.42,3.927a2.154,2.154,0,0,0,1.541.706,1.88,1.88,0,0,0,1.238-.7,1.708,1.708,0,0,0,.5-1.254,2.294,2.294,0,0,0-.909-1.416L8.119,21.843l.908-1.02,4.423,3.928a4.745,4.745,0,0,1,.92,1.085A3.038,3.038,0,0,1,14.794,27a2.635,2.635,0,0,1-.119,1.192A3.4,3.4,0,0,1,13.976,29.347Z" fill="#fff"/><path d="M21.074,22.417l-1.162.956-4.991-6.066-1.876,1.545-.874-1.062,4.892-4.028.874,1.062L16.083,16.35Z" fill="#fff"/><path d="M27.6,13.208l-3.066,1.783,2.033,3.5-1.188.691L20.736,11.2l1.19-.691,1.92,3.3,3.066-1.784L25,8.727l1.185-.692,4.644,7.98-1.19.693Z" fill="#fff"/><path d="M30.663,5.946,35.251,4.16l.5,1.282L32.445,6.727l.885,2.279L35.4,8.2,35.9,9.471l-2.076.806.974,2.5L38.1,11.494l.493,1.271-4.588,1.784Z" fill="#fff"/><path d="M41.633,4.73l1.528,6.693-1.329.3-2.058-9,1.655-.377L46.157,8.02,44.687,1.6,46.029,1.3l2.061,9-1.532.349Z" fill="#fff"/><path d="M55,9.486l-1.5.136-.7-7.824-2.422.217L50.251.644l6.311-.57.126,1.371-2.395.216Z" fill="#fff"/><path d="M61.082.014l1.371.107-.713,9.2L60.368,9.22Z" fill="#fff"/><path d="M71.824,3.61a2,2,0,0,0-.638-.866,2.606,2.606,0,0,0-1.118-.4,2.022,2.022,0,0,0-.995.079,2.085,2.085,0,0,0-.826.54,3.128,3.128,0,0,0-.618.951,5.308,5.308,0,0,0-.369,1.308,4.573,4.573,0,0,0-.03,1.3,3.271,3.271,0,0,0,.329,1.1,2.514,2.514,0,0,0,.635.8,1.887,1.887,0,0,0,.912.4,2.133,2.133,0,0,0,1.108-.073,2.92,2.92,0,0,0,.811-.472l1,.925a3.355,3.355,0,0,1-3.2,1.072,3.167,3.167,0,0,1-1.429-.589,3.662,3.662,0,0,1-1.007-1.162,4.668,4.668,0,0,1-.53-1.6,6.161,6.161,0,0,1,.023-1.917A6.532,6.532,0,0,1,66.422,3.2a4.733,4.733,0,0,1,.962-1.371,3.541,3.541,0,0,1,1.313-.81A3.252,3.252,0,0,1,70.294.9a3.29,3.29,0,0,1,2.79,2.131Z" fill="#fff"/><path d="M86.852,5.559a2.642,2.642,0,0,1,.791.488,2.258,2.258,0,0,1,.54.728,2.333,2.333,0,0,1,.208.919,2.688,2.688,0,0,1-.206,1.054,2.213,2.213,0,0,1-.588.866,2.314,2.314,0,0,1-.841.461,1.818,1.818,0,0,1,.713,1,2.121,2.121,0,0,1,.078.73,2.8,2.8,0,0,1-.206.864,2.706,2.706,0,0,1-1.489,1.63,3.139,3.139,0,0,1-2.368-.148l-2.82-1.124,3.416-8.576Zm-4.405,6.716,1.781.709a1.23,1.23,0,0,0,.979,0,1.373,1.373,0,0,0,.711-.81,1.341,1.341,0,0,0,.053-1.017,1.182,1.182,0,0,0-.713-.658l-1.813-.725Zm3.016-3.158a.84.84,0,0,0,.434.057,1.141,1.141,0,0,0,.409-.141,1.421,1.421,0,0,0,.344-.293,1.389,1.389,0,0,0,.241-.4,1.246,1.246,0,0,0,.035-.905.947.947,0,0,0-.56-.59L84.85,6.244l-.9,2.27Z" fill="#fff"/><path d="M93.482,15.041,92.066,14.2l-1.848,3.134-1.185-.7,4.691-7.95,2.8,1.654a2.905,2.905,0,0,1,1.489,1.738,2.828,2.828,0,0,1-.422,2.146,2.73,2.73,0,0,1-1.243,1.179,2.451,2.451,0,0,1-1.557.126l-.45,4.246-1.293-.765Zm.726-4.469-1.452,2.459,1.718,1.013a1.238,1.238,0,0,0,1.924-.477,1.271,1.271,0,0,0-.472-1.98Z" fill="#fff"/><path d="M101.6,23.242,99,21.06,97.49,22.1l-1.143-.959,8.021-5.319,1.467,1.231-3.855,8.818-1.125-.943Zm-1.429-2.979,2.009,1.686,2-4.448Z" fill="#fff"/><path d="M110.047,24.471l-5.231,4.445-.887-1.04,7.04-5.977,1.1,1.295L109.214,30l5.018-4.262.892,1.049-7.037,5.977-1.017-1.2Z" fill="#fff"/><path d="M110.1,35.577l7.924-4.742,1.326,2.219a4.451,4.451,0,0,1,.615,1.686,3.99,3.99,0,0,1-.118,1.658,4.34,4.34,0,0,1-.794,1.5,5.262,5.262,0,0,1-1.411,1.212,5.436,5.436,0,0,1-1.841.714,4.266,4.266,0,0,1-1.73-.036,4.026,4.026,0,0,1-1.507-.725,4.7,4.7,0,0,1-1.173-1.337Zm7.449-2.853L112,36.045l.477.795a3.528,3.528,0,0,0,.892,1.025,2.811,2.811,0,0,0,1.092.514,3.088,3.088,0,0,0,1.211.016,3.6,3.6,0,0,0,1.238-.48,3.924,3.924,0,0,0,1.032-.855,2.7,2.7,0,0,0,.553-1.043,2.753,2.753,0,0,0,.043-1.194,3.809,3.809,0,0,0-.512-1.3Z" fill="#fff"/><path d="M119.91,56.632a1.987,1.987,0,0,0-1.39-1.792L60.592,36.406a1.988,1.988,0,0,0-1.206,0L1.452,54.842a1.987,1.987,0,0,0-1.39,1.792Q0,57.968,0,59.318t.062,2.676a1.987,1.987,0,0,0,1.39,1.792L59.386,82.222a1.988,1.988,0,0,0,1.206,0l57.928-18.434A1.987,1.987,0,0,0,119.911,62q.061-1.331.062-2.678T119.91,56.632ZM12.016,62.73H8.009V56.172h4v.947H8.966v1.849h2.975v.957H8.966v1.858h3.05Zm2.959.058a2.254,2.254,0,0,1-2.364-1.775l-.009-.178.957-.019.009.141v-.038c.066.61.806.928,1.417.928.7,0,1.473-.394,1.473-1.069a1.08,1.08,0,0,0-.028-.225c-.113-.5-.788-.582-1.444-.647-1.023-.1-2.222-.328-2.326-1.695v0a1.775,1.775,0,0,1,.355-1.242A2.533,2.533,0,0,1,15,56.1a2.086,2.086,0,0,1,2.233,1.726l-.939.038a1.258,1.258,0,0,0-1.341-.835,1.563,1.563,0,0,0-1.192.5.862.862,0,0,0-.159.611c.047.676.788.76,1.491.826.9.112,2.017.347,2.271,1.4a2.306,2.306,0,0,1,.047.431A2.241,2.241,0,0,1,14.975,62.788Zm7.3-5.669H20.3v5.638h-.947V57.119H17.363v-.957h4.916Zm3.072,5.611H23V56.172h2.355a3.28,3.28,0,0,1,0,6.558Zm17.23,1.8v-.412c3.918.267,5.3-1.3,5.3-3.011,0-1.856-2.021-2.62-2.021-2.62a7.812,7.812,0,0,1-1.485.145v-.413c2.413,0,5.238-1.506,5.238-4.1,0-2.021-1.98-3.175-5.528-3.216-.227,1.526-.907,6.537-1.732,10.558a5.76,5.76,0,0,1-5.589,4.765V65.83c2.1-.187,2.062-.536,2.578-3.425L41.323,51c-5.63.474-8.826,2.5-8.826,5.671a2.518,2.518,0,0,0,.742,1.815,5.006,5.006,0,0,0,3.341,1.032v.433A5.079,5.079,0,0,1,32.971,58.8a2.782,2.782,0,0,1-.866-2.124c0-3.939,4.289-6.167,11.8-6.167,4.476,0,6.167,1.506,6.167,3.609,0,1.836-1.3,3.444-3.65,4.167,2.516.288,3.795,1.175,3.795,2.66C50.212,64.221,44.954,64.53,42.581,64.53Zm14.681-3.713h-.5c0-1.485,1.774-2.64,1.774-4.042,0-1.093-.5-1.258-1.052-1.258-1.713,0-2.682,3.216-2.743,3.423v.02L54,63.066H51.528l1.361-7.61a1.5,1.5,0,0,0-1.031.578l-.309-.248a1.964,1.964,0,0,1,1.546-.742c1.279,0,1.98.66,1.98,1.815v.124c.64-1.34,1.382-1.939,2.414-1.939,1.072,0,1.587.5,1.587,1.65C59.076,58.323,57.262,59.519,57.262,60.818Zm10.35,1.444.309.247a1.964,1.964,0,0,1-1.547.741A1.729,1.729,0,0,1,64.4,61.663a2.741,2.741,0,0,1-2.309,1.587,2.848,2.848,0,0,1-2.99-3.175c0-3.217,1.753-5.032,4.145-5.032a1.959,1.959,0,0,1,2,1.423c.062-.392.123-.742.227-1.238A14.555,14.555,0,0,0,68,55.043l-1.422,7.8A1.5,1.5,0,0,0,67.612,62.262Zm8.639.989c-1.238,0-1.876-.6-1.876-1.69,0-1.4.743-3.8.743-5.012,0-.66-.289-.887-.846-.887-.908,0-1.794,1.279-2.351,3.321l-.7,3.856a1.542,1.542,0,0,0,1.051-.577l.309.247a1.964,1.964,0,0,1-1.547.741c-1.278,0-1.979-.721-1.979-1.712a15.786,15.786,0,0,1,.33-2.268l.681-3.815a1.5,1.5,0,0,0-1.032.578l-.309-.248a1.968,1.968,0,0,1,1.547-.742c1.28,0,1.981.66,1.981,1.815v.124a2.748,2.748,0,0,1,2.64-1.939,2.379,2.379,0,0,1,2.578,2.6c0,1.3-.741,3.423-.826,5.2a1.683,1.683,0,0,0,1.032-.577l.309.247A1.862,1.862,0,0,1,76.251,63.251Zm11.612-11.2S86.852,57.724,85.9,62.839a1.5,1.5,0,0,0,1.032-.577l.309.247a1.964,1.964,0,0,1-1.547.741c-1.175,0-1.876-.557-1.981-1.547a2.712,2.712,0,0,1-2.308,1.547,2.68,2.68,0,0,1-2.889-2.969c0-3.32,1.754-5.238,4.146-5.238a2.07,2.07,0,0,1,1.629.64,2.2,2.2,0,0,1,.309.5l1.113-6.064a1.5,1.5,0,0,0-1.031.578l-.309-.247a1.965,1.965,0,0,1,1.547-.742c1.278,0,1.979.66,1.979,1.814A5.173,5.173,0,0,1,87.863,52.053ZM95.7,62.73h-.937V57.945l-.882,1.2-.714-.515,1.774-2.5h.76Zm5.177-3.031L98.718,62.73H97.545l1.615-2.289a2.064,2.064,0,0,1-1.6-.1,2.286,2.286,0,0,1,1.3-4.241,2.26,2.26,0,0,1,2.42,2.28A2.491,2.491,0,0,1,100.877,59.7Zm3.315,3.1c-1.567,0-2.365-.93-2.365-1.972a1.739,1.739,0,0,1,1.135-1.529,1.415,1.415,0,0,1-.862-1.351,1.92,1.92,0,0,1,2.092-1.838,1.9,1.9,0,0,1,2.1,1.848,1.535,1.535,0,0,1-.826,1.341,1.641,1.641,0,0,1,1.106,1.529A2.106,2.106,0,0,1,104.192,62.8Zm5.2-.067a2.228,2.228,0,0,1-2.243-1.492l.871-.356a1.478,1.478,0,0,0,1.371.891,1.316,1.316,0,0,0,1.444-1.332,1.262,1.262,0,0,0-.76-1.154,2.458,2.458,0,0,0-2.308.216l-.535-.243V56.134h4.185v.92h-3.227v1.313a3.233,3.233,0,0,1,2.222.038,2.177,2.177,0,0,1,1.38,2.036A2.25,2.25,0,0,1,109.395,62.73Z" fill="#fff" fill-rule="evenodd"/><path d="M63.675,55.559c-1.464,0-2.247,3.279-2.247,5.568,0,1.32.37,1.649.928,1.649,1.174,0,1.978-1.855,2.143-2.309.082-.392.227-1.258.536-2.969C64.952,56.508,64.458,55.559,63.675,55.559Z" fill="#fff" fill-rule="evenodd"/><path d="M82.666,55.435c-.908,0-1.816,3.4-1.816,5.692,0,1.32.269,1.649.826,1.649,1.2,0,2-1.9,2.166-2.329l.6-3.259A1.7,1.7,0,0,0,82.666,55.435Z" fill="#fff" fill-rule="evenodd"/></g></svg>