<svg id="Layer_1" data-name="Layer 1" xmlns="http://www.w3.org/2000/svg" width="92" height="92" viewBox="0 0 92 92"><title>brand_logo_1_92x92</title><g id="brand_logo_1"><polygon points="6.964 74.643 4.096 79.506 1.236 74.643 0 74.643 3.563 80.695 3.563 86.244 4.629 86.244 4.629 80.695 8.192 74.643 6.964 74.643" fill="#fff"/><path d="M13.944,74.538A5.917,5.917,0,0,0,8.03,80.452a5.673,5.673,0,0,0,1.737,4.176,5.678,5.678,0,0,0,4.177,1.736,5.913,5.913,0,1,0,0-11.826Zm3.426,9.338A4.665,4.665,0,0,1,13.944,85.3a4.847,4.847,0,0,1,0-9.693,4.843,4.843,0,0,1,3.426,8.272Z" fill="#fff"/><path d="M28.372,82.375a2.933,2.933,0,1,1-5.865,0V74.668H21.441v7.707A4,4,0,0,0,28.267,85.2a3.851,3.851,0,0,0,1.171-2.826V74.668H28.372Z" fill="#fff"/><path d="M38.075,79.781a3.1,3.1,0,0,0,.671-1.955,3.186,3.186,0,0,0-3.175-3.183H31.4V86.236h1.066V81h2.779l2.723,5.243h1.2L36.394,80.9A3.08,3.08,0,0,0,38.075,79.781Zm-5.607.154V75.709h3.1a2.113,2.113,0,1,1,0,4.226Z" fill="#fff"/><path d="M50.491,80.194a3.153,3.153,0,0,0-2.042-5.551H44.957v11.6h4.176a3.185,3.185,0,0,0,3.176-3.191,3.134,3.134,0,0,0-1.819-2.86Zm-4.467-4.485h2.425a2.089,2.089,0,0,1,0,4.178H46.024Zm4.605,8.846a2.036,2.036,0,0,1-1.5.623h-3.11V80.953h3.11a2.113,2.113,0,0,1,1.5,3.6Z" fill="#fff"/><path d="M60.629,79.781a3.1,3.1,0,0,0,.671-1.955,3.187,3.187,0,0,0-3.174-3.183H53.958V86.236h1.066V81H57.8l2.722,5.243h1.2L58.949,80.9A3.072,3.072,0,0,0,60.629,79.781Zm-5.605.154V75.709h3.1a2.113,2.113,0,1,1,0,4.226Z" fill="#fff"/><path d="M62.43,86.244h1.26l1.835-2.9h4.6v2.9h1.059v-11.6H69.766Zm7.7-3.966H66.2l3.934-6.214Z" fill="#fff"/><polygon points="80.212 84.314 74.436 74.643 73.28 74.643 73.28 86.244 74.346 86.244 74.346 76.574 80.131 86.244 81.278 86.244 81.278 74.643 80.212 74.643 80.212 84.314" fill="#fff"/><path d="M90.3,76.348a5.594,5.594,0,0,0-4.1-1.705H83.347v11.6H86.2a5.8,5.8,0,0,0,4.1-9.9ZM89.551,83.8a4.57,4.57,0,0,1-3.352,1.39H84.406V75.7H86.2a4.742,4.742,0,0,1,3.352,8.1Z" fill="#fff"/><path d="M2.529,41.082a.562.562,0,0,0,.192.1L9.534,43.3a.545.545,0,1,0,.324-1.041l-2.508-.78L7.8,40.02l3.312-.87a.551.551,0,0,0,.419-.583.527.527,0,0,0-.059-.2.522.522,0,0,0-.13-.162.545.545,0,0,0-.194-.1.571.571,0,0,0-.311-.005l-3,.786a2.762,2.762,0,0,0-.238-.679,2.531,2.531,0,0,0-.382-.555,2.4,2.4,0,0,0-.5-.421,2.562,2.562,0,0,0-.606-.277,2.433,2.433,0,0,0-.994-.1,2.616,2.616,0,0,0-.929.279,2.562,2.562,0,0,0-.759.6,2.419,2.419,0,0,0-.483.875L2.362,40.5a.54.54,0,0,0-.025.218.526.526,0,0,0,.059.2A.519.519,0,0,0,2.529,41.082Zm1.463-2.151a1.389,1.389,0,0,1,.273-.5,1.445,1.445,0,0,1,.958-.5,1.4,1.4,0,0,1,.569.059,1.372,1.372,0,0,1,.494.272,1.536,1.536,0,0,1,.346.428,1.416,1.416,0,0,1,.1,1.1l-.428,1.374-2.744-.853Z" fill="#fff"/><path d="M8.176,35.681a3.969,3.969,0,0,0,3.13.342,4.116,4.116,0,0,0,.818-7.558A4.056,4.056,0,0,0,10.6,27.97,4.116,4.116,0,0,0,9,28.13a4.111,4.111,0,0,0-.82,7.551ZM7.5,30.621a3.029,3.029,0,0,1,4.1-1.2,3.024,3.024,0,0,1-.6,5.555,2.916,2.916,0,0,1-2.3-.25,2.861,2.861,0,0,1-1.447-1.8,3.051,3.051,0,0,1-.119-1.175A2.987,2.987,0,0,1,7.5,30.621Z" fill="#fff"/><path d="M10.638,25.138l4.091.47,2.6,2.2a.52.52,0,0,0,.4.126.544.544,0,0,0,.306-.957l-2.6-2.2-1.129-3.964a.545.545,0,0,0-.181-.262.532.532,0,0,0-.4-.129.548.548,0,0,0-.486.676l.958,3.346-3.458-.4a.5.5,0,0,0-.459.191.544.544,0,0,0,.063.768A.55.55,0,0,0,10.638,25.138Z" fill="#fff"/><path d="M23.577,21.959a.573.573,0,0,0,.208.051.509.509,0,0,0,.391-.13.545.545,0,0,0,.053-.769.6.6,0,0,0-.176-.14l-6.736-3.534a.533.533,0,0,0-.635.062.545.545,0,0,0-.148.621l2.571,7.129a.581.581,0,0,0,.12.223.527.527,0,0,0,.372.188.514.514,0,0,0,.393-.131.525.525,0,0,0,.187-.374.585.585,0,0,0-.022-.212l-.884-2.469,1.985-1.73Zm-4.7-.585-.842-2.328L20.221,20.2Z" fill="#fff"/><path d="M29.235,17.65a.526.526,0,0,0-.413.061L25.549,19.67l-3.384-5.656a.545.545,0,1,0-.935.56L24.894,20.7a.546.546,0,0,0,.146.164.534.534,0,0,0,.6.024l3.741-2.238a.545.545,0,0,0-.147-1Z" fill="#fff"/><path d="M40.417,9.184l-2.964.322L35.5,7.247a.365.365,0,0,0-.339-.162c-.131.034-.2.184-.219.306l-.613,2.92-2.75,1.153c-.137.059-.3.173-.251.344a.454.454,0,0,0,.213.236l2.592,1.481.245,2.972a.773.773,0,0,0,.018.117c.038.148.148.265.312.223a.493.493,0,0,0,.21-.127l2.209-2,2.9.684a.479.479,0,0,0,.245.01c.165-.043.2-.2.16-.344a.766.766,0,0,0-.035-.112l-1.224-2.72,1.546-2.549a.436.436,0,0,0,.078-.311C40.759,9.193,40.559,9.172,40.417,9.184Z" fill="#fff"/><path d="M49.433,14.922a.476.476,0,0,0,.234.074c.17,0,.244-.137.245-.29a.785.785,0,0,0,0-.118l-.46-2.946L51.615,9.6a.437.437,0,0,0,.157-.28c0-.176-.184-.25-.325-.275L48.5,8.566l-1.28-2.694c-.051-.112-.149-.243-.284-.245s-.237.126-.292.236L45.284,8.516,42.328,8.9c-.148.021-.331.089-.333.265a.458.458,0,0,0,.142.284l2.106,2.114-.552,2.93a.8.8,0,0,0-.013.118c0,.153.072.295.242.3a.5.5,0,0,0,.236-.067l2.66-1.346Z" fill="#fff"/><path d="M62.019,11.48l-2.75-1.153-.613-2.92c-.024-.122-.088-.272-.219-.306a.365.365,0,0,0-.339.162L56.149,9.522,53.185,9.2c-.148-.014-.342.009-.386.179a.452.452,0,0,0,.072.31l1.551,2.55L53.2,14.959a.776.776,0,0,0-.041.111.258.258,0,0,0,.166.346.5.5,0,0,0,.245-.01l2.9-.684,2.209,2a.477.477,0,0,0,.21.127c.165.043.269-.076.307-.224a.764.764,0,0,0,.024-.115l.245-2.972,2.585-1.482a.432.432,0,0,0,.219-.235C62.314,11.653,62.15,11.538,62.019,11.48Z" fill="#fff"/><path d="M64.092,18.564a.512.512,0,0,0,.159.145l1.707,1.012a2.419,2.419,0,0,0,.945.328,2.547,2.547,0,0,0,.968-.059,2.626,2.626,0,0,0,.877-.415,2.424,2.424,0,0,0,.671-.74,2.532,2.532,0,0,0,.261-.6,2.492,2.492,0,0,0,.1-.642,2.57,2.57,0,0,0-.073-.657,2.708,2.708,0,0,0-.256-.647,2.15,2.15,0,0,0,1.388-1.72,2.136,2.136,0,0,0-.4-1.557,2.059,2.059,0,0,0-.624-.565l-1.366-.811a.508.508,0,0,0-.2-.07.593.593,0,0,0-.207.012.553.553,0,0,0-.189.087.53.53,0,0,0-.145.162l-3.641,6.137a.528.528,0,0,0-.071.206.5.5,0,0,0,.013.209A.579.579,0,0,0,64.092,18.564Zm4.267-5.714.9.532a.983.983,0,0,1,.3.274,1.077,1.077,0,0,1,.2.765.97.97,0,0,1-.132.385,1,1,0,0,1-.276.3,1.1,1.1,0,0,1-.363.171,1.036,1.036,0,0,1-.4.026,1,1,0,0,1-.389-.135l-.9-.532Zm-1.617,2.729,1.238.734a1.377,1.377,0,0,1,.419.38,1.435,1.435,0,0,1,.236.5,1.473,1.473,0,0,1,.032.551,1.432,1.432,0,0,1-.57.959,1.461,1.461,0,0,1-.5.238,1.426,1.426,0,0,1-.548.033,1.4,1.4,0,0,1-.541-.189l-1.238-.734Z" fill="#fff"/><path d="M73.759,21.089a2.748,2.748,0,0,0,.718.039,2.547,2.547,0,0,0,.66-.142,2.36,2.36,0,0,0,.58-.306,2.59,2.59,0,0,0,.488-.454,2.433,2.433,0,0,0,.47-.882,2.641,2.641,0,0,0,.1-.966,2.554,2.554,0,0,0-.27-.931,2.429,2.429,0,0,0-.626-.779L74.348,15.4a.555.555,0,0,0-.192-.106.534.534,0,0,0-.207-.021.522.522,0,0,0-.2.061.553.553,0,0,0-.169.138l-4.554,5.494a.545.545,0,1,0,.839.7l1.678-2.023,1.18.978-.457,3.395a.541.541,0,0,0,.189.5.535.535,0,0,0,.189.1.521.521,0,0,0,.209.023.529.529,0,0,0,.369-.2.559.559,0,0,0,.123-.285ZM72.237,18.8l1.835-2.213,1.108.919a1.38,1.38,0,0,1,.355.441,1.444,1.444,0,0,1,.1,1.079,1.421,1.421,0,0,1-.27.5,1.358,1.358,0,0,1-.441.353,1.507,1.507,0,0,1-.527.157,1.407,1.407,0,0,1-1.052-.321Z" fill="#fff"/><path d="M73.779,24.93a.527.527,0,0,0-.192.369.514.514,0,0,0,.125.4.529.529,0,0,0,.372.192.592.592,0,0,0,.213-.019l2.482-.846,1.7,2.01-1.252,2.3a.573.573,0,0,0-.053.207.505.505,0,0,0,.123.394.543.543,0,0,0,.768.064.594.594,0,0,0,.142-.174l3.634-6.682a.532.532,0,0,0-.053-.635.544.544,0,0,0-.618-.157L74,24.813A.586.586,0,0,0,73.779,24.93Zm6.444-1.1L79.038,26l-1.156-1.366Z" fill="#fff"/><path d="M87.949,32.913a.519.519,0,0,0,.259-.328.545.545,0,0,0-.79-.624l-4.846,2.709,2.91-6.88a.558.558,0,0,0-.031-.466.574.574,0,0,0-.142-.168.519.519,0,0,0-.184-.094.532.532,0,0,0-.21-.015.558.558,0,0,0-.206.068L78.478,30.6a.53.53,0,0,0-.259.328.519.519,0,0,0,.05.414.542.542,0,0,0,.74.21l4.839-2.7-2.907,6.885a.542.542,0,0,0,.037.456.559.559,0,0,0,.14.166.526.526,0,0,0,.187.1.532.532,0,0,0,.207.017.546.546,0,0,0,.209-.069Z" fill="#fff"/><path d="M87.367,41.916a4.052,4.052,0,0,0,1.406-.783,4.135,4.135,0,0,0,.971-1.278,3.956,3.956,0,0,0,.232-3.138l-.5-1.5a.519.519,0,0,0-.109-.189.58.58,0,0,0-.165-.13.542.542,0,0,0-.2-.058.533.533,0,0,0-.216.026l-6.773,2.245a.539.539,0,0,0-.189.109.551.551,0,0,0-.126.167.618.618,0,0,0-.054.2.523.523,0,0,0,.026.217l.5,1.5a4.116,4.116,0,0,0,5.2,2.61ZM83.2,38.963l-.326-.986,5.739-1.9.326.986a3.037,3.037,0,0,1-1.918,3.821,2.983,2.983,0,0,1-1.175.156,3.03,3.03,0,0,1-1.134-.328A2.9,2.9,0,0,1,83.2,38.963Z" fill="#fff"/><g id="crown"><path d="M62.779,34.7a3.58,3.58,0,0,0-3.5,3.685,4.1,4.1,0,0,0,.492,1.917L55.834,44.6l-1.38-7.775a4.105,4.105,0,0,0,2.611-3.837,4.015,4.015,0,1,0-8.029,0,4.176,4.176,0,0,0,1.675,3.333l-4.039,7.623-3.99-7.623a4.161,4.161,0,0,0,1.675-3.333,4.055,4.055,0,0,0-4.039-4.039,4.012,4.012,0,0,0-3.99,4.039,4.09,4.09,0,0,0,2.61,3.837l-1.477,7.724L33.57,40.3a2.873,2.873,0,0,0,.69-1.917A3.621,3.621,0,0,0,30.712,34.7a3.58,3.58,0,0,0-3.5,3.685,3.473,3.473,0,0,0,3.3,3.534L35,56.51c-3.2,2.575-3.2,5.653-3.2,9.591h30c0-3.938,0-7.117-3.3-9.693l4.581-14.489a3.468,3.468,0,0,0,3.251-3.534A3.621,3.621,0,0,0,62.779,34.7ZM30.712,39.547a1.237,1.237,0,1,1,1.232-1.262A1.226,1.226,0,0,1,30.712,39.547ZM53.026,31.62a1.376,1.376,0,0,1,1.429,1.414A1.417,1.417,0,0,1,53.026,34.5a1.438,1.438,0,0,1-1.379-1.464A1.394,1.394,0,0,1,53.026,31.62Zm-12.709,0a1.4,1.4,0,0,1,1.429,1.414,1.406,1.406,0,1,1-2.809,0A1.4,1.4,0,0,1,40.317,31.62Zm-4.876,30.9c0-2.271,1.971-3.181,4.286-3.736a31.258,31.258,0,0,1,6.944-.606,23.286,23.286,0,0,1,6.6.556c2.757.756,4.877,1.515,4.877,3.786Zm20.294-7.068a59.921,59.921,0,0,0-9.557-.858,38.127,38.127,0,0,0-8.225.757l-3.99-10.6.1-.151,5.073,5.3,1.774-10.855h.1l5.664,10.552,5.664-10.552h.1l1.774,10.754,5.123-5.2.1.1Zm7.043-15.9A1.225,1.225,0,0,1,61.6,38.285a1.249,1.249,0,0,1,1.182-1.212,1.3,1.3,0,0,1,1.232,1.212A1.267,1.267,0,0,1,62.779,39.547Z" fill="#fff" fill-rule="evenodd"/></g></g></svg>