<svg id="Layer_1" data-name="Layer 1" xmlns="http://www.w3.org/2000/svg" width="92" height="92" viewBox="0 0 92 92"><title>brand_logo_3_92x92</title><g id="brand_logo_3"><path d="M38.673,20.5c-4.342,0-10.351,3.152-10.351,6.84,0,2.35,2.855,4.135,4.461,4.135.387,0,.625-.179.625-.595,0-.387-1.488-1.22-1.488-3.034,0-2.885,4.075-5.562,5.889-5.562,1.1,0,1.279.624,1.279,1.338,0,3.659-4.373,8.8-4.373,12.374,0,1.844,2.052,3.481,4.1,3.481,2.261,0,4.522-1.755,5.859-3.034-.684,2.112-1.337,3.986-1.963,5.562a.648.648,0,0,1-.237.03c-4.581.565-9.4,1.19-9.4,4.313,0,1.933,2.379,4.164,5.473,4.164,3.987,0,6.157-3.094,7.911-7.823a11.863,11.863,0,0,0,5.021-2.98,4.737,4.737,0,0,0,4.286,2.624,5.47,5.47,0,0,0,3.39-1.19,8.235,8.235,0,0,0,1.16.089,6.416,6.416,0,0,0,3.871-1.265,3.338,3.338,0,0,0,3.026,2.366A5.986,5.986,0,0,0,71.294,40.1c.357,1.1,1.339,2.231,3.6,2.231,2.945,0,5.116-3.658,5.116-3.658l.017-.03a28.323,28.323,0,0,0,2.864-5.592s1.786.119,1.786.714c0,.922-1.875,2.975-1.875,5.592,0,1.636,1.517,2.975,3.778,2.975,2.943,0,5.116-3.658,5.116-3.658a1.961,1.961,0,0,0,.267-.714.623.623,0,0,0-.624-.595c-.357,0-.6.416-.6.416s-1.575,2.559-3.181,2.559A.925.925,0,0,1,86.58,39.3c0-2.41,2.2-4.938,2.2-6.276A1.318,1.318,0,0,0,87.561,31.6a20.838,20.838,0,0,1-2.47.387c-.713,0-1.249-.208-1.249-.625,0-.476.386-.952.386-1.725a2.123,2.123,0,0,0-1.844-1.546,2.2,2.2,0,0,0-1.725,2.2,2.785,2.785,0,0,0,.982,2.2,18.376,18.376,0,0,1-2.588,5.294c-.025.043-.063.1-.1.162-.368.549-1.705,2.4-3.074,2.4-.6,0-.953-.447-.953-1.13,0-2.885,1.7-5.324,1.7-7.109a3.3,3.3,0,0,0-2.32-1.7.913.913,0,0,0-.833.566c-.713,1.665-1.844,6.1-2.5,7.376-.476.952-1.665,2.112-2.618,2.112-.446,0-.684-.417-.684-.892,0-2.885,1.933-5.681,1.933-7.466a3.29,3.29,0,0,0-2.349-1.7.9.9,0,0,0-.8.566,39.561,39.561,0,0,0-2.184,7.148,4.706,4.706,0,0,1-3.226,1.685,2.294,2.294,0,0,1-.475-.06A8.473,8.473,0,0,0,62.4,34.81a4.176,4.176,0,0,0-4.373-4.4c-3.071,0-6.841,2.7-6.9,7.63a8.517,8.517,0,0,1-4.075,2.929c.922-2.855,1.815-6.186,2.856-9.756A35.882,35.882,0,0,1,53.932,22.2c.505-.6.714-.892.714-1.071,0-.3-.269-.417-.863-.417a4.325,4.325,0,0,0-3.719,1.963A32.379,32.379,0,0,0,46.437,31l-.357,1.1c-1.1,1.577-3.569,4.67-5.442,4.67-.923,0-1.4-.8-1.4-1.726,0-2.736,3.777-7.108,3.777-11.154C43.016,21.99,41.083,20.5,38.673,20.5Zm-1.19,28.315a1.472,1.472,0,0,1-1.457-1.427c0-1.487,2.617-2.915,5.919-3.539C40.518,47.124,39.15,48.818,37.483,48.818ZM58.062,31.925c.684,0,1.16.535,1.16,1.874a13.664,13.664,0,0,1-.922,4.64,1.078,1.078,0,0,0-.327-.06c-.476,0-1.488.8-1.488,1.457a.892.892,0,0,0,.507.714,1.446,1.446,0,0,1-.923.356c-.892,0-1.427-.833-1.427-2.023C54.641,34.869,56.723,31.925,58.062,31.925Z" fill="#fff"/><path d="M9.756,60.862a15.7,15.7,0,0,0,7.287,2.29c3.094,0,6.782-1.665,6.782-5.651a5.5,5.5,0,0,0-3.39-4.908c.208-.06,4.313-2.023,4.313-5.5,0-3.837-4.164-5.77-8.685-5.77-6.335,0-12.641,3.45-12.641,7.881,0,2.351,3.153,3.807,4.729,3.807.417,0,.625-.148.625-.565,0-.386-1.458-.951-1.458-2.766,0-3.6,3.183-6.662,8.685-6.662,2.677,0,5.295,1.457,5.295,4.164a5.386,5.386,0,0,1-2.8,4.4,7.214,7.214,0,0,0-1.844-.327,1.379,1.379,0,0,0-1.517,1.339,1.411,1.411,0,0,0,1.576,1.278,4.941,4.941,0,0,0,1.517-.356c.833.089,1.844,1.278,1.844,3.212a4.05,4.05,0,0,1-4.164,4.1,10.355,10.355,0,0,1-4.878-1.7c.238-.386.476-.773.714-1.218,1.963-3.481,3.955-9.608,4.313-10.441a27.869,27.869,0,0,1,1.725-2.736c0-.238-.089-.417-.505-.417a7.19,7.19,0,0,0-3.629,1.22c-1.22.773-3.391,8.506-5.027,11.481l-.327.565A10.054,10.054,0,0,0,3.807,56.25,3.728,3.728,0,0,0,0,59.761c0,2.082,2.32,3.39,4.759,3.39A6.2,6.2,0,0,0,9.756,60.862ZM2.439,60a1.514,1.514,0,0,1,1.577-1.488,7.33,7.33,0,0,1,3.123.953c-.893,1.249-1.726,1.873-2.945,1.873C3.242,61.336,2.439,60.8,2.439,60Z" fill="#fff"/><path d="M24.89,59.314a.7.7,0,0,0,.625.626.871.871,0,0,0,.654-.447,28.25,28.25,0,0,0,2.885-5.622s1.785.119,1.785.714c0,.922-1.874,2.975-1.874,5.592,0,1.636,1.517,2.975,3.777,2.975A5.721,5.721,0,0,0,36.7,61.013a2.941,2.941,0,0,0,2.823,2.139c2.26,0,4.223-2.528,4.223-2.528a2.866,2.866,0,0,0,3.123,2.528,5.43,5.43,0,0,0,3.668-1.835c0,.065-.012.135-.012.2,0,.952,1.22,1.636,2.8,1.636.417,0,.655-.09.655-.6,0-5.711,2.8-9.251,4.581-9.251a.543.543,0,0,1,.594.476c0,1.785-1.516,3.926-1.516,6.366,0,1.665,1.516,3,3.777,3,1.793,0,3.3-1.355,4.2-2.417a3.462,3.462,0,0,0,3.174,2.417c2.47,0,4.879-2.916,4.879-2.916a3.91,3.91,0,0,0,3.777,2.916c2.945,0,5.117-3.659,5.117-3.659a1.956,1.956,0,0,0,.267-.713.623.623,0,0,0-.624-.6c-.357,0-.6.417-.6.417s-1.546,2.557-3.152,2.557c-1.1,0-1.606-1.218-1.606-2.855a8.5,8.5,0,0,1,.119-1.487s6.543-9.013,6.543-11.9a2.96,2.96,0,0,0-2.588-2.766c-2.737,0-5.206,4.67-6.573,9.547a3.613,3.613,0,0,0-1.875-.476c-2.607,0-6.664,3.083-7.041,7.594-.409.6-1.707,2.341-3.039,2.341-.6,0-.951-.446-.951-1.13,0-2.142,1.575-4.462,1.575-6.247a2.8,2.8,0,0,0-2.528-2.559,8.033,8.033,0,0,0-4.67,1.9c-.922-1.427-1.636-1.606-2.082-1.606a.858.858,0,0,0-.8.565,38.61,38.61,0,0,0-2.138,6.866c-.494.7-1.707,2.206-2.945,2.206a.8.8,0,0,1-.832-.832c0-2.023,1.725-5.415,1.725-6.306,0-1.041-1.22-1.4-2.113-1.4a3.665,3.665,0,0,0-3.241-1.4c-3.009,0-6.26,3.846-6.766,7.795-.524.724-1.7,2.14-2.9,2.14a.924.924,0,0,1-.982-1.041c0-2.409,2.2-4.937,2.2-6.276a1.318,1.318,0,0,0-1.22-1.427,20.838,20.838,0,0,1-2.468.386c-.714,0-1.249-.208-1.249-.624,0-.476.387-.953.387-1.725A2.123,2.123,0,0,0,28.549,48.9a2.2,2.2,0,0,0-1.726,2.2,2.784,2.784,0,0,0,.982,2.2,18.413,18.413,0,0,1-2.588,5.3A1.585,1.585,0,0,0,24.89,59.314ZM81.455,43.937c.267,0,.415.208.415.505,0,2.588-4.729,10.173-4.729,10.173C78.182,49.409,80.443,43.937,81.455,43.937Zm-8.329,8.952a1.14,1.14,0,0,1,.833.476,40.8,40.8,0,0,0-.507,5.3s-2.023,2.468-3.271,2.468c-.684,0-1.1-.624-1.1-1.7C69.081,56.995,71.223,52.888,73.126,52.888Zm-29.113.06c.594,0,1.07.417,1.07,1.279,0,2.291-2.617,6.663-4.045,6.663-.624,0-.862-.476-.862-1.339C40.176,57.054,42.288,52.948,44.013,52.948Z" fill="#fff"/><path d="M8.815,73.928v5.293h.8V77.227h.46a1.2,1.2,0,0,0,.885-.372,1.235,1.235,0,0,0,.365-.9v-.77A1.272,1.272,0,0,0,11,74.3a1.215,1.215,0,0,0-.929-.367Zm1.612.941a.459.459,0,0,1,.124.334v.774a.448.448,0,0,1-.133.325.436.436,0,0,1-.323.135H9.613V74.743h.481A.446.446,0,0,1,10.426,74.869Z" fill="#fff"/><path d="M23.4,75.19a1.334,1.334,0,0,0-.274-.894,1.216,1.216,0,0,0-.98-.367H20.882v5.293h.8V77.227h.532l.484,1.994h.863l-.592-2.312a1.234,1.234,0,0,0,.427-.95Zm-.778.787a.448.448,0,0,1-.133.325.436.436,0,0,1-.323.135h-.481V74.743h.481a.4.4,0,0,1,.456.46Z" fill="#fff"/><polygon points="35.438 74.726 35.438 73.924 33.166 73.924 33.166 79.221 35.438 79.221 35.438 78.418 33.964 78.418 33.964 76.973 35.041 76.973 35.041 76.17 33.964 76.17 33.964 74.726 35.438 74.726" fill="#fff"/><polygon points="48.613 79.221 48.613 73.924 47.513 73.924 46.798 77.728 46.055 73.924 44.909 73.924 44.909 79.221 45.708 79.221 45.708 75.9 46.481 79.221 47.124 79.221 47.816 75.892 47.816 79.221 48.613 79.221" fill="#fff"/><rect x="58.249" y="73.928" width="0.799" height="5.293" fill="#fff"/><path d="M68.679,73.928v4.093a1.254,1.254,0,0,0,1.263,1.257,1.236,1.236,0,0,0,.9-.363,1.2,1.2,0,0,0,.372-.894V73.928h-.832v4.085a.456.456,0,0,1-.457.456.448.448,0,0,1-.325-.134.436.436,0,0,1-.135-.322V73.928Z" fill="#fff"/><polygon points="84.542 79.221 84.542 73.924 83.442 73.924 82.727 77.728 81.984 73.924 80.838 73.924 80.838 79.221 81.637 79.221 81.637 75.9 82.409 79.221 83.053 79.221 83.745 75.892 83.745 79.221 84.542 79.221" fill="#fff"/><polygon points="90.513 89.863 2.787 89.863 2.787 65.617 1.3 65.617 1.3 91.35 92 91.35 92 44.058 90.513 44.058 90.513 89.863" fill="#fff"/><polygon points="1.3 0.65 1.3 38.853 2.787 38.853 2.787 2.137 90.513 2.137 90.513 17.294 92 17.294 92 0.65 1.3 0.65" fill="#fff"/></g></svg>