<svg id="Layer_1" data-name="Layer 1" xmlns="http://www.w3.org/2000/svg" width="92" height="92" viewBox="0 0 92 92"><title>brand_logo_2_92x92</title><g id="brand_logo_2"><path d="M5.9,61.8a1.545,1.545,0,0,0,.291-.79,2.044,2.044,0,0,0-.225-.9,1.552,1.552,0,0,0-.482-.615,1.654,1.654,0,0,0-.71-.3,2.546,2.546,0,0,0-.887.008,4.129,4.129,0,0,0-1.011.326,3.551,3.551,0,0,0-.863.546,2.56,2.56,0,0,0-.575.69,1.948,1.948,0,0,0-.244.761,1.466,1.466,0,0,0,.135.763,1.689,1.689,0,0,0,.529.694,2.368,2.368,0,0,0,.657.324l-.17,1.051A2.622,2.622,0,0,1,.26,62.734a2.478,2.478,0,0,1-.235-1.187,2.89,2.89,0,0,1,.32-1.161,3.7,3.7,0,0,1,.814-1.038,4.876,4.876,0,0,1,1.259-.816,5.056,5.056,0,0,1,1.414-.426,3.594,3.594,0,0,1,1.311.033,2.763,2.763,0,0,1,1.1.505,2.6,2.6,0,0,1,.771.991,2.582,2.582,0,0,1-.183,2.742Z" fill="#fff"/><path d="M9.025,63.744l.586.9-5.17,3.347,1.641,2.535-.9.58L2.961,67.669Z" fill="#fff"/><path d="M8.556,75.457A2.666,2.666,0,0,1,7.972,74.4a2.6,2.6,0,0,1-.052-1.171,3.457,3.457,0,0,1,.485-1.217,5.348,5.348,0,0,1,1.028-1.187,5.413,5.413,0,0,1,1.316-.873,3.469,3.469,0,0,1,1.268-.324,2.593,2.593,0,0,1,1.153.206,2.887,2.887,0,0,1,1.555,1.771,2.56,2.56,0,0,1,.055,1.169,3.454,3.454,0,0,1-.484,1.217,5.384,5.384,0,0,1-1.037,1.191,5.272,5.272,0,0,1-1.308.867,3.435,3.435,0,0,1-1.269.324,2.558,2.558,0,0,1-1.156-.2A2.669,2.669,0,0,1,8.556,75.457Zm.847-.745a1.665,1.665,0,0,0,.6.442,1.6,1.6,0,0,0,.744.124,2.384,2.384,0,0,0,.868-.24,4.178,4.178,0,0,0,.951-.649,3.2,3.2,0,0,0,1.145-1.663,1.744,1.744,0,0,0-1.78-2.026,3.185,3.185,0,0,0-1.8.922,4.167,4.167,0,0,0-.765.859,2.408,2.408,0,0,0-.35.829,1.594,1.594,0,0,0,.027.755A1.667,1.667,0,0,0,9.4,74.712Z" fill="#fff"/><path d="M14.819,81.355l-.905-.753,3.929-4.732L16.38,74.657l.688-.829L20.884,77l-.689.827-1.446-1.2Z" fill="#fff"/><path d="M23.638,83.484l-2.4-1.4-1.6,2.734-.93-.544,3.653-6.232.93.544-1.511,2.578,2.4,1.4,1.511-2.577.93.544-3.654,6.232-.929-.544Z" fill="#fff"/><path d="M28.81,81.483l.993.415L27.02,88.566l-.993-.415Z" fill="#fff"/><path d="M32.565,84.853l-1.38,5.194-1.031-.275,1.855-6.985,1.283.342L34.5,88.782,35.823,83.8l1.04.275-1.854,6.983-1.186-.314Z" fill="#fff"/><path d="M41.037,91.978a2.509,2.509,0,0,1-1.16-.389,2.824,2.824,0,0,1-.844-.861,3.646,3.646,0,0,1-.486-1.222,5,5,0,0,1-.081-1.476,5.257,5.257,0,0,1,.344-1.521,3.485,3.485,0,0,1,.7-1.118,2.6,2.6,0,0,1,2.166-.814,2.927,2.927,0,0,1,1.426.452,2.811,2.811,0,0,1,.9,1.081l-.963.505a1.48,1.48,0,0,0-.536-.643,1.864,1.864,0,0,0-.833-.244,1.647,1.647,0,0,0-1.407.509,3.087,3.087,0,0,0-.667,1.889,4.087,4.087,0,0,0,.036,1.044,2.749,2.749,0,0,0,.287.847,1.765,1.765,0,0,0,.509.59,1.4,1.4,0,0,0,.71.257,1.462,1.462,0,0,0,1.159-.309,1.623,1.623,0,0,0,.468-1.1l-1.385-.12.092-1.073,2.678.23-.042.483a4.1,4.1,0,0,1-.292,1.23,3.159,3.159,0,0,1-.625.983,2.582,2.582,0,0,1-.934.627A2.659,2.659,0,0,1,41.037,91.978Z" fill="#fff"/><path d="M55.494,85.708a1.586,1.586,0,0,0-.686-.491,2.042,2.042,0,0,0-.928-.022,1.569,1.569,0,0,0-.719.3,1.614,1.614,0,0,0-.483.6,2.564,2.564,0,0,0-.228.859,4.133,4.133,0,0,0,.047,1.063,3.586,3.586,0,0,0,.295.977,2.564,2.564,0,0,0,.513.737,1.989,1.989,0,0,0,.668.438,1.474,1.474,0,0,0,.77.073,1.659,1.659,0,0,0,.808-.326,2.3,2.3,0,0,0,.487-.548l.971.444a2.622,2.622,0,0,1-2.121,1.578,2.489,2.489,0,0,1-1.207-.088,2.856,2.856,0,0,1-1.032-.617,3.655,3.655,0,0,1-.784-1.061,4.827,4.827,0,0,1-.452-1.431,5.144,5.144,0,0,1-.037-1.478,3.644,3.644,0,0,1,.383-1.254,2.777,2.777,0,0,1,.776-.922,2.552,2.552,0,0,1,1.16-.48,2.579,2.579,0,0,1,2.594.9Z" fill="#fff"/><path d="M63.075,89.309a2.7,2.7,0,0,1-1.2.145,2.6,2.6,0,0,1-1.106-.393,3.5,3.5,0,0,1-.943-.906A5.85,5.85,0,0,1,58.8,85.207a3.455,3.455,0,0,1,.175-1.3,2.592,2.592,0,0,1,.627-.991,2.885,2.885,0,0,1,2.221-.774,2.555,2.555,0,0,1,1.106.389,3.441,3.441,0,0,1,.943.906A5.839,5.839,0,0,1,64.9,86.386a3.45,3.45,0,0,1-.175,1.3,2.6,2.6,0,0,1-.625.994A2.674,2.674,0,0,1,63.075,89.309ZM62.7,88.244a1.683,1.683,0,0,0,.633-.385,1.59,1.59,0,0,0,.393-.643,2.335,2.335,0,0,0,.1-.894,4.1,4.1,0,0,0-.242-1.124,3.194,3.194,0,0,0-1.108-1.688,1.744,1.744,0,0,0-2.547.886,3.193,3.193,0,0,0,.179,2.012,4.1,4.1,0,0,0,.509,1.032,2.316,2.316,0,0,0,.635.635,1.589,1.589,0,0,0,.709.261A1.673,1.673,0,0,0,62.7,88.244Z" fill="#fff"/><path d="M70.338,79.948l1.036,5.42-.051.029-4.316-3.514,2.63,4.5-.928.542-3.648-6.236,1.285-.751,3.579,3.011-.9-4.581,1.209-.706L73.886,83.9l-.922.538Z" fill="#fff"/><path d="M75.48,79.062l1.859,2.156-.816.7-4.715-5.473,1.93-1.661a2.929,2.929,0,0,1,.778-.491,1.96,1.96,0,0,1,.812-.159,1.8,1.8,0,0,1,.8.21,2.574,2.574,0,0,1,.755.627,2.07,2.07,0,0,1,.588,1.629,2.34,2.34,0,0,1-.878,1.5Zm-2.152-2.5,1.458,1.692,1.181-1.016a.969.969,0,0,0,.13-1.547,1,1,0,0,0-1.588-.147Z" fill="#fff"/><path d="M83.16,73.4l-1.729,2.016.8,1.195-.761.886L77.38,71.173l.977-1.14,6.865,3.1L84.475,74Zm-2.343,1.095,1.336-1.56-3.463-1.6Z" fill="#fff"/><path d="M82.8,67.15l4.583,2.8-.556.908-6.163-3.769.694-1.134,5.758.456-4.394-2.683.562-.92,6.163,3.767-.641,1.046Z" fill="#fff"/><path d="M92,61.075,91.53,62.2,89,61.138l-4.958.218.472-1.122,3.714-.086-2.539-2.714.464-1.1,3.3,3.677Z" fill="#fff"/><path d="M75.792,43.748a1.015,1.015,0,1,0,1.114,1.007A1.013,1.013,0,0,0,75.792,43.748Z" fill="#fff" fill-rule="evenodd"/><path d="M19.436,43.791H18.357v3.575h1.079a1.788,1.788,0,0,0,0-3.575Z" fill="#fff" fill-rule="evenodd"/><path d="M79.881,45.835c-.727,0-1.093.41-1.093.806s.366.827,1.093.827,1.1-.439,1.1-.827S80.622,45.835,79.881,45.835Z" fill="#fff" fill-rule="evenodd"/><path d="M79.881,45.165a.8.8,0,0,0,.891-.755A.9.9,0,0,0,79,44.417.8.8,0,0,0,79.881,45.165Z" fill="#fff" fill-rule="evenodd"/><path d="M34.961,75.37a2.067,2.067,0,0,1-.8-.144,1.606,1.606,0,0,1-.591-.408,1.806,1.806,0,0,1-.371-.64,2.56,2.56,0,0,1-.128-.837V69.858h.8v3.482a1.279,1.279,0,0,0,.291.956,1.117,1.117,0,0,0,.792.272,1,1,0,0,0,.745-.272,1.348,1.348,0,0,0,.269-.956V69.858h.8v3.482a2.787,2.787,0,0,1-.117.83,1.814,1.814,0,0,1-.348.643,1.5,1.5,0,0,1-.572.412A1.982,1.982,0,0,1,34.961,75.37Z" fill="#fff"/><path d="M40.351,75.294a.358.358,0,0,1-.311-.163.656.656,0,0,1-.113-.383.671.671,0,0,1,.113-.394.363.363,0,0,1,.311-.159.392.392,0,0,1,.307.159.6.6,0,0,1,.132.394.584.584,0,0,1-.132.383A.386.386,0,0,1,40.351,75.294Z" fill="#fff"/><path d="M44.364,74.121a2.614,2.614,0,0,0,.591.3,2.153,2.153,0,0,0,.757.122,1.141,1.141,0,0,0,.677-.187.592.592,0,0,0,.262-.51.664.664,0,0,0-.266-.519,5.038,5.038,0,0,0-.7-.473q-.3-.172-.644-.383a2.718,2.718,0,0,1-.613-.5,1.271,1.271,0,0,1-.258-.39,1.434,1.434,0,0,1-.076-.51,1.122,1.122,0,0,1,.137-.56,1.231,1.231,0,0,1,.36-.4,1.6,1.6,0,0,1,.518-.248,2.251,2.251,0,0,1,.614-.083,3.8,3.8,0,0,1,.466.028,2.978,2.978,0,0,1,.416.076,1.761,1.761,0,0,1,.342.12.872.872,0,0,1,.237.163L46.962,71a1.516,1.516,0,0,0-.5-.274,2.141,2.141,0,0,0-.677-.1,1.234,1.234,0,0,0-.64.148.476.476,0,0,0-.246.436.4.4,0,0,0,.091.238,1.236,1.236,0,0,0,.231.222,2.7,2.7,0,0,0,.3.2c.108.063.213.12.314.17.232.131.446.257.644.379a3.164,3.164,0,0,1,.51.383,1.612,1.612,0,0,1,.34.438,1.145,1.145,0,0,1,.126.549,1.544,1.544,0,0,1-.137.656,1.456,1.456,0,0,1-.373.5,1.683,1.683,0,0,1-.566.314,2.2,2.2,0,0,1-.7.109,3.169,3.169,0,0,1-.95-.128,2.666,2.666,0,0,1-.693-.327Z" fill="#fff"/><path d="M51.095,75.294a.358.358,0,0,1-.311-.163.649.649,0,0,1-.113-.383.664.664,0,0,1,.113-.394.363.363,0,0,1,.311-.159.393.393,0,0,1,.307.159.6.6,0,0,1,.133.394.585.585,0,0,1-.133.383A.387.387,0,0,1,51.095,75.294Z" fill="#fff"/><path d="M57.781,74.25h-2l-.287,1.044h-.878l1.6-5.436h1.128l1.6,5.436h-.861Zm-1.773-.8h1.545l-.78-2.763Z" fill="#fff"/><path d="M5.916,26.224,4.491,28.4l.934,1.06-.628.955L.021,24.789l.8-1.227L7.886,25.7l-.617.941ZM3.779,27.581l1.1-1.682L1.314,24.776Z" fill="#fff"/><path d="M10.715,22.5a2.673,2.673,0,0,1-.827.65,2.127,2.127,0,0,1-.909.221,2.33,2.33,0,0,1-.943-.192,3.345,3.345,0,0,1-.927-.6L3.72,19.569l.7-.781L7.8,21.8a1.651,1.651,0,0,0,1.181.541,1.442,1.442,0,0,0,.949-.534,1.31,1.31,0,0,0,.38-.962,1.759,1.759,0,0,0-.7-1.086L6.225,16.746l.7-.782,3.391,3.011a3.638,3.638,0,0,1,.706.832,2.329,2.329,0,0,1,.325.894,2.02,2.02,0,0,1-.091.914A2.61,2.61,0,0,1,10.715,22.5Z" fill="#fff"/><path d="M16.157,17.186l-.891.733L11.44,13.268,10,14.452l-.67-.814,3.751-3.088.67.814L12.33,12.535Z" fill="#fff"/><path d="M21.159,10.126l-2.351,1.367,1.559,2.685-.911.529L15.9,8.588l.913-.529,1.472,2.531,2.351-1.368-1.47-2.531.909-.53,3.56,6.118-.913.531Z" fill="#fff"/><path d="M23.508,4.559,27.026,3.19l.383.983-2.535.985L25.553,6.9l1.588-.619.379.975-1.591.618.747,1.92,2.537-.987.378.974-3.518,1.368Z" fill="#fff"/><path d="M31.918,3.627,33.09,8.758l-1.019.233-1.578-6.9L31.762,1.8l3.625,4.348L34.26,1.23,35.289.995l1.58,6.9-1.175.268Z" fill="#fff"/><path d="M42.164,7.272l-1.149.1-.54-6-1.857.167L38.525.494,43.364.057l.1,1.051-1.836.166Z" fill="#fff"/><path d="M46.83.011l1.051.082-.547,7.057-1.052-.081Z" fill="#fff"/><path d="M55.065,2.768a1.53,1.53,0,0,0-.489-.664,2,2,0,0,0-.857-.305,1.551,1.551,0,0,0-.762.061,1.6,1.6,0,0,0-.633.414A2.4,2.4,0,0,0,51.849,3a4.069,4.069,0,0,0-.283,1,3.506,3.506,0,0,0-.023,1,2.508,2.508,0,0,0,.252.842,1.928,1.928,0,0,0,.487.611,1.447,1.447,0,0,0,.7.3,1.635,1.635,0,0,0,.849-.056,2.238,2.238,0,0,0,.622-.362l.768.71a2.572,2.572,0,0,1-2.457.822,2.428,2.428,0,0,1-1.1-.452,2.808,2.808,0,0,1-.772-.891,3.579,3.579,0,0,1-.406-1.226,4.723,4.723,0,0,1,.017-1.47,5.008,5.008,0,0,1,.416-1.386A3.629,3.629,0,0,1,51.661,1.4,2.715,2.715,0,0,1,52.668.78,2.493,2.493,0,0,1,53.892.688a2.522,2.522,0,0,1,2.139,1.634Z" fill="#fff"/><path d="M66.587,4.262a2.026,2.026,0,0,1,.607.374,1.731,1.731,0,0,1,.414.558,1.789,1.789,0,0,1,.16.7,2.061,2.061,0,0,1-.158.808,1.7,1.7,0,0,1-.451.664,1.774,1.774,0,0,1-.645.353,1.394,1.394,0,0,1,.547.77,1.626,1.626,0,0,1,.06.559,2.144,2.144,0,0,1-.158.662,2.074,2.074,0,0,1-1.142,1.25A2.406,2.406,0,0,1,64,10.853l-2.162-.862,2.619-6.575ZM63.209,9.411l1.365.544a.943.943,0,0,0,.751,0,1.053,1.053,0,0,0,.545-.621,1.028,1.028,0,0,0,.04-.78.906.906,0,0,0-.547-.5L63.974,7.5Zm2.312-2.421a.644.644,0,0,0,.333.043.875.875,0,0,0,.314-.108,1.09,1.09,0,0,0,.264-.224,1.065,1.065,0,0,0,.185-.3.956.956,0,0,0,.027-.694.726.726,0,0,0-.429-.452l-1.163-.464-.693,1.741Z" fill="#fff"/><path d="M71.67,11.531l-1.086-.642-1.417,2.4-.909-.536,3.6-6.095L74,7.929a2.227,2.227,0,0,1,1.142,1.332,2.168,2.168,0,0,1-.323,1.645,2.093,2.093,0,0,1-.953.9,1.879,1.879,0,0,1-1.194.1l-.345,3.255-.992-.586Zm.556-3.426L71.113,9.99l1.317.777a.949.949,0,0,0,1.475-.366.974.974,0,0,0-.362-1.518Z" fill="#fff"/><path d="M77.9,17.819,75.9,16.146l-1.161.8-.876-.736,6.15-4.078,1.124.943-2.956,6.76-.863-.723Zm-1.1-2.284,1.54,1.293,1.536-3.41Z" fill="#fff"/><path d="M84.37,18.761l-4.011,3.408-.68-.8,5.4-4.583.843.993L83.73,23l3.847-3.267.684.8-5.4,4.583-.78-.917Z" fill="#fff"/><path d="M84.408,27.276l6.075-3.635,1.017,1.7a3.412,3.412,0,0,1,.472,1.293,3.059,3.059,0,0,1-.09,1.271,3.327,3.327,0,0,1-.608,1.151,4.034,4.034,0,0,1-1.082.929,4.167,4.167,0,0,1-1.411.548,3.271,3.271,0,0,1-1.327-.028A3.086,3.086,0,0,1,86.3,29.95a3.6,3.6,0,0,1-.9-1.025Zm5.711-2.187-4.255,2.546.366.609a2.7,2.7,0,0,0,.684.786,2.155,2.155,0,0,0,.838.394,2.367,2.367,0,0,0,.928.013,2.763,2.763,0,0,0,.949-.368,3.008,3.008,0,0,0,.791-.656,2.072,2.072,0,0,0,.424-.8,2.11,2.11,0,0,0,.033-.916,2.92,2.92,0,0,0-.393-1Z" fill="#fff"/><path d="M91.931,43.418a1.523,1.523,0,0,0-1.066-1.374L46.454,27.911a1.524,1.524,0,0,0-.925,0L1.113,42.045A1.523,1.523,0,0,0,.048,43.419Q0,44.442,0,45.477t.047,2.051A1.524,1.524,0,0,0,1.113,48.9L45.529,63.037a1.524,1.524,0,0,0,.925,0L90.866,48.9a1.523,1.523,0,0,0,1.066-1.374q.046-1.021.048-2.053T91.931,43.418ZM9.212,48.093H6.141V43.065H9.205v.726H6.874v1.418H9.155v.733H6.874v1.425H9.212Zm2.269.044a1.728,1.728,0,0,1-1.813-1.361l-.007-.136.734-.015.007.108V46.7c.051.467.618.712,1.086.712.539,0,1.129-.3,1.129-.82a.828.828,0,0,0-.022-.173c-.086-.381-.6-.446-1.107-.5-.784-.079-1.7-.252-1.783-1.3v0a1.361,1.361,0,0,1,.273-.952,1.942,1.942,0,0,1,1.525-.669,1.6,1.6,0,0,1,1.712,1.323l-.72.029a.965.965,0,0,0-1.028-.64,1.2,1.2,0,0,0-.914.381.661.661,0,0,0-.122.468c.036.518.6.582,1.143.633.691.086,1.547.266,1.741,1.072a1.768,1.768,0,0,1,.036.331A1.718,1.718,0,0,1,11.481,48.137Zm5.6-4.346H15.563v4.323h-.726V43.791H13.312v-.733h3.769Zm2.355,4.3H17.63V43.065h1.806a2.514,2.514,0,0,1,0,5.028Zm13.21,1.38v-.316c3,.2,4.064-1,4.064-2.309A2.394,2.394,0,0,0,35.16,44.84a5.989,5.989,0,0,1-1.138.111v-.316c1.85,0,4.016-1.154,4.016-3.147,0-1.549-1.518-2.434-4.238-2.466-.174,1.17-.7,5.012-1.328,8.095a4.416,4.416,0,0,1-4.285,3.653v-.3c1.613-.143,1.581-.411,1.976-2.626L31.681,39.1c-4.316.364-6.767,1.914-6.767,4.348a1.93,1.93,0,0,0,.569,1.392,3.838,3.838,0,0,0,2.561.791v.332a3.894,3.894,0,0,1-2.767-.886,2.133,2.133,0,0,1-.664-1.629c0-3.02,3.288-4.728,9.043-4.728,3.432,0,4.728,1.154,4.728,2.767,0,1.408-1,2.641-2.8,3.194,1.929.221,2.909.9,2.909,2.039C38.5,49.236,34.464,49.473,32.645,49.473ZM43.9,46.627h-.38c0-1.138,1.36-2.024,1.36-3.1,0-.838-.38-.964-.806-.964-1.313,0-2.056,2.466-2.1,2.625V45.2L41.4,48.35h-1.9l1.043-5.834a1.149,1.149,0,0,0-.79.443l-.237-.19a1.505,1.505,0,0,1,1.185-.569c.98,0,1.518.506,1.518,1.392v.095c.491-1.027,1.06-1.486,1.851-1.486.822,0,1.217.38,1.217,1.265C45.292,44.714,43.9,45.631,43.9,46.627Zm7.935,1.107.237.189a1.506,1.506,0,0,1-1.186.568,1.326,1.326,0,0,1-1.517-1.217A2.1,2.1,0,0,1,47.6,48.492a2.183,2.183,0,0,1-2.293-2.434c0-2.467,1.344-3.858,3.178-3.858a1.5,1.5,0,0,1,1.534,1.091c.048-.3.094-.569.174-.949a11.159,11.159,0,0,0,1.944-.142l-1.091,5.977A1.15,1.15,0,0,0,51.836,47.734Zm6.623.758c-.949,0-1.439-.458-1.439-1.3,0-1.076.57-2.91.57-3.843,0-.506-.222-.68-.648-.68-.7,0-1.375.98-1.8,2.546L54.6,48.176a1.183,1.183,0,0,0,.806-.442l.237.189a1.506,1.506,0,0,1-1.186.568c-.98,0-1.517-.553-1.517-1.312a12.1,12.1,0,0,1,.253-1.739l.522-2.925a1.154,1.154,0,0,0-.792.443l-.237-.19a1.509,1.509,0,0,1,1.186-.569c.981,0,1.519.506,1.519,1.392v.095A2.107,2.107,0,0,1,57.416,42.2a1.824,1.824,0,0,1,1.976,1.992c0,1-.568,2.625-.633,3.985a1.291,1.291,0,0,0,.792-.442l.237.189A1.428,1.428,0,0,1,58.459,48.492Zm8.9-8.585s-.775,4.348-1.5,8.269a1.153,1.153,0,0,0,.792-.442l.237.189a1.506,1.506,0,0,1-1.186.568c-.9,0-1.439-.427-1.519-1.186a2.079,2.079,0,0,1-1.77,1.186A2.055,2.055,0,0,1,60.2,46.216c0-2.545,1.345-4.016,3.179-4.016a1.587,1.587,0,0,1,1.249.491,1.689,1.689,0,0,1,.237.38l.853-4.649a1.153,1.153,0,0,0-.79.443l-.237-.189a1.507,1.507,0,0,1,1.186-.569c.98,0,1.517.506,1.517,1.391A3.966,3.966,0,0,1,67.361,39.907Zm6.008,8.186h-.719V44.424l-.676.921-.547-.4,1.36-1.914h.582Zm3.969-2.323-1.655,2.323h-.9l1.238-1.755a1.582,1.582,0,0,1-1.229-.079,1.752,1.752,0,0,1,1-3.251,1.732,1.732,0,0,1,1.855,1.748A1.91,1.91,0,0,1,77.339,45.769Zm2.542,2.375c-1.2,0-1.813-.713-1.813-1.512a1.333,1.333,0,0,1,.87-1.173,1.085,1.085,0,0,1-.661-1.036,1.472,1.472,0,0,1,1.6-1.409,1.457,1.457,0,0,1,1.611,1.417,1.177,1.177,0,0,1-.633,1.028,1.258,1.258,0,0,1,.848,1.173A1.615,1.615,0,0,1,79.881,48.144Zm3.989-.051a1.708,1.708,0,0,1-1.719-1.144l.668-.273a1.133,1.133,0,0,0,1.051.683,1.009,1.009,0,0,0,1.107-1.021.968.968,0,0,0-.582-.885,1.884,1.884,0,0,0-1.77.166l-.41-.187v-2.4h3.208v.705H82.949v1.007a2.479,2.479,0,0,1,1.7.029,1.669,1.669,0,0,1,1.058,1.561A1.725,1.725,0,0,1,83.869,48.093Z" fill="#fff" fill-rule="evenodd"/><path d="M48.817,42.6c-1.122,0-1.723,2.514-1.723,4.269,0,1.012.284,1.265.712,1.265.9,0,1.516-1.422,1.643-1.771.063-.3.174-.964.411-2.276C49.8,43.322,49.418,42.6,48.817,42.6Z" fill="#fff" fill-rule="evenodd"/><path d="M63.377,42.5c-.7,0-1.392,2.609-1.392,4.364,0,1.012.206,1.265.633,1.265.916,0,1.534-1.454,1.66-1.786l.459-2.5A1.3,1.3,0,0,0,63.377,42.5Z" fill="#fff" fill-rule="evenodd"/></g></svg>