<svg id="Layer_1" data-name="Layer 1" xmlns="http://www.w3.org/2000/svg" width="108" height="30" viewBox="0 0 108 30"><title>logo_108x30</title><g id="store_logo" data-name="store logo"><path d="M31.077,26.961a6.25,6.25,0,0,1-1.205,3.97,4.342,4.342,0,0,1-2.3,1.577,6.294,6.294,0,0,1-1.861.248,5.266,5.266,0,0,1-3.261-.975,5.445,5.445,0,0,1-1.71-2.171A8.76,8.76,0,0,1,20,26.464l3.19-.23a4.846,4.846,0,0,0,1.028,2.815,1.714,1.714,0,0,0,1.382.624,2.078,2.078,0,0,0,1.755-1.083,2.689,2.689,0,0,0,.336-1.472,4.086,4.086,0,0,0-1.258-2.749l-2.977-2.821A12.7,12.7,0,0,1,21.1,18.656a6.685,6.685,0,0,1-.744-3.122,5.43,5.43,0,0,1,2.038-4.594A5.064,5.064,0,0,1,25.512,10a5.668,5.668,0,0,1,3.066.8,4.608,4.608,0,0,1,1.6,1.737,6.429,6.429,0,0,1,.735,2.57l-3.208.585a3.863,3.863,0,0,0-.78-2.127,1.637,1.637,0,0,0-1.329-.55,1.532,1.532,0,0,0-1.4.815,3.149,3.149,0,0,0-.39,1.631,4.894,4.894,0,0,0,1.312,3.1,11.06,11.06,0,0,0,1.489,1.418q1.17.975,1.542,1.365a11.413,11.413,0,0,1,1.914,2.445,9.344,9.344,0,0,1,.514,1.046A6.092,6.092,0,0,1,31.077,26.961Z" transform="translate(-20 -10)" fill="#4e342e"/><path d="M35.944,13.65H32.382V10.283H42.839V13.65H39.294V32.49H35.944Z" transform="translate(-20 -10)" fill="#4e342e"/><path d="M49.443,10a5.309,5.309,0,0,1,5.317,5.317V27.439a5.308,5.308,0,1,1-10.616,0V15.317A5.309,5.309,0,0,1,49.443,10Zm1.825,5.246a1.905,1.905,0,0,0-1.914-1.914,1.874,1.874,0,0,0-1.365.558,1.831,1.831,0,0,0-.567,1.356V27.4a1.83,1.83,0,0,0,.567,1.356,1.875,1.875,0,0,0,1.365.559A1.906,1.906,0,0,0,51.268,27.4Z" transform="translate(-20 -10)" fill="#4e342e"/><path d="M62,10.283a5.108,5.108,0,0,1,4.112,1.542,5.6,5.6,0,0,1,1.152,3.757v3.226a5.19,5.19,0,0,1-1.79,3.987l2.481,9.694H64.334L62.3,24.125H60.071V32.49H56.721V10.283Zm2,5.353A1.7,1.7,0,0,0,62.091,13.7h-2.02v7.107h2.02a1.831,1.831,0,0,0,1.356-.567A1.874,1.874,0,0,0,64,18.879Z" transform="translate(-20 -10)" fill="#4e342e"/><path d="M69.83,32.49V10.266h9.535v3.367H73.179v6.061H77.7v3.368H73.179v6.061h6.185V32.49Z" transform="translate(-20 -10)" fill="#4e342e"/><path d="M91.1,32.49H81.976V10.283h3.349V29.158H91.1Z" transform="translate(-20 -10)" fill="#4e342e"/><path d="M97.707,10a5.309,5.309,0,0,1,5.317,5.317V27.439a5.308,5.308,0,1,1-10.616,0V15.317A5.309,5.309,0,0,1,97.707,10Zm1.825,5.246a1.905,1.905,0,0,0-1.914-1.914,1.874,1.874,0,0,0-1.365.558,1.831,1.831,0,0,0-.567,1.356V27.4a1.83,1.83,0,0,0,.567,1.356,1.875,1.875,0,0,0,1.365.559A1.906,1.906,0,0,0,99.532,27.4Z" transform="translate(-20 -10)" fill="#4e342e"/><path d="M110.231,32.773a5.309,5.309,0,0,1-5.317-5.3V15.352a5.308,5.308,0,1,1,10.616,0v2.534h-3.473V15.281a1.936,1.936,0,0,0-1.932-1.932,1.831,1.831,0,0,0-1.356.567,1.875,1.875,0,0,0-.558,1.365V27.439a1.905,1.905,0,0,0,1.914,1.914,1.88,1.88,0,0,0,1.365-.557,1.825,1.825,0,0,0,.567-1.352V23.079H110.2V19.712h5.334v7.763a5.294,5.294,0,0,1-5.3,5.3Z" transform="translate(-20 -10)" fill="#4e342e"/><path d="M122.683,10A5.309,5.309,0,0,1,128,15.317V27.439a5.308,5.308,0,1,1-10.616,0V15.317a5.309,5.309,0,0,1,5.3-5.317Zm1.825,5.246a1.905,1.905,0,0,0-1.914-1.914,1.874,1.874,0,0,0-1.365.558,1.831,1.831,0,0,0-.567,1.356V27.4a1.83,1.83,0,0,0,.567,1.356,1.875,1.875,0,0,0,1.365.559,1.906,1.906,0,0,0,1.914-1.914Z" transform="translate(-20 -10)" fill="#4e342e"/><path d="M22.725,37.509a1.013,1.013,0,0,1-.731.539l-.434.037L21.1,38.1v1.778H20V35.224h1.071a5.208,5.208,0,0,1,.824.049,1.122,1.122,0,0,1,.57.217,1.079,1.079,0,0,1,.415.607l.05.248.019.26A1.855,1.855,0,0,1,22.725,37.509Zm-1.1-1.369a1.314,1.314,0,0,0-.477-.068H21.1v1.158h.111a.707.707,0,0,0,.508-.148.691.691,0,0,0,.143-.5A.447.447,0,0,0,21.629,36.14Z" transform="translate(-20 -10)" fill="#4e342e"/><path d="M29.5,39.882a2.556,2.556,0,0,1-.05-.539l-.019-.669a1.213,1.213,0,0,0-.044-.415.411.411,0,0,0-.186-.18l-.117-.025-.112-.025-.285-.012v1.864H27.619V35.224h1.6a1.712,1.712,0,0,1,.291.024,1.525,1.525,0,0,1,.583.174.748.748,0,0,1,.365.446l.068.31.025.242.007.18a1.024,1.024,0,0,1-.13.489,1.663,1.663,0,0,1-.459.483,1.416,1.416,0,0,1,.353.248.584.584,0,0,1,.173.39l.019.657.006.335.019.2a1.007,1.007,0,0,0,.229.483Zm-.248-3.754a1.167,1.167,0,0,0-.564-.093v1.128h.174a.576.576,0,0,0,.452-.149.667.667,0,0,0,.13-.459A.459.459,0,0,0,29.255,36.128Z" transform="translate(-20 -10)" fill="#4e342e"/><path d="M35.339,39.882V35.224h2.54v.91H36.423v.842h1.332v.948H36.423v1.016h1.456v.941Z" transform="translate(-20 -10)" fill="#4e342e"/><path d="M45.776,39.882l.1-3.593-.737,3.593H44.3l-.725-3.593.087,3.593H42.636V35.224h1.524l.155.712.142.713.062.322.062.4.056.347.068.371.019.211a3.311,3.311,0,0,1,.056-.4l.068-.371.13-.768.162-.793.155-.737H46.8v4.658Z" transform="translate(-20 -10)" fill="#4e342e"/><path d="M51.674,39.882V35.224h1.084v4.658Z" transform="translate(-20 -10)" fill="#4e342e"/><path d="M60.483,39.008a1.152,1.152,0,0,1-.415.725,1.574,1.574,0,0,1-1,.26,1.477,1.477,0,0,1-1.016-.31,1.391,1.391,0,0,1-.378-.786q-.062-.372-.062-3.673h1.1v3.357q.05.539.335.538a.383.383,0,0,0,.378-.217q.049-.149.05-3v-.675h1.077v2.731A5.709,5.709,0,0,1,60.483,39.008Z" transform="translate(-20 -10)" fill="#4e342e"/><path d="M68.535,39.882l.1-3.593L67.9,39.882h-.837l-.725-3.593.087,3.593H65.4V35.224h1.524l.155.712.142.713.062.322.062.4.056.347.068.371.019.211a3.311,3.311,0,0,1,.056-.4l.068-.371.13-.768.162-.793.155-.737h1.511v4.658Z" transform="translate(-20 -10)" fill="#4e342e"/><path d="M83.459,38.909a1.166,1.166,0,0,1-.254.583,1.386,1.386,0,0,1-.656.427,2.152,2.152,0,0,1-.6.081,1.894,1.894,0,0,1-.756-.18.921.921,0,0,1-.557-.521,4.4,4.4,0,0,1-.174-.811v-.26c-.008-.05-.015-.1-.019-.149a.49.49,0,0,1-.006-.068l-.019-.372v-.545l.019-.13a.174.174,0,0,0,.006-.044l.007-.186.056-.427a1.4,1.4,0,0,1,.18-.564,1.305,1.305,0,0,1,.408-.4,1.554,1.554,0,0,1,.843-.241,2,2,0,0,1,.868.192,1,1,0,0,1,.545.57l.056.161.031.1.044.192.019.229.018.316H82.449a1.773,1.773,0,0,0-.068-.545q-.111-.322-.266-.322a1.292,1.292,0,0,0-.241.019l-.143.044c-.062.012-.109.111-.142.3a12.713,12.713,0,0,0-.056,1.623,4.425,4.425,0,0,0,.031.694q.086.458.452.459.416,0,.415-.558l.007-.489h1.077A5.273,5.273,0,0,1,83.459,38.909Z" transform="translate(-20 -10)" fill="#4e342e"/><path d="M88.31,39.882V35.224h1.084v3.717H90.7v.941Z" transform="translate(-20 -10)" fill="#4e342e"/><path d="M98.3,37.788l-.013.341-.018.4-.013.211-.025.155a1.357,1.357,0,0,1-.514.849,1.788,1.788,0,0,1-1.022.247,1.408,1.408,0,0,1-1.041-.365,1.749,1.749,0,0,1-.409-.91,8.654,8.654,0,0,1-.056-1.165,8.807,8.807,0,0,1,.056-1.171,1.622,1.622,0,0,1,2.59-.923,1.794,1.794,0,0,1,.44,1.1l.012.409.013.341.006.236Zm-1.1-.595v-.446a1.011,1.011,0,0,0-.142-.613.452.452,0,0,0-.384-.155q-.26,0-.353.459l-.019.2-.006.328v.756l-.006.694a1.333,1.333,0,0,0,.056.446.405.405,0,0,0,.415.26q.316,0,.4-.4a2.738,2.738,0,0,0,.038-.52l.006-.558Z" transform="translate(-20 -10)" fill="#4e342e"/><path d="M104.714,36.134v3.748h-1.091V36.134h-.867v-.91h2.88v.91Z" transform="translate(-20 -10)" fill="#4e342e"/><path d="M112.141,39.882V37.943h-.886v1.939h-1.084V35.224h1.084v1.753h.886V35.224h1.065v4.658Z" transform="translate(-20 -10)" fill="#4e342e"/><path d="M118.045,39.882V35.224h2.54v.91h-1.456v.842h1.332v.948h-1.332v1.016h1.456v.941Z" transform="translate(-20 -10)" fill="#4e342e"/><path d="M127.634,39.609a1.415,1.415,0,0,1-1.077.391,1.3,1.3,0,0,1-1.041-.384,1.44,1.44,0,0,1-.247-.384,1.187,1.187,0,0,1-.05-.161,1,1,0,0,1-.031-.242l.006-.44V38.3h1l.006.347a.552.552,0,0,0,.025.2c.05.2.152.3.31.3a.412.412,0,0,0,.328-.136.694.694,0,0,0,.1-.409c0-.173-.149-.359-.446-.557q-.78-.515-.817-.558a1.373,1.373,0,0,1-.446-1.041,1.325,1.325,0,0,1,.365-.979,1.229,1.229,0,0,1,.9-.365,1.852,1.852,0,0,1,.88.192,1,1,0,0,1,.489.638l.043.241.025.422h-.979a1.54,1.54,0,0,0-.056-.434q-.087-.254-.272-.254a.338.338,0,0,0-.273.117.358.358,0,0,0-.111.248.509.509,0,0,0,.068.26.927.927,0,0,0,.18.229l1.109.756a.929.929,0,0,1,.291.465,2.135,2.135,0,0,1,.081.558A1.49,1.49,0,0,1,127.634,39.609Z" transform="translate(-20 -10)" fill="#4e342e"/></g></svg>