<svg id="Logo" xmlns="http://www.w3.org/2000/svg" xmlns:xlink="http://www.w3.org/1999/xlink" width="60" height="52" viewBox="0 0 60 52"><defs><pattern id="New_Pattern_Swatch_1" data-name="New Pattern Swatch 1" width="60" height="104" patternTransform="translate(15.5 45.5) scale(0.5)" patternUnits="userSpaceOnUse" viewBox="0 0 60 104"><rect width="60" height="104" fill="none"/><polygon points="30 86.68 60.001 69.36 90 86.68 60 104.001 30 86.68" fill="#eee" opacity="0.1"/><polygon points="30 86.68 60 104.001 60.001 138.641 30 121.321 30 86.68" fill="#bdbdbd" opacity="0.1"/><polygon points="-30 86.68 0.001 69.36 30 86.68 0 104.001 -30 86.68" fill="#eee" opacity="0.1"/><polygon points="30 121.321 30 86.68 0 104.001 0.001 138.641 30 121.321" fill="#e0e0e0" opacity="0.1"/><polygon points="0 34.68 30.001 17.36 60 34.68 30 52.001 0 34.68" fill="#eee" opacity="0.1"/><polygon points="0 34.68 30 52.001 30.001 86.641 0 69.321 0 34.68" fill="#bdbdbd" opacity="0.1"/><polygon points="60 69.321 60 34.68 30 52.001 30.001 86.641 60 69.321" fill="#e0e0e0" opacity="0.1"/><polygon points="30 -17.32 60 0.001 60.001 34.641 30 17.321 30 -17.32" fill="#bdbdbd" opacity="0.1"/><polygon points="30 17.321 30 -17.32 0 0.001 0.001 34.641 30 17.321" fill="#e0e0e0" opacity="0.1"/></pattern></defs><title>t-m_pattern</title><rect width="60" height="52" fill="url(#New_Pattern_Swatch_1)"/></svg>