<svg id="Logo" xmlns="http://www.w3.org/2000/svg" xmlns:xlink="http://www.w3.org/1999/xlink" width="100" height="100" viewBox="0 0 100 100"><defs><linearGradient id="linear-gradient" x1="24.342" y1="101.27" x2="67.792" y2="57.819" gradientUnits="userSpaceOnUse"><stop offset="0.157" stop-color="#bdbdbd"/><stop offset="1" stop-color="#757575"/></linearGradient><linearGradient id="linear-gradient-2" x1="30.323" y1="99.989" x2="30.323" y2="72.717" gradientUnits="userSpaceOnUse"><stop offset="0" stop-color="#9e9e9e"/><stop offset="1" stop-color="#757575"/></linearGradient><linearGradient id="linear-gradient-3" x1="65.412" y1="91.668" x2="89.735" y2="67.346" gradientUnits="userSpaceOnUse"><stop offset="0" stop-color="#e0e0e0"/><stop offset="1" stop-color="#9e9e9e"/></linearGradient><linearGradient id="linear-gradient-4" x1="65.741" y1="59.094" x2="81.482" y2="59.094" gradientUnits="userSpaceOnUse"><stop offset="0" stop-color="#eee"/><stop offset="1" stop-color="#fff"/></linearGradient><linearGradient id="linear-gradient-5" x1="18.517" y1="70.464" x2="65.741" y2="70.464" xlink:href="#linear-gradient-4"/><linearGradient id="linear-gradient-6" x1="49.974" y1="31.809" x2="81.456" y2="31.809" xlink:href="#linear-gradient-3"/><linearGradient id="linear-gradient-7" x1="49.974" y1="0" x2="49.974" y2="22.72" xlink:href="#linear-gradient-4"/><linearGradient id="linear-gradient-8" x1="26.816" y1="39.225" x2="46.647" y2="19.394" gradientUnits="userSpaceOnUse"><stop offset="0" stop-color="#bdbdbd"/><stop offset="1" stop-color="#757575"/></linearGradient></defs><title>yn-logo</title><polygon points="18.517 95.445 26.388 99.989 26.388 72.727 73.612 100 73.612 63.638 65.741 59.094 65.741 86.353 18.517 59.094 18.517 95.445" fill="url(#linear-gradient)"/><polygon points="26.388 99.989 34.259 95.445 34.259 77.219 26.388 72.717 26.388 99.989" fill="url(#linear-gradient-2)"/><polygon points="73.638 99.894 81.509 95.35 81.509 59.12 73.638 63.664 73.638 99.894" fill="url(#linear-gradient-3)"/><polygon points="65.741 59.094 73.612 54.55 81.482 59.094 73.612 63.638 65.741 59.094" fill="url(#linear-gradient-4)"/><polygon points="65.741 86.353 65.741 77.299 26.388 54.575 18.517 59.119 65.741 86.353" fill="url(#linear-gradient-5)"/><polygon points="49.974 59.073 57.844 54.532 57.888 27.204 81.456 13.632 81.456 4.544 49.974 22.72 49.974 59.073" fill="url(#linear-gradient-6)"/><polygon points="81.456 4.544 49.974 22.72 18.491 4.544 26.362 0 49.974 13.632 73.586 0 81.456 4.544" fill="url(#linear-gradient-7)"/><polygon points="18.491 4.544 49.974 22.72 49.974 59.073 42.114 54.522 42.103 27.265 18.491 13.632 18.491 4.544" fill="url(#linear-gradient-8)"/></svg>