<svg id="Layer_1" data-name="Layer 1" xmlns="http://www.w3.org/2000/svg" width="120" height="120" viewBox="0 0 120 120"><title>brand_logo_3_120x120</title><g id="brand_logo_3"><path d="M50.444,26.743c-5.664,0-13.5,4.112-13.5,8.922,0,3.065,3.724,5.393,5.819,5.393.5,0,.815-.233.815-.776,0-.5-1.94-1.591-1.94-3.957,0-3.763,5.315-7.255,7.682-7.255,1.436,0,1.669.814,1.669,1.745,0,4.773-5.7,11.484-5.7,16.139,0,2.405,2.677,4.54,5.354,4.54,2.949,0,5.9-2.289,7.642-3.957-.892,2.755-1.744,5.2-2.561,7.255a.845.845,0,0,1-.309.039c-5.975.737-12.26,1.552-12.26,5.625,0,2.522,3.1,5.432,7.138,5.432,5.2,0,8.031-4.035,10.319-10.2A15.474,15.474,0,0,0,67.156,51.8a6.178,6.178,0,0,0,5.59,3.423,7.135,7.135,0,0,0,4.422-1.552,10.742,10.742,0,0,0,1.513.116,8.369,8.369,0,0,0,5.049-1.65,4.354,4.354,0,0,0,3.947,3.086c2.017,0,4.072-1.474,5.314-2.91.466,1.436,1.746,2.91,4.7,2.91,3.841,0,6.672-4.772,6.672-4.772l.022-.04a36.943,36.943,0,0,0,3.735-7.294s2.33.155,2.33.932c0,1.2-2.445,3.88-2.445,7.294,0,2.134,1.979,3.88,4.928,3.88,3.839,0,6.672-4.772,6.672-4.772a2.558,2.558,0,0,0,.348-.932.813.813,0,0,0-.814-.776c-.466,0-.777.543-.777.543s-2.055,3.337-4.15,3.337a1.206,1.206,0,0,1-1.28-1.358c0-3.143,2.869-6.44,2.869-8.187a1.719,1.719,0,0,0-1.589-1.862c-.932,0-1.475.5-3.222.5-.93,0-1.629-.272-1.629-.815,0-.62.5-1.241.5-2.25a2.77,2.77,0,0,0-2.405-2.017,2.871,2.871,0,0,0-2.25,2.87,3.633,3.633,0,0,0,1.28,2.871,23.969,23.969,0,0,1-3.375,6.905c-.033.056-.083.13-.136.212-.479.716-2.225,3.126-4.01,3.126-.777,0-1.242-.582-1.242-1.474,0-3.763,2.212-6.944,2.212-9.273,0-.581-1.9-2.211-3.027-2.211a1.191,1.191,0,0,0-1.087.738c-.93,2.172-2.405,7.953-3.258,9.621-.621,1.241-2.172,2.755-3.415,2.755-.581,0-.892-.544-.892-1.164,0-3.763,2.521-7.41,2.521-9.739,0-.581-1.9-2.211-3.064-2.211a1.175,1.175,0,0,0-1.047.738,51.6,51.6,0,0,0-2.849,9.324,6.139,6.139,0,0,1-4.208,2.2,2.992,2.992,0,0,1-.619-.078A11.052,11.052,0,0,0,81.4,45.4a5.447,5.447,0,0,0-5.7-5.742c-4.005,0-8.924,3.522-8.994,9.952a11.109,11.109,0,0,1-5.315,3.821c1.2-3.724,2.367-8.069,3.725-12.725a46.8,46.8,0,0,1,5.237-11.755c.659-.777.932-1.164.932-1.4,0-.388-.35-.544-1.125-.544a5.641,5.641,0,0,0-4.85,2.561A42.234,42.234,0,0,0,60.57,40.438L60.1,41.873c-1.436,2.057-4.655,6.092-7.1,6.092-1.2,0-1.824-1.048-1.824-2.251,0-3.569,4.926-9.272,4.926-14.548C56.107,28.683,53.587,26.743,50.444,26.743ZM48.891,63.676a1.92,1.92,0,0,1-1.9-1.862c0-1.939,3.414-3.8,7.721-4.617C52.85,61.466,51.065,63.676,48.891,63.676ZM75.733,41.641c.892,0,1.513.7,1.513,2.444a17.823,17.823,0,0,1-1.2,6.052,1.406,1.406,0,0,0-.426-.078c-.621,0-1.941,1.047-1.941,1.9a1.164,1.164,0,0,0,.661.932,1.886,1.886,0,0,1-1.2.465c-1.163,0-1.862-1.086-1.862-2.638C71.27,45.482,73.986,41.641,75.733,41.641Z" fill="#fff"/><path d="M12.725,79.385c2.831,1.511,6.013,2.987,9.5,2.987,4.035,0,8.846-2.172,8.846-7.371,0-4.617-4.307-6.364-4.422-6.4.271-.078,5.625-2.638,5.625-7.177,0-5-5.432-7.527-11.329-7.527-8.263,0-16.489,4.5-16.489,10.279,0,3.066,4.113,4.966,6.169,4.966.544,0,.815-.193.815-.737,0-.5-1.9-1.241-1.9-3.608,0-4.693,4.152-8.689,11.329-8.689,3.492,0,6.906,1.9,6.906,5.431,0,3.84-3.647,5.742-3.647,5.742a9.409,9.409,0,0,0-2.405-.426A1.8,1.8,0,0,0,19.747,68.6,1.84,1.84,0,0,0,21.8,70.265a6.444,6.444,0,0,0,1.979-.464c1.086.116,2.405,1.667,2.405,4.189a5.283,5.283,0,0,1-5.432,5.354c-2.134,0-4.228-1.009-6.363-2.212.311-.5.621-1.008.932-1.589C17.886,71,20.484,63.011,20.95,61.925c.931-2.056,2.25-3.259,2.25-3.569s-.116-.544-.659-.544A9.379,9.379,0,0,0,17.808,59.4c-1.591,1.009-4.423,11.095-6.557,14.976l-.427.737a13.114,13.114,0,0,0-5.858-1.746C2.716,73.369,0,75.078,0,77.949c0,2.716,3.027,4.422,6.207,4.422A8.088,8.088,0,0,0,12.725,79.385ZM3.181,78.26a1.974,1.974,0,0,1,2.057-1.941,9.561,9.561,0,0,1,4.074,1.242C8.147,79.19,7.061,80,5.471,80,4.229,80,3.181,79.307,3.181,78.26Z" fill="#fff"/><path d="M32.465,77.366a.911.911,0,0,0,.815.816,1.136,1.136,0,0,0,.853-.583A36.848,36.848,0,0,0,37.9,70.265s2.328.155,2.328.932c0,1.2-2.444,3.881-2.444,7.294,0,2.134,1.978,3.881,4.927,3.881,2.138,0,3.961-1.478,5.16-2.79a3.836,3.836,0,0,0,3.682,2.79c2.948,0,5.509-3.3,5.509-3.3.273,2.172,1.941,3.3,4.074,3.3a7.082,7.082,0,0,0,4.784-2.393c0,.084-.015.176-.015.259,0,1.242,1.591,2.134,3.646,2.134.544,0,.854-.117.854-.777,0-7.449,3.646-12.066,5.975-12.066a.708.708,0,0,1,.775.621c0,2.328-1.977,5.121-1.977,8.3,0,2.172,1.977,3.919,4.926,3.919,2.339,0,4.3-1.768,5.478-3.152a4.516,4.516,0,0,0,4.14,3.152c3.222,0,6.364-3.8,6.364-3.8a5.1,5.1,0,0,0,4.926,3.8c3.841,0,6.674-4.773,6.674-4.773a2.551,2.551,0,0,0,.348-.93.812.812,0,0,0-.814-.776c-.466,0-.777.544-.777.544s-2.017,3.335-4.112,3.335c-1.436,0-2.095-1.589-2.095-3.724a11.081,11.081,0,0,1,.155-1.939s8.534-11.756,8.534-15.519a3.86,3.86,0,0,0-3.375-3.608c-3.57,0-6.79,6.091-8.574,12.453a4.713,4.713,0,0,0-2.445-.621c-3.4,0-8.692,4.022-9.184,9.9-.534.783-2.226,3.054-3.963,3.054-.777,0-1.241-.581-1.241-1.474,0-2.794,2.055-5.82,2.055-8.148a3.647,3.647,0,0,0-3.3-3.337A10.478,10.478,0,0,0,72.806,69.3C71.6,67.434,70.672,67.2,70.09,67.2a1.119,1.119,0,0,0-1.047.737,50.361,50.361,0,0,0-2.789,8.956c-.645.908-2.226,2.878-3.841,2.878a1.037,1.037,0,0,1-1.085-1.085c0-2.638,2.25-7.063,2.25-8.225,0-1.358-1.591-1.824-2.756-1.824,0,0-1.085-1.824-4.227-1.824-3.924,0-8.165,5.016-8.826,10.167-.684.944-2.22,2.792-3.78,2.792a1.205,1.205,0,0,1-1.28-1.358c0-3.142,2.871-6.439,2.871-8.186a1.719,1.719,0,0,0-1.591-1.862c-.931,0-1.474.5-3.22.5-.932,0-1.63-.271-1.63-.814,0-.621.5-1.242.5-2.25a2.77,2.77,0,0,0-2.405-2.017,2.869,2.869,0,0,0-2.251,2.869,3.631,3.631,0,0,0,1.28,2.871,24.017,24.017,0,0,1-3.375,6.907A2.067,2.067,0,0,0,32.465,77.366Zm73.781-20.057c.348,0,.542.272.542.659,0,3.376-6.169,13.269-6.169,13.269C101.977,64.447,104.926,57.309,106.246,57.309ZM95.382,68.985a1.487,1.487,0,0,1,1.087.621,53.222,53.222,0,0,0-.661,6.907s-2.638,3.22-4.267,3.22c-.892,0-1.436-.814-1.436-2.212C90.106,74.341,92.9,68.985,95.382,68.985Zm-37.974.078c.775,0,1.4.544,1.4,1.669,0,2.989-3.413,8.691-5.277,8.691-.814,0-1.125-.621-1.125-1.746C52.4,74.419,55.159,69.063,57.409,69.063Z" fill="#fff"/><path d="M11.5,96.428v6.9h1.042v-2.6h.6a1.564,1.564,0,0,0,1.154-.485,1.611,1.611,0,0,0,.476-1.169v-1a1.659,1.659,0,0,0-.419-1.167,1.585,1.585,0,0,0-1.212-.479Zm2.1,1.227a.6.6,0,0,1,.162.436V99.1a.584.584,0,0,1-.173.424.568.568,0,0,1-.421.176h-.628v-2.21h.628A.581.581,0,0,1,13.6,97.656Z" fill="#fff"/><path d="M30.516,98.074a1.739,1.739,0,0,0-.358-1.167,1.586,1.586,0,0,0-1.278-.479H27.238v6.9H28.28v-2.6h.694l.632,2.6h1.126l-.772-3.015a1.61,1.61,0,0,0,.557-1.239ZM29.5,99.1a.584.584,0,0,1-.173.424.568.568,0,0,1-.421.176H28.28v-2.21h.628a.528.528,0,0,1,.595.6Z" fill="#fff"/><polygon points="46.224 97.468 46.224 96.423 43.26 96.423 43.26 103.332 46.224 103.332 46.224 102.284 44.301 102.284 44.301 100.4 45.706 100.4 45.706 99.353 44.301 99.353 44.301 97.468 46.224 97.468" fill="#fff"/><polygon points="63.409 103.332 63.409 96.423 61.973 96.423 61.041 101.385 60.072 96.423 58.577 96.423 58.577 103.332 59.619 103.332 59.619 99 60.627 103.332 61.465 103.332 62.369 98.989 62.369 103.332 63.409 103.332" fill="#fff"/><rect x="75.977" y="96.428" width="1.042" height="6.903" fill="#fff"/><path d="M89.581,96.428v5.339a1.636,1.636,0,0,0,1.648,1.64,1.612,1.612,0,0,0,1.169-.474,1.569,1.569,0,0,0,.485-1.167V96.428H91.8v5.328a.595.595,0,0,1-.6.595.585.585,0,0,1-.424-.174.568.568,0,0,1-.176-.42V96.428Z" fill="#fff"/><polygon points="110.273 103.332 110.273 96.423 108.837 96.423 107.905 101.385 106.936 96.423 105.441 96.423 105.441 103.332 106.483 103.332 106.483 99 107.49 103.332 108.329 103.332 109.233 98.989 109.233 103.332 110.273 103.332" fill="#fff"/><polygon points="118.061 117.213 3.635 117.213 3.635 85.588 1.696 85.588 1.696 119.152 120 119.152 120 57.466 118.061 57.466 118.061 117.213" fill="#fff"/><polygon points="1.696 0.848 1.696 50.678 3.635 50.678 3.635 2.787 118.061 2.787 118.061 22.557 120 22.557 120 0.848 1.696 0.848" fill="#fff"/></g></svg>