<svg id="Layer_1" data-name="Layer 1" xmlns="http://www.w3.org/2000/svg" width="126" height="35" viewBox="0 0 126 35"><title>logo_126x35</title><g id="store_logo" data-name="store logo"><path d="M166.923,319.787a7.292,7.292,0,0,1-1.406,4.631,5.065,5.065,0,0,1-2.688,1.84,7.342,7.342,0,0,1-2.171.289,6.144,6.144,0,0,1-3.8-1.137,6.353,6.353,0,0,1-2-2.532,10.22,10.22,0,0,1-.858-3.67l3.721-.269a5.653,5.653,0,0,0,1.2,3.284,2,2,0,0,0,1.613.728,2.425,2.425,0,0,0,2.047-1.263,3.138,3.138,0,0,0,.392-1.717,4.767,4.767,0,0,0-1.468-3.208l-3.473-3.291a14.813,14.813,0,0,1-2.75-3.373,7.8,7.8,0,0,1-.869-3.643,6.335,6.335,0,0,1,2.377-5.36,5.908,5.908,0,0,1,3.639-1.1,6.612,6.612,0,0,1,3.577.93,5.376,5.376,0,0,1,1.871,2.026,7.5,7.5,0,0,1,.858,3l-3.743.682a4.507,4.507,0,0,0-.91-2.481,1.909,1.909,0,0,0-1.55-.641,1.787,1.787,0,0,0-1.634.951,3.674,3.674,0,0,0-.455,1.9,5.709,5.709,0,0,0,1.53,3.618,12.9,12.9,0,0,0,1.737,1.654q1.365,1.138,1.8,1.592a13.316,13.316,0,0,1,2.233,2.853,10.9,10.9,0,0,1,.6,1.22A7.107,7.107,0,0,1,166.923,319.787Z" transform="translate(-154 -300)" fill="#4e342e"/><path d="M172.6,304.259h-4.156V300.33h12.2v3.928H176.51v21.979H172.6Z" transform="translate(-154 -300)" fill="#4e342e"/><path d="M188.35,300a6.194,6.194,0,0,1,6.2,6.2v14.143a6.192,6.192,0,1,1-12.385,0V306.2a6.194,6.194,0,0,1,6.182-6.2Zm2.129,6.12a2.223,2.223,0,0,0-2.232-2.233,2.186,2.186,0,0,0-1.592.651,2.136,2.136,0,0,0-.662,1.582V320.3a2.135,2.135,0,0,0,.662,1.581,2.187,2.187,0,0,0,1.592.652,2.224,2.224,0,0,0,2.232-2.233Z" transform="translate(-154 -300)" fill="#4e342e"/><path d="M203,300.33a5.959,5.959,0,0,1,4.8,1.8,6.536,6.536,0,0,1,1.344,4.383v3.763a6.055,6.055,0,0,1-2.088,4.652l2.894,11.31h-4.226l-2.369-9.759h-2.606v9.759h-3.908V300.33Zm2.336,6.245a1.983,1.983,0,0,0-2.233-2.254h-2.357v8.291h2.357a2.136,2.136,0,0,0,1.582-.662,2.186,2.186,0,0,0,.651-1.592Z" transform="translate(-154 -300)" fill="#4e342e"/><path d="M212.135,326.238V300.31h11.124v3.928h-7.216v7.071h5.272v3.929h-5.272v7.071h7.216v3.928Z" transform="translate(-154 -300)" fill="#4e342e"/><path d="M236.953,326.238H226.3V300.33h3.908v22.021h6.741Z" transform="translate(-154 -300)" fill="#4e342e"/><path d="M244.658,300a6.194,6.194,0,0,1,6.2,6.2v14.143a6.192,6.192,0,1,1-12.385,0V306.2a6.194,6.194,0,0,1,6.182-6.2Zm2.129,6.12a2.223,2.223,0,0,0-2.232-2.233,2.186,2.186,0,0,0-1.592.651,2.136,2.136,0,0,0-.662,1.582V320.3a2.135,2.135,0,0,0,.662,1.581,2.187,2.187,0,0,0,1.592.652,2.224,2.224,0,0,0,2.232-2.233Z" transform="translate(-154 -300)" fill="#4e342e"/><path d="M259.269,326.569a6.194,6.194,0,0,1-6.2-6.182V306.244a6.192,6.192,0,1,1,12.385,0V309.2H261.4v-3.039a2.259,2.259,0,0,0-2.254-2.254,2.136,2.136,0,0,0-1.582.662,2.187,2.187,0,0,0-.651,1.592v14.184a2.223,2.223,0,0,0,2.233,2.233,2.193,2.193,0,0,0,1.592-.65,2.129,2.129,0,0,0,.662-1.577v-5.093h-2.171V311.33h6.223v9.056a6.176,6.176,0,0,1-6.182,6.182Z" transform="translate(-154 -300)" fill="#4e342e"/><path d="M273.8,300a6.194,6.194,0,0,1,6.2,6.2v14.143a6.192,6.192,0,1,1-12.385,0V306.2A6.194,6.194,0,0,1,273.8,300Zm2.129,6.12a2.223,2.223,0,0,0-2.232-2.233,2.186,2.186,0,0,0-1.592.651,2.136,2.136,0,0,0-.662,1.582V320.3a2.135,2.135,0,0,0,.662,1.581,2.187,2.187,0,0,0,1.592.652,2.224,2.224,0,0,0,2.232-2.233Z" transform="translate(-154 -300)" fill="#4e342e"/><path d="M157.18,332.094a1.182,1.182,0,0,1-.853.629l-.506.043-.542.022v2.074H154v-5.435h1.25a6.076,6.076,0,0,1,.961.057,1.309,1.309,0,0,1,.665.253,1.259,1.259,0,0,1,.484.708l.058.289.022.3A2.165,2.165,0,0,1,157.18,332.094Zm-1.279-1.6a1.533,1.533,0,0,0-.557-.08h-.065v1.352h.13A.825.825,0,0,0,156,331.6a.807.807,0,0,0,.167-.579A.522.522,0,0,0,155.9,330.5Z" transform="translate(-154 -300)" fill="#4e342e"/><path d="M165.086,334.862a2.982,2.982,0,0,1-.058-.629l-.022-.781a1.415,1.415,0,0,0-.051-.484.48.48,0,0,0-.217-.21l-.137-.029-.131-.029-.332-.014v2.175h-1.25v-5.435h1.872a2,2,0,0,1,.339.028,1.779,1.779,0,0,1,.68.2.873.873,0,0,1,.426.52l.079.361.029.282.008.21a1.2,1.2,0,0,1-.152.571,1.94,1.94,0,0,1-.535.563,1.652,1.652,0,0,1,.412.289.681.681,0,0,1,.2.455l.022.766.007.39.022.231a1.174,1.174,0,0,0,.267.564Zm-.289-4.379a1.361,1.361,0,0,0-.658-.109v1.316h.2a.672.672,0,0,0,.527-.174.778.778,0,0,0,.152-.535A.535.535,0,0,0,164.8,330.483Z" transform="translate(-154 -300)" fill="#4e342e"/><path d="M171.9,334.862v-5.435h2.963v1.062h-1.7v.982h1.553v1.106H173.16v1.186h1.7v1.1Z" transform="translate(-154 -300)" fill="#4e342e"/><path d="M184.072,334.862l.116-4.192-.86,4.192h-.976l-.846-4.192.1,4.192h-1.2v-5.435h1.778l.181.831.166.831.073.375.072.463.065.4.08.433.022.246a3.863,3.863,0,0,1,.065-.47l.079-.433.152-.9.188-.925.181-.86h1.763v5.435Z" transform="translate(-154 -300)" fill="#4e342e"/><path d="M190.953,334.862v-5.435h1.265v5.435Z" transform="translate(-154 -300)" fill="#4e342e"/><path d="M201.23,333.843a1.344,1.344,0,0,1-.484.846,1.837,1.837,0,0,1-1.164.3,1.724,1.724,0,0,1-1.185-.361,1.623,1.623,0,0,1-.441-.918q-.072-.434-.072-4.285h1.279v3.917q.058.629.39.628a.447.447,0,0,0,.441-.253q.057-.174.058-3.5v-.788h1.257v3.187A6.66,6.66,0,0,1,201.23,333.843Z" transform="translate(-154 -300)" fill="#4e342e"/><path d="M210.625,334.862l.116-4.192-.86,4.192H208.9l-.846-4.192.1,4.192h-1.2v-5.435h1.778l.181.831.166.831.073.375.072.463.065.4.08.433.022.246a3.863,3.863,0,0,1,.065-.47l.079-.433.152-.9.188-.925.181-.86h1.763v5.435Z" transform="translate(-154 -300)" fill="#4e342e"/><path d="M228.036,333.727a1.36,1.36,0,0,1-.3.68,1.617,1.617,0,0,1-.766.5,2.511,2.511,0,0,1-.7.095,2.209,2.209,0,0,1-.882-.21,1.074,1.074,0,0,1-.65-.608,5.13,5.13,0,0,1-.2-.946v-.3c-.01-.058-.017-.116-.022-.174a.571.571,0,0,1-.007-.079l-.022-.434v-.636l.022-.152a.2.2,0,0,0,.007-.051l.008-.217.065-.5a1.631,1.631,0,0,1,.21-.658,1.523,1.523,0,0,1,.476-.47,1.813,1.813,0,0,1,.983-.282,2.328,2.328,0,0,1,1.012.224,1.163,1.163,0,0,1,.636.665l.065.188.036.116.051.224.022.267.021.368h-1.243a2.069,2.069,0,0,0-.08-.636q-.129-.376-.311-.376a1.507,1.507,0,0,0-.282.022l-.167.051c-.072.014-.128.13-.166.347a14.831,14.831,0,0,0-.065,1.894,5.162,5.162,0,0,0,.036.81q.1.535.527.535.485,0,.484-.651l.008-.571H228.1A6.152,6.152,0,0,1,228.036,333.727Z" transform="translate(-154 -300)" fill="#4e342e"/><path d="M233.7,334.862v-5.435h1.265v4.336h1.524v1.1Z" transform="translate(-154 -300)" fill="#4e342e"/><path d="M245.353,332.42l-.015.4-.021.47-.015.246-.029.181a1.583,1.583,0,0,1-.6.99,2.086,2.086,0,0,1-1.192.289,1.642,1.642,0,0,1-1.215-.426,2.041,2.041,0,0,1-.477-1.062,10.1,10.1,0,0,1-.065-1.359,10.275,10.275,0,0,1,.065-1.366,1.893,1.893,0,0,1,3.021-1.076,2.094,2.094,0,0,1,.513,1.286l.014.477.015.4.007.275Zm-1.287-.694v-.52a1.18,1.18,0,0,0-.166-.716.527.527,0,0,0-.448-.181q-.3,0-.412.535l-.022.231-.007.383v.882l-.007.81a1.555,1.555,0,0,0,.065.52.473.473,0,0,0,.484.3q.368,0,.462-.462a3.2,3.2,0,0,0,.044-.607l.007-.651Z" transform="translate(-154 -300)" fill="#4e342e"/><path d="M252.832,330.49v4.372H251.56V330.49h-1.011v-1.062h3.36v1.062Z" transform="translate(-154 -300)" fill="#4e342e"/><path d="M261.5,334.862V332.6h-1.033v2.262H259.2v-5.435h1.265v2.045H261.5v-2.045h1.243v5.435Z" transform="translate(-154 -300)" fill="#4e342e"/><path d="M268.386,334.862v-5.435h2.963v1.062h-1.7v.982H271.2v1.106H269.65v1.186h1.7v1.1Z" transform="translate(-154 -300)" fill="#4e342e"/><path d="M279.573,334.544a1.651,1.651,0,0,1-1.257.456,1.515,1.515,0,0,1-1.215-.448,1.68,1.68,0,0,1-.289-.448,1.385,1.385,0,0,1-.058-.188,1.169,1.169,0,0,1-.036-.282l.007-.513v-.108H277.9l.007.4a.644.644,0,0,0,.029.231c.058.236.178.354.361.354a.48.48,0,0,0,.383-.159.81.81,0,0,0,.116-.477c0-.2-.174-.419-.521-.65q-.91-.6-.954-.651a1.6,1.6,0,0,1-.521-1.214,1.545,1.545,0,0,1,.426-1.142,1.434,1.434,0,0,1,1.055-.426,2.161,2.161,0,0,1,1.027.224,1.172,1.172,0,0,1,.571.745l.05.282.029.492h-1.142a1.8,1.8,0,0,0-.065-.506q-.1-.3-.318-.3a.394.394,0,0,0-.318.137.418.418,0,0,0-.13.289.594.594,0,0,0,.079.3,1.081,1.081,0,0,0,.21.267l1.294.882a1.084,1.084,0,0,1,.339.542,2.491,2.491,0,0,1,.095.651A1.739,1.739,0,0,1,279.573,334.544Z" transform="translate(-154 -300)" fill="#4e342e"/></g></svg>